<svg width="113" height="112" viewBox="0 0 113 112" fill="none" xmlns="http://www.w3.org/2000/svg">
<g id="heroicons:rocket-launch">
<rect x="0.905797" y="0.405797" width="111.188" height="111.188" rx="55.5942" fill="white"/>
<rect x="0.905797" y="0.405797" width="111.188" height="111.188" rx="55.5942" stroke="#007BBD" stroke-width="0.811594"/>
<g id="Group 514657353">
<path id="Vector" d="M67.6196 63.7219C68.2849 66.5368 68.3045 69.4657 67.677 72.2893C67.0495 75.1129 65.7912 77.7579 63.9963 80.0261C62.2014 82.2942 59.9165 84.1268 57.3128 85.3866C54.709 86.6463 51.854 87.3004 48.9615 87.3V71.9646M67.6196 63.7219C73.7214 59.2771 78.6853 53.4519 82.1057 46.7222C85.526 39.9925 87.306 32.5491 87.3 25C79.7515 24.9946 72.3087 26.7747 65.5796 30.1951C58.8505 33.6155 53.0258 38.579 48.5813 44.6804M67.6196 63.7219C62.0666 67.7834 55.7037 70.5954 48.9615 71.9646M48.9615 71.9646C48.631 72.0319 48.2998 72.0958 47.9679 72.1563C45.0695 69.858 42.4452 67.2337 40.1469 64.3353C40.2072 64.0023 40.2679 63.6701 40.3354 63.3385M48.5813 44.6804C45.7662 44.0146 42.8369 43.9945 40.0129 44.6218C37.1889 45.249 34.5435 46.5072 32.275 48.3022C30.0064 50.0971 28.1735 52.3822 26.9136 54.9862C25.6537 57.5903 24.9995 60.4457 25 63.3385H40.3354M48.5813 44.6804C44.5203 50.2325 41.7052 56.5974 40.3354 63.3385M70.5269 46.5654C70.5269 47.8364 70.022 49.0553 69.1233 49.9541C68.2246 50.8528 67.0056 51.3577 65.7346 51.3577C64.4636 51.3577 63.2447 50.8528 62.3459 49.9541C61.4472 49.0553 60.9423 47.8364 60.9423 46.5654C60.9423 45.2944 61.4472 44.0755 62.3459 43.1767C63.2447 42.278 64.4636 41.7731 65.7346 41.7731C67.0056 41.7731 68.2246 42.278 69.1233 43.1767C70.022 44.0755 70.5269 45.2944 70.5269 46.5654Z" stroke="#007BBD" stroke-width="4.11115" stroke-linecap="round" stroke-linejoin="round"/>
<path id="Vector_2" fill-rule="evenodd" clip-rule="evenodd" d="M39.8107 65.7347C39.4251 66.1203 39.3091 66.7089 39.5854 67.1456C38.4703 66.9314 36.8563 67.6707 33.5482 68.8992C29.3653 70.451 28.5942 73.9802 28.5942 73.9802C28.5942 73.9802 29.9429 74.6421 31.919 74.8425C29.3929 78.4961 29.9719 82.3708 29.9719 82.3708C29.9719 82.3708 33.8494 82.9484 37.5016 80.4251C37.702 82.4012 38.3639 83.7485 38.3639 83.7485C38.3639 83.7485 41.8973 82.976 43.4477 78.7918C44.6941 75.4339 45.4375 73.8213 45.1902 72.7075C45.6448 72.9342 46.2584 72.8913 46.6121 72.5376L39.8107 65.7347ZM40.5127 77.9613C40.5127 77.9613 42.4693 77.5329 43.3302 75.2114C43.9935 73.4275 44.3887 72.5403 44.3017 71.9254L40.4201 68.0452C39.8038 67.9567 38.9166 68.3506 37.1313 69.0125C34.8098 69.8734 34.3814 71.8301 34.3814 71.8301C34.3814 71.8301 35.4288 72.3358 36.8604 72.3331C35.1843 74.4445 35.5145 76.8282 35.5145 76.8282C35.5145 76.8282 37.8982 77.1598 40.0097 75.4837C40.0055 76.9125 40.5127 77.9613 40.5127 77.9613Z" fill="#007BBD"/>
</g>
</g>
</svg>
