<svg width="112" height="112" viewBox="0 0 112 112" fill="none" xmlns="http://www.w3.org/2000/svg">
<g id="Frame 480958561">
<rect x="0.5" y="0.5" width="111" height="111" rx="55.5" fill="white"/>
<rect x="0.5" y="0.5" width="111" height="111" rx="55.5" stroke="#007BBD"/>
<path id="Vector" d="M55.764 85.6827L55.7626 85.6822C46.9005 82.2716 40.9555 77.7825 37.2098 72.3862C33.4668 66.9936 31.8029 60.5263 31.8029 52.9457V36.4292C31.8029 36.1695 31.979 35.9146 32.2662 35.8273C36.1408 34.649 39.0815 33.5035 42.3291 32.2341L42.4605 32.1827C45.6675 30.9292 49.2129 29.5433 54.3473 27.8415C54.677 27.7322 55.3004 27.6376 56.0254 27.6339C56.761 27.6301 57.3449 27.7215 57.6262 27.824C60.0143 28.6946 62.2376 29.5106 64.3744 30.2948C69.5449 32.1925 74.2084 33.9041 79.4724 35.7524C79.7182 35.8387 79.8798 36.0694 79.8798 36.3237V52.9457C79.8798 60.5242 78.2159 66.9916 74.4728 72.3847C70.7271 77.7816 64.782 82.2717 55.9201 85.6822L55.9187 85.6827C55.8689 85.7019 55.8138 85.7019 55.764 85.6827ZM62.2564 55.7227C63.1944 54.3957 63.6976 52.8103 63.6968 51.1852C63.696 49.7453 63.2995 48.3334 62.5504 47.1036C61.8014 45.8738 60.7287 44.8736 59.4497 44.2122C58.1706 43.5508 56.7344 43.2537 55.2979 43.3533C53.8614 43.453 52.4799 43.9455 51.3044 44.7771C50.1289 45.6087 49.2046 46.7473 48.6325 48.0687C48.0604 49.3901 47.8625 50.8433 48.0606 52.2695C48.2586 53.6958 48.8449 55.0401 49.7553 56.1557C50.3862 56.9287 51.156 57.5713 52.0209 58.0527V65.3074C52.0209 66.3206 52.4235 67.2923 53.14 68.0088C53.8565 68.7252 54.8282 69.1276 55.8413 69.1276C56.8545 69.1276 57.8262 68.7252 58.5427 68.0088C59.2592 67.2923 59.6617 66.3206 59.6617 65.3074V58.0527C60.6854 57.4829 61.5738 56.6885 62.2564 55.7227Z" stroke="#007BBD" stroke-width="3.60577"/>
</g>
</svg>
