<svg width="112" height="112" viewBox="0 0 112 112" fill="none" xmlns="http://www.w3.org/2000/svg">
<g id="Frame 480958558">
<rect x="0.5" y="0.5" width="111" height="111" rx="55.5" fill="white"/>
<rect x="0.5" y="0.5" width="111" height="111" rx="55.5" stroke="#007BBD"/>
<g id="Group">
<path id="Vector" fill-rule="evenodd" clip-rule="evenodd" d="M30 57.5906L32.0781 77.481L37.2734 73.7701C38.7577 75.4029 40.8358 76.8872 42.617 78.0747C45.2889 79.7075 48.2576 80.895 51.3748 81.3403C54.195 81.934 57.6091 82.2309 60.4293 81.7856C63.5465 81.1918 66.3668 80.1528 69.1871 78.6684C71.8589 77.1841 74.3823 75.106 76.4604 72.8794C78.3901 70.6529 80.0229 68.1295 81.0619 65.1608C83.14 59.3718 83.14 53.1375 81.0619 47.4969C79.1323 41.8564 75.1245 37.1064 69.9292 34.2861C67.7027 33.0986 64.734 31.7627 61.7653 31.3174C59.0934 30.8721 56.1247 30.8721 53.3044 31.4659C47.6639 32.3565 42.4686 35.6221 39.0546 39.9267C37.4218 42.0048 35.9374 44.5282 35.1953 47.2001C34.1562 49.7235 33.7109 52.5438 34.0078 55.364C34.0078 52.6922 34.6015 49.8719 35.6406 47.4969C36.6796 44.9735 38.164 42.5986 39.7968 40.5205C43.5077 36.5127 48.5545 34.1377 53.8982 33.2471C56.4216 33.0987 59.0934 33.0987 61.6168 33.6924C64.1402 34.2861 66.8121 35.3252 68.8902 36.6611C73.1948 39.6298 76.312 43.9345 77.7963 48.6844C79.4291 53.5828 78.9838 58.7781 76.9057 63.528C74.8276 67.8326 71.2652 71.692 66.9605 73.6216C64.734 74.8091 62.359 75.4028 59.984 75.6997C57.7575 75.8481 55.2341 75.6997 53.156 75.106C49.2967 74.2154 45.8826 72.1373 43.3592 69.317L48.5545 65.6061L30 57.5906Z" fill="#007BBD"/>
<path id="Vector_2" d="M49.4249 56.0389C51.962 55.683 52.8791 58.2918 55.1898 63.7039C55.3483 64.0807 55.6524 64.0996 55.8647 63.7507C57.3929 61.2366 64.4927 52.82 68.8899 47.1786C69.829 45.9704 69.5409 45.6026 68.2968 46.4928C63.3154 50.0636 57.6053 55.999 56.3053 57.3737C56.1538 57.5332 55.9654 57.4983 55.8767 57.2969C53.3935 51.6596 50.1108 54.2615 49.1169 55.6192C48.8756 55.9492 49.0222 56.0977 49.4249 56.0389Z" fill="#007BBD"/>
</g>
</g>
</svg>
