<svg width="48" height="48" viewBox="0 0 48 48" fill="none" xmlns="http://www.w3.org/2000/svg">
<g id="ph:arrow-up-light">
<path id="Vector" d="M35.6713 32.5396C35.3732 32.5394 35.0873 32.4209 34.8765 32.2101C34.6657 31.9993 34.5472 31.7134 34.547 31.4153L34.5457 15.04L13.1323 36.4534C12.9213 36.6644 12.6352 36.7829 12.3368 36.7829C12.0384 36.7829 11.7523 36.6644 11.5413 36.4534C11.3303 36.2425 11.2118 35.9563 11.2118 35.6579C11.2118 35.3596 11.3303 35.0734 11.5413 34.8624L32.9547 13.449L16.5794 13.4477C16.2881 13.4374 16.0122 13.3145 15.8097 13.1048C15.6073 12.895 15.4941 12.6149 15.4941 12.3234C15.4941 12.0319 15.6073 11.7518 15.8097 11.5421C16.0122 11.3324 16.2881 11.2094 16.5794 11.1991L35.6713 11.1991C35.9695 11.1993 36.2553 11.3178 36.4661 11.5286C36.6769 11.7394 36.7954 12.0253 36.7956 12.3234L36.7956 31.4153C36.7954 31.7134 36.6769 31.9993 36.4661 32.2101C36.2553 32.4209 35.9695 32.5394 35.6713 32.5396Z" fill="white"/>
</g>
</svg>
