<svg width="40" height="40" viewBox="0 0 40 40" fill="none" xmlns="http://www.w3.org/2000/svg">
<g id="typcn:info">
<path id="Vector" d="M21.0635 24.4011C21.0633 24.4007 21.0631 24.4001 21.0629 24.3996C21.0487 24.3582 21.0104 24.16 21.1908 23.6265L21.1911 23.6256L21.8745 21.5922L21.8749 21.5911C22.3052 20.3001 22.2634 19.0584 21.6161 18.1048C21.0984 17.3204 20.2422 16.8914 19.2634 16.8338C18.0107 16.7596 16.998 17.1642 16.2991 17.589C15.6609 17.9769 15.2612 18.3958 15.1539 18.5246C14.8536 18.8692 14.8775 19.341 15.1076 19.6697L15.1168 19.6828L15.1268 19.6953C15.415 20.0556 15.8911 20.13 16.2575 19.9468L16.2654 19.9428L16.2733 19.9386C16.3362 19.9042 16.501 19.8277 16.6988 19.7605C16.8874 19.6965 17.0621 19.6562 17.1868 19.6504L17.2875 19.6647C17.2877 19.6652 17.2879 19.6658 17.2881 19.6663C17.3023 19.7077 17.3407 19.9059 17.1602 20.4394L17.1599 20.4403L16.4769 22.4728C16.4768 22.4729 16.4768 22.473 16.4768 22.4731C16.0425 23.758 16.1088 24.9949 16.7331 25.9415L21.0635 24.4011ZM21.0635 24.4011L21.1642 24.4155C21.2894 24.4097 21.4647 24.3693 21.6563 24.3061C21.8436 24.2442 22.0098 24.173 22.0971 24.1337C22.5021 23.9242 22.9418 24.0517 23.2078 24.3672C23.5191 24.7014 23.4623 25.2011 23.1989 25.506C23.0986 25.6276 22.7293 26.0202 22.1349 26.3969C21.4862 26.808 20.5444 27.2163 19.3672 27.2163H19.1172H19.1025L19.0878 27.2154C18.1078 27.1578 17.2506 26.7278 16.7331 25.9416L21.0635 24.4011ZM34.8551 22.9235L34.8566 22.9261C35.5642 24.0896 35.8991 25.2816 35.8839 26.4095H35.8839V26.4163C35.8839 27.2627 35.6732 28.0605 35.2497 28.8015C34.289 30.4829 32.4079 31.4996 30.0005 31.4996H10.0005C7.59313 31.4996 5.71208 30.4829 4.75131 28.8015C4.33055 28.0652 4.11719 27.2183 4.11719 26.3496C4.11719 25.2519 4.45284 24.0734 5.14542 22.9244L5.14605 22.9233L14.9951 6.49165C14.9952 6.49137 14.9954 6.4911 14.9956 6.49082C16.2232 4.46097 18.0417 3.34961 20.0005 3.34961C21.959 3.34961 23.7774 4.46062 25.0051 6.50686L34.8551 22.9235ZM23.0839 13.6663C23.0839 11.9735 21.6933 10.5829 20.0005 10.5829C18.291 10.5829 16.9172 11.9568 16.9172 13.6663C16.9172 15.3591 18.3077 16.7496 20.0005 16.7496C21.7121 16.7496 23.0839 15.357 23.0839 13.6663Z" stroke="#007BBD"/>
</g>
</svg>
