<svg width="52" height="52" viewBox="0 0 52 52" fill="none" xmlns="http://www.w3.org/2000/svg">
<g id="fluent:slow-mode-24-regular">
<g id="Group 514657364">
<g id="Group">
<g id="Group_2">
<path  d="M26.4 40.34C27.2288 40.34 27.86 40.9712 27.86 41.8C27.86 42.6287 27.2288 43.26 26.4 43.26C25.5713 43.26 24.94 42.6287 24.94 41.8C24.94 40.9712 25.5713 40.34 26.4 40.34ZM26.4 39.1C24.8888 39.1 23.7 40.2887 23.7 41.8C23.7 43.3112 24.8888 44.5 26.4 44.5C27.9113 44.5 29.1 43.3112 29.1 41.8C29.1 40.2874 27.858 39.1 26.4 39.1Z" fill="#007BBD" stroke="#007BBD" stroke-width="0.2"/>
</g>
<g id="Group_3">
<path id="Vector_2" d="M23.9363 32.7579L23.9067 32.7638L23.8852 32.7852L21.3372 35.3332L21.4599 35.4894C22.9 34.6151 24.546 34.1519 26.296 34.1519C28.8174 34.1519 31.184 35.1294 32.9852 36.9307L33.056 37.0014L33.1267 36.9307L34.1667 35.8907L34.2374 35.8199L34.1667 35.7492C31.9629 33.5454 29.1289 32.4959 26.296 32.4959C25.5072 32.4959 24.7203 32.6011 23.9363 32.7579Z" fill="#007BBD" stroke="#007BBD" stroke-width="0.2"/>
</g>
<g id="Group_4">
<path id="Vector_3" d="M31.0026 25.7396L30.9465 25.7241L30.9053 25.7653L29.7093 26.9613L29.5792 27.0914L29.7592 27.1298C32.913 27.8019 35.8595 29.3529 38.1853 31.6787L38.256 31.7494L38.3267 31.6787L39.3667 30.6387L39.439 30.5664L39.3652 30.4958C36.9088 28.144 34.0341 26.5759 31.0026 25.7396Z" fill="#007BBD" stroke="#007BBD" stroke-width="0.2"/>
</g>
<g id="Group_5">
<path id="Vector_4" d="M24.9626 25.3867L25.1529 25.1964L24.8845 25.2163C20.6494 25.53 16.5187 27.3078 13.2772 30.5493L13.2065 30.62L13.2772 30.6907L14.3172 31.7307L14.3879 31.8014L14.4586 31.7307C16.8886 29.3007 19.9381 27.6988 23.1931 27.1305L23.2243 27.125L23.2466 27.1027L24.9626 25.3867Z" fill="#007BBD" stroke="#007BBD" stroke-width="0.2"/>
</g>
<g id="Group_6">
<path id="Vector_5" d="M36.7366 20.0246L36.6739 19.9967L36.6253 20.0453L35.5333 21.1373L35.4279 21.2427L35.5654 21.3002C38.4133 22.4912 41.0544 24.2518 43.3333 26.5307L43.404 26.6014L43.4747 26.5307L44.5147 25.4907L44.5862 25.4192L44.5139 25.3485C42.1657 23.0525 39.5559 21.2776 36.7366 20.0246Z" fill="#007BBD" stroke="#007BBD" stroke-width="0.2"/>
</g>
<g id="Group_7">
<path id="Vector_6" d="M8.07761 25.3489L8.00616 25.4196L8.07724 25.4907L9.11724 26.5307L9.18795 26.6014L9.25866 26.5307C13.8158 21.9736 19.8743 19.4879 26.2959 19.4879C27.6952 19.4879 29.0927 19.5916 30.4371 19.8501L30.4892 19.8602L30.5267 19.8227L31.7747 18.5747L31.9059 18.4434L31.7241 18.406C29.9503 18.0408 28.1235 17.8319 26.2959 17.8319C19.7185 17.8319 13.1409 20.3377 8.07761 25.3489Z" fill="#007BBD" stroke="#007BBD" stroke-width="0.2"/>
</g>
<g id="Group_8">
<path id="Vector_7" d="M2.92929 20.2013L2.85858 20.272L2.92929 20.3427L3.96929 21.3827L4.04031 21.4537L4.11102 21.3824C10.0201 15.4214 17.8985 12.156 26.296 12.156C29.7691 12.156 33.1903 12.7262 36.4039 13.8147L36.4628 13.8346L36.5067 13.7907L37.6507 12.6467L37.7625 12.5349L37.6136 12.4818C33.9632 11.1781 30.1558 10.5 26.296 10.5C17.8464 10.5 9.39671 13.7338 2.92929 20.2013Z" fill="#007BBD" stroke="#007BBD" stroke-width="0.2"/>
</g>
<g id="Group_9">
<path id="Vector_8" d="M42.2041 14.5683L42.1383 14.5322L42.0853 14.5852L40.9933 15.6772L40.8982 15.7723L41.0166 15.836C43.7122 17.2875 46.2523 19.1537 48.4813 21.3827L48.552 21.4534L48.6227 21.3827L49.6627 20.3427L49.7326 20.2728L49.6635 20.2021C47.4201 17.9064 44.864 16.0286 42.2041 14.5683Z" fill="#007BBD" stroke="#007BBD" stroke-width="0.2"/>
</g>
</g>
<g id="Group_10">
<path id="Vector_9" d="M44.5649 7.92766L44.4942 7.8602L44.4251 7.92929L11.3531 41.0013L11.284 41.0704L11.3515 41.141L12.4435 42.285L12.5142 42.3591L12.5865 42.2867L45.7105 9.16271L45.7829 9.09034L45.7089 9.01966L44.5649 7.92766Z" fill="#007BBD" stroke="#007BBD" stroke-width="0.2"/>
</g>
</g>
</g>
</svg>
