<svg width="52" height="52" viewBox="0 0 52 52" fill="none" xmlns="http://www.w3.org/2000/svg">
<g id="fluent:slow-mode-24-regular">
<path id="Vector 1" d="M38.8853 31.7323C33.8853 7.23236 16.3853 8.23231 10.8853 26.2323C9.38532 26.7323 7.38533 26.2323 5.8853 26.2323C3.88533 26.2323 5.66283 29.4404 7.38532 30.7323C8.36886 31.47 12.2547 33.0542 17.7344 33.8196M38.8853 31.7323C39.7016 35.7324 42.8853 39.2322 35.8853 39.2323C31.3853 39.2324 31.3853 36.2324 30.6598 33.7842M38.8853 31.7323C36.1367 32.7401 33.3566 33.3954 30.6598 33.7842M17.7344 33.8196C16.3853 37.2323 16.3853 39.2323 12.3853 39.2323C7.98535 39.2323 5.38525 39.2323 9.38525 31.7323M17.7344 33.8196C21.3554 34.3255 25.8769 34.4738 30.6598 33.7842M36.3231 23.3777C40.3231 22.8777 47.8853 20.7324 46.8853 30.2324C46.6105 32.8426 39.3794 32.1515 38.9794 32.1515" stroke="#007BBD" stroke-width="1.6"/>
</g>
</svg>
