<svg width="832" height="265" viewBox="0 0 832 265" fill="none" xmlns="http://www.w3.org/2000/svg">
<path fill-rule="evenodd" clip-rule="evenodd" d="M187.039 125.856C209.301 125.856 227.349 107.809 227.349 85.5464C227.349 63.2838 209.301 45.2363 187.039 45.2363C164.776 45.2363 146.729 63.2838 146.729 85.5464C146.729 89.4305 147.271 93.1473 148.269 96.645C151.675 108.578 160.507 118.312 171.928 122.935C176.562 124.811 181.649 125.856 187.039 125.856ZM251.535 85.5464C251.535 121.167 222.659 150.043 187.039 150.043C178.486 150.043 170.322 148.378 162.853 145.354L126.747 176.647C128.211 182.042 128.992 187.719 128.992 193.577C128.992 226.971 103.613 254.438 71.0905 257.741C70.1011 257.841 69.1053 257.919 68.1032 257.974C66.9093 258.04 65.7065 258.074 64.4961 258.074C55.0811 258.074 46.1373 256.056 38.0733 252.43L66.2216 227.162C70.3144 223.488 72.2522 217.981 71.3621 212.554L69.2954 199.952C68.327 194.048 64.169 189.166 58.4944 187.269L46.0861 183.123C40.5851 181.284 34.5207 182.542 30.2046 186.417L2.46943 211.314C0.861135 205.679 0 199.729 0 193.577C0 189.125 0.451186 184.778 1.31033 180.579C1.37168 180.279 1.4351 179.98 1.50059 179.682C7.85544 150.741 33.6464 129.081 64.4961 129.081C73.6688 129.081 82.3943 130.996 90.2946 134.448L125.012 103.283C123.404 97.6478 122.543 91.6977 122.543 85.5464C122.543 49.9262 151.419 21.0503 187.039 21.0503C222.659 21.0503 251.535 49.9262 251.535 85.5464ZM101.3 148.899L131.411 122.632L125.866 116.988L99.9842 139.566C95.9425 143.092 90.4251 144.3 85.1643 143.257C72.8888 140.821 62.5302 140.737 53.816 142.286C24.3095 147.532 13.6578 171.503 11.2868 186.322C17.3113 167.998 39.9363 137.481 83.8925 151.934C89.871 153.9 96.5574 153.036 101.3 148.899Z" fill="#007BBD"/>
<rect x="175.752" y="0.0893555" width="22.5736" height="82.2326" rx="11.2868" fill="#007BBD"/>
<path d="M316.186 164.216C305.041 164.216 295.753 161.636 288.22 156.477V137.489C291.213 140.275 295.341 142.545 300.604 144.506C305.866 146.467 310.82 147.396 315.463 147.396C322.79 147.396 326.505 145.538 326.505 141.72C326.505 139.553 325.37 138.624 323.719 137.489C322.893 136.767 320.314 136.044 319.075 135.632L312.574 133.671L307.311 132.123L302.564 130.265C300.5 129.44 298.952 128.718 297.817 127.995C295.753 126.447 292.348 123.971 290.8 121.391C289.459 118.811 288.22 114.993 288.22 110.762C288.22 96.8306 299.262 89.0911 316.599 89.0911C325.37 89.0911 333.522 91.0518 341.056 95.0763V112.929C337.857 110.968 334.038 109.317 329.601 107.976C325.164 106.634 320.933 105.912 316.805 105.912C310.51 105.912 307.311 107.46 307.311 110.659C307.311 112 308.137 113.032 310.304 113.961L313.606 115.096C315.773 115.818 320.52 117.057 323.513 117.985C330.427 120.256 335.896 123.145 339.817 126.55C343.739 129.956 345.699 134.806 345.699 140.998C345.699 148.118 342.913 153.69 337.444 157.921C331.974 162.152 324.854 164.216 316.186 164.216ZM397.397 164.216C385.839 164.216 376.242 160.708 368.606 153.69C360.97 146.673 357.151 137.695 357.151 126.654C357.151 115.612 360.97 106.634 368.503 99.6169C376.139 92.5997 385.736 89.0911 397.294 89.0911C404.105 89.0911 410.296 90.4326 415.972 93.2189V111.484C410.296 107.976 404.208 106.221 397.5 106.221C391.412 106.221 386.355 108.182 382.331 112C378.306 115.818 376.242 120.772 376.242 126.654C376.242 132.639 378.306 137.592 382.434 141.41C386.665 145.229 391.928 147.086 398.222 147.086C405.859 147.086 412.154 145.125 417.21 141.307V159.676C411.328 162.668 404.724 164.216 397.397 164.216Z" fill="black"/>
<path d="M309.272 250.771H290.697V178.536H309.169L327.434 206.295L345.802 178.536H364.171V250.771H345.699V206.708L332.8 226.108H322.584L309.272 206.708V250.771ZM404.283 229.307C407.894 233.125 412.435 235.086 417.904 235.086C423.374 235.086 427.811 233.125 431.423 229.307C435.034 225.489 436.892 220.536 436.892 214.654C436.892 208.772 435.034 203.818 431.423 200C427.811 196.182 423.374 194.221 417.904 194.221C412.435 194.221 407.894 196.182 404.283 200C400.671 203.818 398.917 208.772 398.917 214.654C398.917 220.536 400.671 225.489 404.283 229.307ZM445.147 241.278C437.924 248.604 428.843 252.216 417.904 252.216C406.966 252.216 397.885 248.604 390.661 241.278C383.438 233.951 379.826 225.076 379.826 214.654C379.826 204.231 383.438 195.356 390.661 188.03C397.885 180.703 406.966 177.091 417.904 177.091C428.843 177.091 437.924 180.703 445.147 188.03C452.371 195.356 455.983 204.231 455.983 214.654C455.983 225.076 452.371 233.951 445.147 241.278ZM508.831 250.771H471.681V178.536H506.87C520.079 178.536 529.366 184.934 529.366 196.801C529.366 203.818 525.342 208.772 520.905 210.835C524.413 211.661 527.612 213.725 530.398 217.13C533.185 220.536 534.629 224.767 534.629 230.03C534.629 236.221 532.256 241.278 527.509 245.096C522.865 248.914 516.57 250.771 508.831 250.771ZM490.256 219.917V235.292H505.219C510.895 235.292 514.3 232.506 514.3 227.656C514.3 222.806 510.688 219.917 505.219 219.917H490.256ZM490.256 193.602V206.192H504.084C508.625 206.192 511.514 203.818 511.514 200C511.514 195.976 508.625 193.602 504.084 193.602H490.256ZM568.262 250.771H549.687V178.536H568.262V250.771ZM639.906 250.771H586.658V178.536H605.232V234.467H639.906V250.771ZM672.657 250.771H654.082V178.536H672.657V250.771ZM727.274 250.771H708.699V194.84H687.028V178.536H749.048V194.84H727.274V250.771ZM802.938 250.771H784.363V218.781L756.604 178.536H777.759L793.857 202.374L810.058 178.536H830.697L802.938 218.369V250.771Z" fill="#007BBD"/>
</svg>
