<svg width="52" height="52" viewBox="0 0 52 52" fill="none" xmlns="http://www.w3.org/2000/svg">
<g id="fluent:slow-mode-24-regular">
<g id="Group 514657363">
<path id="Vector" d="M43.1875 10.9375H7.4375C6.79103 10.9375 6.17105 11.1943 5.71393 11.6514C5.25681 12.1085 5 12.7285 5 13.375V42.625C5 43.2715 5.25681 43.8915 5.71393 44.3486C6.17105 44.8057 6.79103 45.0625 7.4375 45.0625H43.1875C43.834 45.0625 44.454 44.8057 44.9111 44.3486C45.3682 43.8915 45.625 43.2715 45.625 42.625V13.375C45.625 12.7285 45.3682 12.1085 44.9111 11.6514C44.454 11.1943 43.834 10.9375 43.1875 10.9375ZM7.4375 12.5625H43.1875C43.403 12.5625 43.6096 12.6481 43.762 12.8005C43.9144 12.9528 44 13.1595 44 13.375V36.2062L37.3192 29.5255C37.0928 29.2982 36.8237 29.1179 36.5274 28.9949C36.2311 28.8719 35.9135 28.8085 35.5927 28.8085C35.2718 28.8085 34.9542 28.8719 34.6579 28.9949C34.3616 29.1179 34.0925 29.2982 33.8661 29.5255L29.2288 34.1628L19.7184 24.6505C19.492 24.4232 19.2229 24.2429 18.9266 24.1199C18.6303 23.9969 18.3127 23.9335 17.9919 23.9335C17.6711 23.9335 17.3534 23.9969 17.0571 24.1199C16.7608 24.2429 16.4918 24.4232 16.2653 24.6505L6.625 34.2969V13.375C6.625 13.1595 6.7106 12.9528 6.86298 12.8005C7.01535 12.6481 7.22201 12.5625 7.4375 12.5625ZM6.625 42.625V36.6003L17.4252 25.8002C17.5006 25.7246 17.5902 25.6647 17.6889 25.6238C17.7875 25.5829 17.8932 25.5619 18 25.5619C18.1068 25.5619 18.2125 25.5829 18.3111 25.6238C18.4098 25.6647 18.4994 25.7246 18.5748 25.8002L36.2122 43.4375H7.4375C7.22201 43.4375 7.01535 43.3519 6.86298 43.1995C6.7106 43.0471 6.625 42.8405 6.625 42.625ZM43.1875 43.4375H38.5156L30.3906 35.3125L35.028 30.6752C35.1034 30.5996 35.193 30.5397 35.2917 30.4988C35.3903 30.4579 35.496 30.4369 35.6028 30.4369C35.7096 30.4369 35.8153 30.4579 35.9139 30.4988C36.0126 30.5397 36.1022 30.5996 36.1777 30.6752L44 38.5036V42.625C44 42.8405 43.9144 43.0471 43.762 43.1995C43.6096 43.3519 43.403 43.4375 43.1875 43.4375Z" fill="#007BBD"/>
<path id="!" d="M41.2256 17.6203L41.2705 18.3731C40.6659 19.0772 40.3125 20.0057 40.3125 21.0155C40.3125 23.1569 41.9166 25 44.1936 25C46.4773 25 48.0954 23.1717 48.0954 21.0155C48.0954 20.0146 47.75 19.0988 47.1586 18.4001L47.2033 17.6149L47.6374 9.98702L47.639 9.95899L47.6398 9.93092L47.7225 7.05753L47.7817 5H45.7234H42.6846H40.6262L40.6854 7.05753L40.7681 9.93091L40.769 9.96169L40.7708 9.99241L41.2256 17.6203Z" fill="#007BBD" stroke="white" stroke-width="4"/>
</g>
</g>
</svg>
