<svg width="52" height="52" viewBox="0 0 52 52" fill="none" xmlns="http://www.w3.org/2000/svg">
<g id="fluent:slow-mode-24-regular">
<g id="Group 514657362">
<g id="Group">
<path id="Vector" d="M27.0846 43H24.6446C16.2485 43 10.1868 36.2536 12.4942 29.4769C13.9134 25.3068 15.957 21.3047 18.5762 17.5664L22.3237 12.2176C23.7414 10.1938 24.4514 9.181 25.4647 9.03012C25.7291 8.98996 26 8.98996 26.2645 9.03012C27.2778 9.181 27.9878 10.1938 29.4055 12.2176L33.153 17.5664C34.6647 19.724 35.9847 21.9695 37.1035 24.2844" stroke="#007BBD" stroke-width="1.56688"/>
</g>
<path id="Vector_2" d="M30.1721 26.8959C31.8791 28.1291 32.5026 31.9869 31.0256 33.884C28.4652 37.1725 29.3187 40.8721 31.0256 41.6942M34.7752 26.8959C36.4822 28.1291 37.1058 31.9869 35.6287 33.884C33.0684 37.1725 33.9218 40.8721 35.6287 41.6942M39.0426 26.8959C40.7496 28.1291 41.3731 31.9869 39.896 33.884C37.3357 37.1725 38.1891 40.8721 39.896 41.6942" stroke="#007BBD" stroke-width="1.56688"/>
</g>
</g>
</svg>
