<svg width="160" height="160" viewBox="0 0 160 160" fill="none" xmlns="http://www.w3.org/2000/svg">
<g id="noun-professionalism-5995809 1" filter="url(#filter0_f_154_791)">
<g id="Vector">
<mask id="path-1-outside-1_154_791" maskUnits="userSpaceOnUse" x="14.5557" y="14.7691" width="132" height="130" fill="black">
<rect fill="white" x="14.5557" y="14.7691" width="132" height="130"/>
<path d="M53.5423 56.5003C38.7708 56.5003 35.34 69.6517 46.3376 69.6517H60.747C71.7446 69.6517 68.3329 56.5003 53.5423 56.5003ZM107.253 50.7252C128.334 50.7252 145.469 67.841 145.469 88.9405C145.469 99.5759 140.971 109.316 133.937 116.33L142.4 133.636C143.124 135.618 141.314 136.152 140.589 135.981L129.42 132.378L125.284 143.376C124.751 144.824 122.768 144.824 122.406 143.376L114.115 126.431C109.617 127.327 105.1 127.327 100.601 126.431L92.3104 143.376C91.7767 144.824 89.7945 144.824 89.4323 143.376L85.2963 132.378L74.1271 135.981C73.2313 136.152 71.4206 135.618 72.1449 133.636L80.7981 116.33C73.2313 108.934 69.0762 99.0232 69.2668 88.5783C64.4065 90.7321 59.165 92.0091 53.5804 92.0091C32.5001 92.0091 15.5557 74.8932 15.5557 53.7938C15.5176 32.885 32.462 15.7691 53.5423 15.7691C74.8133 15.7691 91.7576 33.0756 91.567 54.156C96.4464 52.0022 101.669 50.7252 107.253 50.7252ZM131.402 118.503C127.266 121.933 122.578 124.449 117.165 125.707L123.645 138.859L126.885 129.843C127.247 129.119 127.972 128.585 128.867 128.947L137.883 131.825L131.402 118.503ZM97.3422 125.707C92.1198 124.259 87.2404 121.743 83.1044 118.503L76.624 131.845L85.8109 128.966C86.5352 128.604 87.431 129.138 87.7932 129.862L91.0334 138.878L97.3422 125.707ZM69.4002 84.976C69.7624 81.9073 70.2961 79.0293 71.3825 76.3227C66.5222 80.1157 60.2133 82.441 53.5423 82.441C37.6844 82.441 24.8951 69.6517 24.8951 53.7938C24.8951 37.9359 37.6844 25.1466 53.5423 25.1466C69.4002 25.1466 82.1895 37.9359 82.1895 53.7938C82.1895 56.3097 81.8274 58.8447 81.2937 60.9985C83.4475 59.0163 85.7919 57.2056 88.3268 55.7761C89.6039 35.7821 73.5553 19.0093 53.5423 19.0093C34.2727 19.0093 18.5863 34.5051 18.5863 53.7938C18.5863 73.0825 34.2727 88.7499 53.5423 88.7499C59.3175 88.7689 64.5399 87.3204 69.4002 84.976ZM107.253 53.9844C87.9647 53.9844 72.2974 69.6708 72.2974 88.9405C72.2974 108.229 87.9838 123.897 107.253 123.897C126.542 123.897 142.209 108.21 142.209 88.9405C142.229 69.6517 126.542 53.9844 107.253 53.9844ZM107.253 60.2933C123.111 60.2933 135.901 73.0825 135.901 88.9405C135.901 104.798 123.111 117.588 107.253 117.588C91.567 117.588 78.6062 104.798 78.6062 88.9405C78.6062 73.0825 91.3955 60.2933 107.253 60.2933ZM107.253 63.5335C93.1871 63.5335 81.8464 74.8932 81.8464 88.9405C81.8464 102.988 93.2062 114.347 107.253 114.347C121.32 114.347 132.851 102.988 132.851 88.9405C132.851 74.8932 121.32 63.5335 107.253 63.5335ZM53.5423 28.3868C39.476 28.3868 28.1353 39.7466 28.1353 53.7938C28.1353 67.841 39.4951 79.3914 53.5423 79.3914C67.5896 79.3914 78.9684 67.8601 78.9684 53.7938C78.9684 39.7275 67.6086 28.3868 53.5423 28.3868ZM111.218 71.4624L114.82 78.8577L122.749 79.9441C126.18 80.4778 127.438 84.4423 124.903 86.9773L119.128 92.7525L120.386 100.51C120.919 103.941 117.679 106.457 114.439 104.837L107.234 101.044L100.03 104.837C96.961 106.457 93.5493 103.941 94.083 100.51L95.3409 92.7525L89.5657 86.9773C87.0498 84.4613 88.4793 80.4969 91.9101 79.9441L99.6675 78.8577L103.27 71.4624C104.909 68.3938 109.598 68.3938 111.218 71.4624ZM108.511 73.0825C107.978 72.1867 106.701 72.1867 106.167 73.0825L102.203 80.84C102.031 81.3736 101.478 81.7358 100.945 81.7358L92.4819 83.1843C91.5861 83.1843 91.224 84.0802 91.9482 84.8044L98.2571 90.9227C98.2571 91.0942 98.7908 91.647 98.6192 92.3713L97.3613 101.024C97.1897 102.111 98.0856 102.282 98.6192 101.92L106.548 97.9558C107.082 97.5937 107.635 97.5937 107.997 97.9558L115.926 101.92C116.65 102.282 117.546 102.092 117.374 101.024L115.926 92.3713C115.926 91.647 116.459 91.1133 116.459 90.9227L122.768 84.8044C123.493 84.0802 123.13 83.1843 122.235 83.1843L113.581 81.7358C113.048 81.7358 112.686 81.3736 112.495 80.84L108.511 73.0825ZM53.5423 53.4317C73.1932 53.4317 75.7091 72.8919 60.747 72.8919H46.3376C31.3755 72.8919 33.9105 53.4317 53.5423 53.4317ZM53.5423 31.7986C59.1269 31.7986 63.8157 36.2967 63.8157 41.9004C63.8157 47.6756 59.1269 52.1737 53.5423 52.1737C47.9577 52.1737 43.269 47.6756 43.269 41.9004C43.269 36.3158 47.9577 31.7986 53.5423 31.7986ZM53.5423 34.8672C49.5778 34.8672 46.5092 38.1074 46.5092 41.9004C46.5092 45.8649 49.5778 48.9335 53.5423 48.9335C57.3353 48.9335 60.5755 45.8649 60.5755 41.9004C60.5755 38.1074 57.5068 34.8672 53.5423 34.8672Z"/>
</mask>
<path d="M53.5423 56.5003C38.7708 56.5003 35.34 69.6517 46.3376 69.6517H60.747C71.7446 69.6517 68.3329 56.5003 53.5423 56.5003ZM107.253 50.7252C128.334 50.7252 145.469 67.841 145.469 88.9405C145.469 99.5759 140.971 109.316 133.937 116.33L142.4 133.636C143.124 135.618 141.314 136.152 140.589 135.981L129.42 132.378L125.284 143.376C124.751 144.824 122.768 144.824 122.406 143.376L114.115 126.431C109.617 127.327 105.1 127.327 100.601 126.431L92.3104 143.376C91.7767 144.824 89.7945 144.824 89.4323 143.376L85.2963 132.378L74.1271 135.981C73.2313 136.152 71.4206 135.618 72.1449 133.636L80.7981 116.33C73.2313 108.934 69.0762 99.0232 69.2668 88.5783C64.4065 90.7321 59.165 92.0091 53.5804 92.0091C32.5001 92.0091 15.5557 74.8932 15.5557 53.7938C15.5176 32.885 32.462 15.7691 53.5423 15.7691C74.8133 15.7691 91.7576 33.0756 91.567 54.156C96.4464 52.0022 101.669 50.7252 107.253 50.7252ZM131.402 118.503C127.266 121.933 122.578 124.449 117.165 125.707L123.645 138.859L126.885 129.843C127.247 129.119 127.972 128.585 128.867 128.947L137.883 131.825L131.402 118.503ZM97.3422 125.707C92.1198 124.259 87.2404 121.743 83.1044 118.503L76.624 131.845L85.8109 128.966C86.5352 128.604 87.431 129.138 87.7932 129.862L91.0334 138.878L97.3422 125.707ZM69.4002 84.976C69.7624 81.9073 70.2961 79.0293 71.3825 76.3227C66.5222 80.1157 60.2133 82.441 53.5423 82.441C37.6844 82.441 24.8951 69.6517 24.8951 53.7938C24.8951 37.9359 37.6844 25.1466 53.5423 25.1466C69.4002 25.1466 82.1895 37.9359 82.1895 53.7938C82.1895 56.3097 81.8274 58.8447 81.2937 60.9985C83.4475 59.0163 85.7919 57.2056 88.3268 55.7761C89.6039 35.7821 73.5553 19.0093 53.5423 19.0093C34.2727 19.0093 18.5863 34.5051 18.5863 53.7938C18.5863 73.0825 34.2727 88.7499 53.5423 88.7499C59.3175 88.7689 64.5399 87.3204 69.4002 84.976ZM107.253 53.9844C87.9647 53.9844 72.2974 69.6708 72.2974 88.9405C72.2974 108.229 87.9838 123.897 107.253 123.897C126.542 123.897 142.209 108.21 142.209 88.9405C142.229 69.6517 126.542 53.9844 107.253 53.9844ZM107.253 60.2933C123.111 60.2933 135.901 73.0825 135.901 88.9405C135.901 104.798 123.111 117.588 107.253 117.588C91.567 117.588 78.6062 104.798 78.6062 88.9405C78.6062 73.0825 91.3955 60.2933 107.253 60.2933ZM107.253 63.5335C93.1871 63.5335 81.8464 74.8932 81.8464 88.9405C81.8464 102.988 93.2062 114.347 107.253 114.347C121.32 114.347 132.851 102.988 132.851 88.9405C132.851 74.8932 121.32 63.5335 107.253 63.5335ZM53.5423 28.3868C39.476 28.3868 28.1353 39.7466 28.1353 53.7938C28.1353 67.841 39.4951 79.3914 53.5423 79.3914C67.5896 79.3914 78.9684 67.8601 78.9684 53.7938C78.9684 39.7275 67.6086 28.3868 53.5423 28.3868ZM111.218 71.4624L114.82 78.8577L122.749 79.9441C126.18 80.4778 127.438 84.4423 124.903 86.9773L119.128 92.7525L120.386 100.51C120.919 103.941 117.679 106.457 114.439 104.837L107.234 101.044L100.03 104.837C96.961 106.457 93.5493 103.941 94.083 100.51L95.3409 92.7525L89.5657 86.9773C87.0498 84.4613 88.4793 80.4969 91.9101 79.9441L99.6675 78.8577L103.27 71.4624C104.909 68.3938 109.598 68.3938 111.218 71.4624ZM108.511 73.0825C107.978 72.1867 106.701 72.1867 106.167 73.0825L102.203 80.84C102.031 81.3736 101.478 81.7358 100.945 81.7358L92.4819 83.1843C91.5861 83.1843 91.224 84.0802 91.9482 84.8044L98.2571 90.9227C98.2571 91.0942 98.7908 91.647 98.6192 92.3713L97.3613 101.024C97.1897 102.111 98.0856 102.282 98.6192 101.92L106.548 97.9558C107.082 97.5937 107.635 97.5937 107.997 97.9558L115.926 101.92C116.65 102.282 117.546 102.092 117.374 101.024L115.926 92.3713C115.926 91.647 116.459 91.1133 116.459 90.9227L122.768 84.8044C123.493 84.0802 123.13 83.1843 122.235 83.1843L113.581 81.7358C113.048 81.7358 112.686 81.3736 112.495 80.84L108.511 73.0825ZM53.5423 53.4317C73.1932 53.4317 75.7091 72.8919 60.747 72.8919H46.3376C31.3755 72.8919 33.9105 53.4317 53.5423 53.4317ZM53.5423 31.7986C59.1269 31.7986 63.8157 36.2967 63.8157 41.9004C63.8157 47.6756 59.1269 52.1737 53.5423 52.1737C47.9577 52.1737 43.269 47.6756 43.269 41.9004C43.269 36.3158 47.9577 31.7986 53.5423 31.7986ZM53.5423 34.8672C49.5778 34.8672 46.5092 38.1074 46.5092 41.9004C46.5092 45.8649 49.5778 48.9335 53.5423 48.9335C57.3353 48.9335 60.5755 45.8649 60.5755 41.9004C60.5755 38.1074 57.5068 34.8672 53.5423 34.8672Z" fill="#007BBD" fill-opacity="0.16"/>
<path d="M53.5423 56.5003C38.7708 56.5003 35.34 69.6517 46.3376 69.6517H60.747C71.7446 69.6517 68.3329 56.5003 53.5423 56.5003ZM107.253 50.7252C128.334 50.7252 145.469 67.841 145.469 88.9405C145.469 99.5759 140.971 109.316 133.937 116.33L142.4 133.636C143.124 135.618 141.314 136.152 140.589 135.981L129.42 132.378L125.284 143.376C124.751 144.824 122.768 144.824 122.406 143.376L114.115 126.431C109.617 127.327 105.1 127.327 100.601 126.431L92.3104 143.376C91.7767 144.824 89.7945 144.824 89.4323 143.376L85.2963 132.378L74.1271 135.981C73.2313 136.152 71.4206 135.618 72.1449 133.636L80.7981 116.33C73.2313 108.934 69.0762 99.0232 69.2668 88.5783C64.4065 90.7321 59.165 92.0091 53.5804 92.0091C32.5001 92.0091 15.5557 74.8932 15.5557 53.7938C15.5176 32.885 32.462 15.7691 53.5423 15.7691C74.8133 15.7691 91.7576 33.0756 91.567 54.156C96.4464 52.0022 101.669 50.7252 107.253 50.7252ZM131.402 118.503C127.266 121.933 122.578 124.449 117.165 125.707L123.645 138.859L126.885 129.843C127.247 129.119 127.972 128.585 128.867 128.947L137.883 131.825L131.402 118.503ZM97.3422 125.707C92.1198 124.259 87.2404 121.743 83.1044 118.503L76.624 131.845L85.8109 128.966C86.5352 128.604 87.431 129.138 87.7932 129.862L91.0334 138.878L97.3422 125.707ZM69.4002 84.976C69.7624 81.9073 70.2961 79.0293 71.3825 76.3227C66.5222 80.1157 60.2133 82.441 53.5423 82.441C37.6844 82.441 24.8951 69.6517 24.8951 53.7938C24.8951 37.9359 37.6844 25.1466 53.5423 25.1466C69.4002 25.1466 82.1895 37.9359 82.1895 53.7938C82.1895 56.3097 81.8274 58.8447 81.2937 60.9985C83.4475 59.0163 85.7919 57.2056 88.3268 55.7761C89.6039 35.7821 73.5553 19.0093 53.5423 19.0093C34.2727 19.0093 18.5863 34.5051 18.5863 53.7938C18.5863 73.0825 34.2727 88.7499 53.5423 88.7499C59.3175 88.7689 64.5399 87.3204 69.4002 84.976ZM107.253 53.9844C87.9647 53.9844 72.2974 69.6708 72.2974 88.9405C72.2974 108.229 87.9838 123.897 107.253 123.897C126.542 123.897 142.209 108.21 142.209 88.9405C142.229 69.6517 126.542 53.9844 107.253 53.9844ZM107.253 60.2933C123.111 60.2933 135.901 73.0825 135.901 88.9405C135.901 104.798 123.111 117.588 107.253 117.588C91.567 117.588 78.6062 104.798 78.6062 88.9405C78.6062 73.0825 91.3955 60.2933 107.253 60.2933ZM107.253 63.5335C93.1871 63.5335 81.8464 74.8932 81.8464 88.9405C81.8464 102.988 93.2062 114.347 107.253 114.347C121.32 114.347 132.851 102.988 132.851 88.9405C132.851 74.8932 121.32 63.5335 107.253 63.5335ZM53.5423 28.3868C39.476 28.3868 28.1353 39.7466 28.1353 53.7938C28.1353 67.841 39.4951 79.3914 53.5423 79.3914C67.5896 79.3914 78.9684 67.8601 78.9684 53.7938C78.9684 39.7275 67.6086 28.3868 53.5423 28.3868ZM111.218 71.4624L114.82 78.8577L122.749 79.9441C126.18 80.4778 127.438 84.4423 124.903 86.9773L119.128 92.7525L120.386 100.51C120.919 103.941 117.679 106.457 114.439 104.837L107.234 101.044L100.03 104.837C96.961 106.457 93.5493 103.941 94.083 100.51L95.3409 92.7525L89.5657 86.9773C87.0498 84.4613 88.4793 80.4969 91.9101 79.9441L99.6675 78.8577L103.27 71.4624C104.909 68.3938 109.598 68.3938 111.218 71.4624ZM108.511 73.0825C107.978 72.1867 106.701 72.1867 106.167 73.0825L102.203 80.84C102.031 81.3736 101.478 81.7358 100.945 81.7358L92.4819 83.1843C91.5861 83.1843 91.224 84.0802 91.9482 84.8044L98.2571 90.9227C98.2571 91.0942 98.7908 91.647 98.6192 92.3713L97.3613 101.024C97.1897 102.111 98.0856 102.282 98.6192 101.92L106.548 97.9558C107.082 97.5937 107.635 97.5937 107.997 97.9558L115.926 101.92C116.65 102.282 117.546 102.092 117.374 101.024L115.926 92.3713C115.926 91.647 116.459 91.1133 116.459 90.9227L122.768 84.8044C123.493 84.0802 123.13 83.1843 122.235 83.1843L113.581 81.7358C113.048 81.7358 112.686 81.3736 112.495 80.84L108.511 73.0825ZM53.5423 53.4317C73.1932 53.4317 75.7091 72.8919 60.747 72.8919H46.3376C31.3755 72.8919 33.9105 53.4317 53.5423 53.4317ZM53.5423 31.7986C59.1269 31.7986 63.8157 36.2967 63.8157 41.9004C63.8157 47.6756 59.1269 52.1737 53.5423 52.1737C47.9577 52.1737 43.269 47.6756 43.269 41.9004C43.269 36.3158 47.9577 31.7986 53.5423 31.7986ZM53.5423 34.8672C49.5778 34.8672 46.5092 38.1074 46.5092 41.9004C46.5092 45.8649 49.5778 48.9335 53.5423 48.9335C57.3353 48.9335 60.5755 45.8649 60.5755 41.9004C60.5755 38.1074 57.5068 34.8672 53.5423 34.8672Z" stroke="#007BBD" stroke-opacity="0.16" stroke-width="0.4" mask="url(#path-1-outside-1_154_791)"/>
</g>
</g>
<defs>
<filter id="filter0_f_154_791" x="-2" y="-2" width="164" height="164" filterUnits="userSpaceOnUse" color-interpolation-filters="sRGB">
<feFlood flood-opacity="0" result="BackgroundImageFix"/>
<feBlend mode="normal" in="SourceGraphic" in2="BackgroundImageFix" result="shape"/>
<feGaussianBlur stdDeviation="1" result="effect1_foregroundBlur_154_791"/>
</filter>
</defs>
</svg>
