<svg width="160" height="160" viewBox="0 0 160 160" fill="none" xmlns="http://www.w3.org/2000/svg">
<g id="fa6-solid:coins" filter="url(#filter0_f_151_620)">
<path id="Vector" d="M109.165 78.0115L109.173 77.9892C109.417 77.3261 109.536 76.6584 109.536 75.9722C109.536 72.9105 107.016 69.3744 100.994 66.0964L109.165 78.0115ZM109.165 78.0115L109.157 78.0339M109.165 78.0115L109.157 78.0339M109.157 78.0339C108.318 80.4425 105.887 83.0456 101.658 85.4614M109.157 78.0339L101.658 85.4614M101.658 85.4614C101.585 85.4955 101.497 85.5408 101.4 85.5997C101.38 85.6102 101.356 85.6224 101.332 85.6355C101.294 85.6565 101.248 85.6823 101.196 85.7131C92.9069 90.288 79.3794 93.4007 63.888 93.4007C49.1635 93.4007 36.1927 90.6 27.7897 86.3628L27.7602 86.3479L27.7302 86.3337C27.3432 86.1504 26.9649 85.9412 26.5002 85.6831L26.4977 85.6817C20.6896 82.4631 18.2399 78.9802 18.2399 75.9722C18.2399 73.0673 20.515 69.7093 25.9696 66.549C31.2914 63.4656 38.9892 60.9894 48.1609 59.6489C50.7432 59.2801 53.4216 58.9853 56.1967 58.7888C58.7078 58.6166 61.288 58.5185 63.888 58.5185C79.2645 58.5185 92.6763 61.5702 100.994 66.0962L101.658 85.4614ZM141.758 56.1451V59.8611C141.758 63.0972 138.892 66.8982 132.206 70.2781L132.204 70.2794C129.542 71.6282 126.39 72.842 122.849 73.8639C122.456 70.2382 121.077 67.0585 119.227 64.3622C124.757 63.2462 129.886 61.7253 134.419 59.8502L134.426 59.8471C136.972 58.7849 139.452 57.5591 141.758 56.1451ZM134.425 84.0142L134.426 84.0138C136.972 82.9516 139.452 81.7258 141.758 80.3118V84.0278C141.758 85.7587 140.944 87.7573 138.794 89.9077C135.668 93.0333 130.218 95.8776 122.962 97.9755V87.6964C127.07 86.6959 130.916 85.4764 134.425 84.0142ZM141.758 35.6944C141.758 38.7011 139.311 42.1838 133.474 45.4298C126.732 49.1593 116.495 51.931 104.508 52.8273C103.755 52.4721 102.973 52.1251 102.146 51.8059C91.8279 47.4924 78.2824 45.0926 63.888 45.0926C62.018 45.0926 60.1863 45.1321 58.359 45.2112C52.8009 42.0279 50.4621 38.6337 50.4621 35.6944C50.4621 33.8483 51.3487 31.8469 53.4608 29.7668C55.5823 27.6773 58.7898 25.6723 62.9696 23.9312C71.3174 20.454 83.0341 18.2407 96.1103 18.2407C109.186 18.2407 120.903 20.454 129.251 23.9312C133.431 25.6723 136.638 27.6773 138.76 29.7668C140.872 31.8469 141.758 33.8483 141.758 35.6944ZM109.536 100.139C109.536 103.146 107.089 106.629 101.251 109.875C100.978 110.026 100.729 110.156 100.438 110.306C100.286 110.385 100.123 110.469 99.9394 110.566C91.563 114.796 78.6024 117.593 63.888 117.593C48.3622 117.593 34.8089 114.466 26.5244 109.874C20.6872 106.628 18.2399 103.146 18.2399 100.139V96.4163C20.5436 97.8309 23.0172 99.059 25.5709 100.124C35.9171 104.446 49.4762 106.852 63.888 106.852C78.2965 106.852 91.8528 104.447 102.198 100.127C104.269 99.2773 106.252 98.2983 108.122 97.245C108.604 96.9764 109.075 96.6994 109.536 96.4155V100.139ZM63.888 131.019C78.2998 131.019 91.8589 128.613 102.205 124.291C104.751 123.229 107.23 122.003 109.536 120.59V124.306C109.536 126.152 108.65 128.153 106.538 130.233C104.416 132.323 101.208 134.328 97.0287 136.069C88.6809 139.546 76.9642 141.759 63.888 141.759C50.8119 141.759 39.0951 139.546 30.7474 136.069C26.5676 134.328 23.3601 132.323 21.2385 130.233C19.1265 128.153 18.2399 126.152 18.2399 124.306V120.583C20.5436 121.998 23.0172 123.226 25.5709 124.291C35.9171 128.613 49.4762 131.019 63.888 131.019Z" stroke="#007BBD" stroke-opacity="0.16" stroke-width="5.37037"/>
</g>
<defs>
<filter id="filter0_f_151_620" x="-1.23077" y="-1.23077" width="162.462" height="162.462" filterUnits="userSpaceOnUse" color-interpolation-filters="sRGB">
<feFlood flood-opacity="0" result="BackgroundImageFix"/>
<feBlend mode="normal" in="SourceGraphic" in2="BackgroundImageFix" result="shape"/>
<feGaussianBlur stdDeviation="0.615385" result="effect1_foregroundBlur_151_620"/>
</filter>
</defs>
</svg>
