<svg width="160" height="160" viewBox="0 0 160 160" fill="none" xmlns="http://www.w3.org/2000/svg">
<g id="noun-safety-2952065 1" filter="url(#filter0_f_151_622)">
<g id="Group 514657355">
<path id="Subtract" fill-rule="evenodd" clip-rule="evenodd" d="M139.445 80C139.445 112.83 112.83 139.444 80.0001 139.444C47.1699 139.444 20.5557 112.83 20.5557 80C20.5557 47.1697 47.1699 20.5555 80.0001 20.5555C97.7643 20.5555 113.709 28.3477 124.601 40.7004C125.852 39.449 127.055 38.2841 128.2 37.2224C116.395 23.9306 99.1757 15.5555 80.0001 15.5555C44.4084 15.5555 15.5557 44.4083 15.5557 80C15.5557 115.592 44.4084 144.444 80.0001 144.444C115.592 144.444 144.445 115.592 144.445 80C144.445 65.64 139.748 52.377 131.807 41.6634C130.756 42.9958 129.68 44.356 128.584 45.739C135.425 55.4225 139.445 67.2419 139.445 80Z" fill="#007BBD" fill-opacity="0.16"/>
<path id="Vector" d="M48.1635 77.1751C48.1631 77.1751 48.1672 77.1679 48.1769 77.1532C48.1688 77.1677 48.1639 77.175 48.1635 77.1751ZM67.501 108.88C68.1502 110.408 68.8272 112.002 69.5363 113.663C70.1672 115.155 71.6414 117.207 74.3187 117.387C76.9783 117.566 78.7183 115.75 79.5513 114.381C80.7041 112.487 83.6881 108.459 88.0227 102.87C92.2977 97.3584 97.7351 90.52 103.66 83.1143C106.6 79.4406 109.659 75.6273 112.753 71.7705C122.115 60.1022 131.796 48.0354 139.442 38.2268L139.445 38.2226C140.614 36.7183 141.554 35.2874 142.131 34.004C142.414 33.3744 142.699 32.5855 142.794 31.7224C142.883 30.901 142.854 29.4239 141.769 28.1263C140.625 26.759 139.082 26.4973 138.128 26.5079C137.195 26.5182 136.347 26.7711 135.706 27.0169C134.392 27.521 132.921 28.403 131.375 29.509C127.34 32.3963 122.106 37.5047 116.567 43.4434C110.969 49.4451 104.865 56.5089 99.0546 63.4784C89.8094 74.5681 81.2325 85.5109 76.5229 91.7091C71.1055 80.7606 65.1112 73.9835 59.357 70.6299C52.8675 66.8478 45.8165 67.2141 41.9353 72.5162L41.934 72.518C41.5034 73.107 41.0089 73.922 40.7777 74.9108C40.5263 75.9857 40.5525 77.5325 41.6326 78.8827C42.6069 80.1005 43.9158 80.4845 44.7081 80.6131C45.542 80.7485 46.3578 80.6976 47.043 80.5984C49.2167 80.295 50.7759 80.6372 52.1381 81.4312C53.6115 82.29 55.1726 83.8648 56.9377 86.5787C60.083 91.4147 63.1753 98.6953 67.501 108.88ZM138.6 34.2381C138.6 34.2384 138.594 34.2402 138.583 34.243C138.594 34.2393 138.6 34.2379 138.6 34.2381ZM135.106 30.6522C135.106 30.6522 135.106 30.6533 135.105 30.6554C135.106 30.6533 135.106 30.6523 135.106 30.6522Z" fill="#007BBD" fill-opacity="0.16" stroke="white" stroke-width="7.77425"/>
</g>
</g>
<defs>
<filter id="filter0_f_151_622" x="-2" y="-2" width="164" height="164" filterUnits="userSpaceOnUse" color-interpolation-filters="sRGB">
<feFlood flood-opacity="0" result="BackgroundImageFix"/>
<feBlend mode="normal" in="SourceGraphic" in2="BackgroundImageFix" result="shape"/>
<feGaussianBlur stdDeviation="1" result="effect1_foregroundBlur_151_622"/>
</filter>
</defs>
</svg>
