<svg width="160" height="160" viewBox="0 0 160 160" fill="none" xmlns="http://www.w3.org/2000/svg">
<g id="noun-first-class-operations-1827513 1">
<g id="Vector">
<path d="M108.714 38.5564C100.956 30.797 90.641 26.5251 79.6699 26.5251C68.698 26.5251 58.3832 30.797 50.6254 38.5564C34.6105 54.5705 34.6105 80.6298 50.6254 96.6439C58.6332 104.652 69.1512 108.655 79.6699 108.655C90.1879 108.655 100.707 104.652 108.714 96.6439C116.472 88.8861 120.745 78.572 120.745 67.6001C120.745 56.6283 116.472 46.3142 108.714 38.5564ZM106.451 94.3814C91.684 109.147 67.6551 109.147 52.8879 94.3814C38.1207 79.6142 38.1207 55.5861 52.8879 40.8189C60.0418 33.6642 69.5535 29.7251 79.6699 29.7251C89.7863 29.7251 99.2973 33.6642 106.451 40.8189C113.605 47.972 117.545 57.483 117.545 67.6001C117.545 77.7173 113.605 87.2283 106.451 94.3814Z" fill="#007BBD" fill-opacity="0.16"/>
<path d="M50.3268 38.2578C34.1471 54.4368 34.1471 80.7635 50.3268 96.9425C58.4173 105.033 69.0442 109.077 79.6699 109.077C90.2949 109.077 100.923 105.033 109.012 96.9424C116.85 89.1055 121.167 78.684 121.167 67.6001C121.167 56.5163 116.85 46.0948 109.012 38.2579C101.175 30.4193 90.753 26.1029 79.6699 26.1029C68.5861 26.1029 58.1639 30.4192 50.3268 38.2578ZM50.3268 38.2578L50.6254 38.5564M50.3268 38.2578L50.6254 38.5564M50.6254 38.5564C34.6105 54.5705 34.6105 80.6298 50.6254 96.6439C58.6332 104.652 69.1512 108.655 79.6699 108.655C90.1879 108.655 100.707 104.652 108.714 96.6439L50.6254 38.5564ZM53.1864 41.1175L53.1865 41.1174C60.2612 34.042 69.6655 30.1474 79.6699 30.1474C89.6744 30.1474 99.0779 34.042 106.153 41.1174L106.451 40.8189L106.153 41.1175C113.227 48.1914 117.123 57.5949 117.123 67.6001C117.123 77.6053 113.227 87.0089 106.153 94.0828C91.5503 108.684 67.7887 108.684 53.1864 94.0828C38.5841 79.4805 38.5841 55.7198 53.1864 41.1175Z" stroke="#007BBD" stroke-opacity="0.16" stroke-width="0.844444"/>
</g>
<g id="Vector_2">
<path d="M122.979 95.5307C135.852 75.5764 133.57 48.6133 116.114 31.1561C106.379 21.4217 93.4363 16.0608 79.6699 16.0608C65.9035 16.0608 52.9606 21.4217 43.2262 31.1561C25.6283 48.754 23.4426 76.0151 36.6663 96.0151L22.0309 120.462C21.7395 120.95 21.7277 121.555 21.9996 122.053C22.2723 122.55 22.7879 122.867 23.3551 122.884L45.6897 123.556C46.2329 123.573 46.726 123.878 46.9831 124.356L56.9887 142.989C57.2606 143.497 57.7848 143.819 58.3606 143.833C58.3731 143.833 58.3856 143.833 58.3981 143.833C58.9598 143.833 59.4817 143.537 59.7707 143.055L74.2573 118.853C76.044 119.039 77.849 119.139 79.6699 119.139C81.6799 119.139 83.6692 119.011 85.6367 118.785L100.229 143.161C100.518 143.644 101.039 143.939 101.601 143.939C101.614 143.939 101.626 143.939 101.639 143.939C102.214 143.925 102.739 143.603 103.011 143.095L113.016 124.464C113.273 123.985 113.766 123.68 114.309 123.664L136.643 122.99C137.211 122.973 137.726 122.656 137.999 122.158C138.271 121.661 138.259 121.056 137.968 120.569L122.979 95.5307ZM59.8498 136.692C59.2436 137.705 57.7648 137.67 57.2064 136.63L48.9496 121.255C48.6793 120.75 48.1606 120.428 47.5887 120.411L28.7657 119.845C27.6058 119.81 26.9112 118.541 27.5072 117.545L38.6991 98.8491C40.0775 100.654 41.5773 102.395 43.2262 104.044C50.8396 111.657 60.4195 116.58 70.8171 118.371L59.8498 136.692ZM45.4887 101.781C26.641 82.9327 26.641 52.267 45.4887 33.4186C54.6192 24.2889 66.7582 19.2608 79.6699 19.2608C92.5816 19.2608 104.721 24.2889 113.851 33.4186C132.698 52.2655 132.698 82.9342 113.851 101.781C104.721 110.911 92.5816 115.939 79.6699 115.939C66.7582 115.939 54.6192 110.911 45.4887 101.781ZM112.411 120.519C111.839 120.537 111.32 120.858 111.05 121.362L102.793 136.738C102.234 137.778 100.756 137.812 100.149 136.8L89.0617 118.277C99.2514 116.411 108.632 111.525 116.114 104.044C117.895 102.262 119.511 100.377 120.977 98.4149L132.492 117.651C133.088 118.647 132.394 119.916 131.234 119.951L112.411 120.519Z" fill="#007BBD" fill-opacity="0.16"/>
<path d="M21.6685 120.246L21.6686 120.245L36.1679 96.0256C22.9985 75.8825 25.25 48.5352 42.9276 30.8575C52.7412 21.044 65.7915 15.6386 79.6699 15.6386C93.5483 15.6386 106.599 21.044 116.412 30.8575L116.114 31.1561L116.412 30.8576C133.948 48.3942 136.296 75.4432 123.476 95.5384L138.33 120.352L138.33 120.352C138.698 120.968 138.713 121.732 138.369 122.36C138.025 122.99 137.374 123.391 136.656 123.412L114.322 124.086C113.93 124.098 113.574 124.318 113.388 124.664L103.383 143.294C103.039 143.937 102.376 144.343 101.649 144.361L101.639 144.361L101.639 144.361H101.638H101.638H101.638H101.638H101.638H101.638H101.638H101.637H101.637H101.637H101.637H101.637H101.637H101.636H101.636H101.636H101.636H101.636H101.636H101.636H101.635H101.635H101.635H101.635H101.635H101.635H101.635H101.634H101.634H101.634H101.634H101.634H101.634H101.634H101.633H101.633H101.633H101.633H101.633H101.633H101.633H101.632H101.632H101.632H101.632H101.632H101.632H101.632H101.631H101.631H101.631H101.631H101.631H101.631H101.63H101.63H101.63H101.63H101.63H101.63H101.63H101.629H101.629H101.629H101.629H101.629H101.629H101.629H101.628H101.628H101.628H101.628H101.628H101.628H101.628H101.627H101.627H101.627H101.627H101.627H101.627H101.627H101.626H101.626H101.626H101.626H101.626H101.626H101.625H101.625H101.625H101.625H101.625H101.625H101.625H101.624H101.624H101.624H101.624H101.624H101.624H101.624H101.623H101.623H101.623H101.623H101.623H101.623H101.623H101.622H101.622H101.622H101.622H101.622H101.622H101.622H101.621H101.621H101.621H101.621H101.621H101.621H101.621H101.62H101.62H101.62H101.62H101.62H101.62H101.619H101.619H101.619H101.619H101.619H101.619H101.619H101.618H101.618H101.618H101.618H101.618H101.618H101.618H101.617H101.617H101.617H101.617H101.617H101.617H101.617H101.616H101.616H101.616H101.616H101.616H101.616H101.616H101.615H101.615H101.615H101.615H101.615H101.615H101.615H101.614H101.614H101.614H101.614H101.614H101.614H101.613H101.613H101.613H101.613H101.613H101.613H101.613H101.612H101.612H101.612H101.612H101.612H101.612H101.612H101.611H101.611H101.611H101.611H101.611H101.611H101.611H101.61H101.61H101.61H101.61H101.61H101.61H101.61H101.609H101.609H101.609H101.609H101.609H101.609H101.609H101.608H101.608H101.608H101.608H101.608H101.608H101.607H101.607H101.607H101.607H101.607H101.607H101.607H101.606H101.606H101.606H101.606H101.606H101.606H101.606H101.605H101.605H101.605H101.605H101.605H101.605H101.605H101.604H101.604H101.604H101.604H101.604H101.604H101.604H101.603H101.603H101.603H101.603H101.603H101.603H101.603H101.602H101.602H101.602H101.602H101.602H101.602H101.601H101.601H101.601C100.891 144.361 100.232 143.988 99.8663 143.378L100.229 143.161L99.8662 143.378L85.414 119.235C83.5206 119.444 81.6054 119.561 79.6699 119.561C77.9247 119.561 76.1945 119.47 74.4818 119.301L60.133 143.271L59.7707 143.055L60.133 143.271C59.7676 143.882 59.1081 144.255 58.3981 144.255H58.3979H58.3978H58.3976H58.3975H58.3973H58.3972H58.397H58.3969H58.3967H58.3966H58.3965H58.3963H58.3962H58.396H58.3959H58.3957H58.3956H58.3954H58.3953H58.3951H58.395H58.3948H58.3947H58.3945H58.3944H58.3943H58.3941H58.394H58.3938H58.3937H58.3935H58.3934H58.3932H58.3931H58.3929H58.3928H58.3926H58.3925H58.3923H58.3922H58.3921H58.3919H58.3918H58.3916H58.3915H58.3913H58.3912H58.391H58.3909H58.3907H58.3906H58.3904H58.3903H58.3901H58.39H58.3899H58.3897H58.3896H58.3894H58.3893H58.3891H58.389H58.3888H58.3887H58.3885H58.3884H58.3882H58.3881H58.388H58.3878H58.3877H58.3875H58.3874H58.3872H58.3871H58.3869H58.3868H58.3866H58.3865H58.3863H58.3862H58.386H58.3859H58.3858H58.3856H58.3855H58.3853H58.3852H58.385H58.3849H58.3847H58.3846H58.3844H58.3843H58.3841H58.384H58.3839H58.3837H58.3836H58.3834H58.3833H58.3831H58.383H58.3828H58.3827H58.3825H58.3824H58.3822H58.3821H58.3819H58.3818H58.3817H58.3815H58.3814H58.3812H58.3811H58.3809H58.3808H58.3806H58.3805H58.3803H58.3802H58.38H58.3799H58.3797H58.3796H58.3795H58.3793H58.3792H58.379H58.3789H58.3787H58.3786H58.3784H58.3783H58.3781H58.378H58.3778H58.3777H58.3776H58.3774H58.3773H58.3771H58.377H58.3768H58.3767H58.3765H58.3764H58.3762H58.3761H58.3759H58.3758H58.3756H58.3755H58.3754H58.3752H58.3751H58.3749H58.3748H58.3746H58.3745H58.3743H58.3742H58.374H58.3739H58.3737H58.3736H58.3735H58.3733H58.3732H58.373H58.3729H58.3727H58.3726H58.3724H58.3723H58.3721H58.372H58.3718H58.3717H58.3715H58.3714H58.3713H58.3711H58.371H58.3708H58.3707H58.3705H58.3704H58.3702H58.3701H58.3699H58.3698H58.3696H58.3695H58.3694H58.3692H58.3691H58.3689H58.3688H58.3686H58.3685H58.3683H58.3682H58.368H58.3679H58.3677H58.3676H58.3674H58.3673H58.3672H58.367H58.3669H58.3667H58.3666H58.3664H58.3663H58.3661H58.366H58.3658H58.3657H58.3655H58.3654H58.3652H58.3651H58.365H58.3648H58.3647H58.3645H58.3644H58.3642H58.3641H58.3639H58.3638H58.3636H58.3635H58.3633H58.3632H58.3631H58.3629H58.3628H58.3626H58.3625H58.3623H58.3622H58.362H58.3619H58.3617H58.3616H58.3614H58.3613H58.3611H58.361H58.3609H58.3607H58.3606H58.3503L58.3503 144.255C57.6231 144.237 56.9606 143.831 56.6167 143.189L21.6685 120.246ZM21.6685 120.246C21.3003 120.862 21.2855 121.626 21.629 122.255L21.6295 122.256C21.9738 122.884 22.6251 123.285 23.3423 123.306L45.677 123.978C46.0693 123.99 46.4254 124.21 46.6111 124.556L56.6165 143.188L21.6685 120.246ZM57.5784 136.431C57.9817 137.182 59.0497 137.206 59.4875 136.475L70.1405 118.679C59.8906 116.789 50.4549 111.869 42.9276 104.342C41.4146 102.829 40.0269 101.24 38.7434 99.5971L27.8695 117.762C27.439 118.481 27.9407 119.398 28.7784 119.423L47.6014 119.989C48.3245 120.01 48.98 120.417 49.3216 121.055L57.5784 136.431ZM57.5784 136.431L49.3218 121.055L57.5784 136.431ZM45.7872 33.7172C27.1045 52.4007 27.1045 82.799 45.7872 101.483C54.8385 110.533 66.8702 115.517 79.6699 115.517C92.4697 115.517 104.501 110.533 113.553 101.483C132.235 82.8006 132.235 52.3991 113.553 33.7172C104.501 24.6667 92.4697 19.683 79.6699 19.683C66.8702 19.683 54.8385 24.6666 45.7872 33.7172C45.7872 33.7172 45.7872 33.7172 45.7872 33.7172ZM45.7872 33.7172L45.4887 33.4186L45.7872 33.7172ZM112.398 120.097L112.397 120.097C111.675 120.12 111.019 120.525 110.677 121.163L102.421 136.538C102.018 137.289 100.95 137.314 100.512 136.583L89.7348 118.58C99.778 116.619 109.016 111.738 116.412 104.342L116.114 104.044L116.412 104.342C118.057 102.698 119.56 100.967 120.936 99.1689L132.13 117.868C132.56 118.587 132.059 119.504 131.221 119.529L112.398 120.097Z" stroke="#007BBD" stroke-opacity="0.16" stroke-width="0.844444"/>
</g>
<g id="Vector_3">
<path d="M79.6709 54.7952C72.6107 54.7952 66.8662 60.5389 66.8662 67.5999C66.8662 74.6608 72.6107 80.4045 79.6709 80.4045C86.7311 80.4045 92.4756 74.6608 92.4756 67.5999C92.4756 60.5389 86.7311 54.7952 79.6709 54.7952ZM79.6709 77.2045C74.3748 77.2045 70.0662 72.8952 70.0662 67.5999C70.0662 62.3045 74.3748 57.9952 79.6709 57.9952C84.967 57.9952 89.2756 62.3045 89.2756 67.5999C89.2756 72.8952 84.967 77.2045 79.6709 77.2045Z" fill="#007BBD" fill-opacity="0.16"/>
<path d="M79.6709 54.3729C72.3776 54.3729 66.444 60.3057 66.444 67.5999C66.444 74.894 72.3776 80.8268 79.6709 80.8268C86.9642 80.8268 92.8978 74.894 92.8978 67.5999C92.8978 60.3057 86.9642 54.3729 79.6709 54.3729ZM79.6709 76.7823C74.608 76.7823 70.4884 72.662 70.4884 67.5999C70.4884 62.5377 74.608 58.4174 79.6709 58.4174C84.7338 58.4174 88.8534 62.5377 88.8534 67.5999C88.8534 72.662 84.7338 76.7823 79.6709 76.7823Z" stroke="#007BBD" stroke-opacity="0.16" stroke-width="0.844444"/>
</g>
<g id="Vector_4">
<path d="M105.17 71.4734C103.185 71.2641 101.689 69.5984 101.689 67.6C101.689 65.6016 103.185 63.9359 105.17 63.7266C105.621 63.6797 106.031 63.4422 106.298 63.075C106.564 62.7078 106.662 62.2437 106.567 61.8C105.87 58.5531 104.598 55.4859 102.786 52.6844C102.539 52.3031 102.143 52.0453 101.695 51.9734C101.25 51.9 100.79 52.0219 100.437 52.3094C98.8853 53.5641 96.6517 53.4437 95.24 52.0297C93.8275 50.6172 93.708 48.3828 94.9611 46.8328C95.2462 46.4797 95.3681 46.0219 95.2962 45.5734C95.2244 45.125 94.9658 44.7297 94.5853 44.4828C91.7798 42.6703 88.7126 41.3984 85.4681 40.7031C85.0228 40.6015 84.5603 40.7047 84.1939 40.9719C83.8259 41.2391 83.5892 41.6484 83.5415 42.1C83.3329 44.0844 81.6681 45.5797 79.6697 45.5797C77.6704 45.5797 76.0056 44.0844 75.797 42.1C75.7494 41.6484 75.5126 41.2391 75.1447 40.9719C74.779 40.7062 74.3165 40.6109 73.8704 40.7031C70.6267 41.3984 67.5595 42.6703 64.754 44.4828C64.3728 44.7297 64.1142 45.125 64.0423 45.5734C63.9704 46.0219 64.0923 46.4797 64.3775 46.8328C65.6314 48.3828 65.5111 50.6172 64.0994 52.0297C62.6876 53.4422 60.4509 53.5609 58.9017 52.3078C58.5486 52.0234 58.0931 51.9 57.6431 51.9734C57.1954 52.0453 56.7986 52.3031 56.5525 52.6844C54.74 55.4875 53.4681 58.5547 52.772 61.8C52.6767 62.2437 52.7744 62.7078 53.0408 63.075C53.3072 63.4422 53.7173 63.6797 54.1689 63.7266C56.1533 63.9359 57.6494 65.6016 57.6494 67.6C57.6494 69.5984 56.1533 71.2641 54.1689 71.4734C53.7173 71.5203 53.3072 71.7578 53.0408 72.125C52.7744 72.4922 52.6767 72.9562 52.772 73.4C53.4681 76.6453 54.74 79.7125 56.5525 82.5156C56.7986 82.8969 57.1954 83.1547 57.6431 83.2266C58.0931 83.3016 58.5486 83.1781 58.9017 82.8922C60.454 81.6406 62.6892 81.7578 64.0994 83.1703C65.5111 84.5828 65.6314 86.8172 64.3775 88.3672C64.0923 88.7203 63.9704 89.1781 64.0423 89.6266C64.1142 90.075 64.3728 90.4703 64.754 90.7172C67.5595 92.5297 70.6267 93.8016 73.8704 94.4969C73.9814 94.5219 74.0939 94.5328 74.2056 94.5328C74.54 94.5328 74.8697 94.4281 75.1447 94.2281C75.5126 93.9609 75.7494 93.5516 75.797 93.1C76.0056 91.1156 77.6704 89.6203 79.6697 89.6203C81.6681 89.6203 83.3329 91.1156 83.5415 93.1C83.5892 93.5516 83.8259 93.9609 84.1939 94.2281C84.5619 94.4953 85.0259 94.5969 85.4681 94.4969C88.7126 93.8016 91.7798 92.5297 94.5853 90.7172C94.9658 90.4703 95.2244 90.075 95.2962 89.6266C95.3681 89.1781 95.2462 88.7203 94.9611 88.3672C93.708 86.8172 93.8275 84.5828 95.24 83.1703C96.6501 81.7562 98.8853 81.6359 100.437 82.8906C100.79 83.1781 101.25 83.3016 101.695 83.2266C102.143 83.1547 102.539 82.8969 102.786 82.5156C104.598 79.7141 105.87 76.6469 106.567 73.4C106.662 72.9562 106.564 72.4922 106.298 72.125C106.031 71.7578 105.621 71.5203 105.17 71.4734ZM100.9 79.4484C98.2712 78.2578 95.1095 78.7781 92.9775 80.9078C90.8455 83.0391 90.3314 86.2016 91.5181 88.8312C89.8642 89.7578 88.1204 90.4812 86.3056 90.9937C85.2869 88.2937 82.6869 86.4203 79.6697 86.4203C76.6517 86.4203 74.0517 88.2937 73.0329 90.9937C71.2189 90.4812 69.4744 89.7578 67.8212 88.8312C69.0079 86.2016 68.4939 83.0406 66.3619 80.9078C64.2298 78.7781 61.0697 78.2625 58.4384 79.4484C57.5126 77.7953 56.7884 76.0516 56.2751 74.2359C58.9759 73.2172 60.8494 70.6172 60.8494 67.6C60.8494 64.5828 58.9759 61.9828 56.2751 60.9641C56.7884 59.1484 57.5126 57.4047 58.4384 55.7516C61.0697 56.9375 64.2298 56.4219 66.3619 54.2922C68.4939 52.1594 69.0079 48.9984 67.8212 46.3687C69.4744 45.4422 71.2189 44.7187 73.0329 44.2062C74.0517 46.9062 76.6517 48.7797 79.6697 48.7797C82.6869 48.7797 85.2869 46.9062 86.3056 44.2062C88.1204 44.7187 89.8642 45.4422 91.5181 46.3687C90.3314 48.9984 90.8455 52.1609 92.9775 54.2922C95.1095 56.4219 98.2712 56.9375 100.9 55.7516C101.826 57.4031 102.55 59.1484 103.063 60.9641C100.363 61.9828 98.4892 64.5828 98.4892 67.6C98.4892 70.6172 100.363 73.2172 103.063 74.2359C102.55 76.0516 101.826 77.7969 100.9 79.4484Z" fill="#007BBD" fill-opacity="0.16"/>
<path d="M103.14 52.4549L103.141 52.4551C104.98 55.2994 106.272 58.4142 106.979 61.7113C107.1 62.272 106.976 62.8585 106.64 63.3229C106.303 63.7867 105.785 64.0871 105.214 64.1465C103.445 64.3333 102.111 65.8171 102.111 67.6C102.111 69.3829 103.445 70.8667 105.214 71.0535C105.785 71.1129 106.303 71.4132 106.64 71.877C106.976 72.3414 107.1 72.9279 106.979 73.4887C106.272 76.7858 104.98 79.9006 103.141 82.7449L103.14 82.7451C102.829 83.2264 102.329 83.552 101.763 83.6432C101.198 83.7381 100.616 83.5807 100.171 83.2184C98.7875 82.1004 96.7964 82.2075 95.539 83.4684L95.5385 83.4689C94.2783 84.7291 94.1725 86.7202 95.2894 88.1017L95.2896 88.1019C95.65 88.5482 95.804 89.1268 95.7131 89.6934C95.6223 90.2604 95.2952 90.7598 94.8151 91.0714L94.8144 91.0718C91.9669 92.9115 88.8529 94.203 85.5587 94.9093C84.9945 95.0361 84.4079 94.9053 83.9458 94.5698C83.4812 94.2324 83.1819 93.715 83.1217 93.1443L83.1216 93.1441C82.9357 91.3754 81.4528 90.0425 79.6697 90.0425C77.8857 90.0425 76.4028 91.3755 76.2169 93.1441L76.2169 93.1443C76.1567 93.715 75.8574 94.2324 75.3927 94.5698C75.0445 94.8229 74.6278 94.955 74.2056 94.955C74.0671 94.955 73.9239 94.9415 73.7798 94.9093C70.4865 94.203 67.3724 92.9115 64.5249 91.0718L64.5246 91.0716C64.0434 90.76 63.7163 90.2605 63.6254 89.6934C63.5346 89.1268 63.6886 88.5482 64.049 88.1019L64.0492 88.1016C65.1668 86.7202 65.0603 84.7291 63.8007 83.4688L63.8006 83.4686C62.5435 82.2095 60.552 82.1045 59.1673 83.2204C58.7221 83.5808 58.1455 83.738 57.5747 83.6432C57.0102 83.5521 56.5091 83.2268 56.1979 82.7449L103.14 52.4549ZM103.14 52.4549C102.829 51.9734 102.328 51.6477 101.762 51.5567C101.199 51.4638 100.617 51.6184 100.171 51.9815C98.7878 53.0995 96.798 52.9927 95.5388 51.7314L95.5385 51.7311M103.14 52.4549L95.5385 51.7311M95.5385 51.7311C94.2783 50.4709 94.1725 48.4798 95.2894 47.0983L95.2896 47.0981M95.5385 51.7311L95.2896 47.0981M95.2896 47.0981C95.65 46.6518 95.804 46.0732 95.7131 45.5066C95.6223 44.9396 95.2952 44.4402 94.8151 44.1286L94.8144 44.1282M95.2896 47.0981L94.8144 44.1282M94.8144 44.1282C91.967 42.2886 88.8531 40.9971 85.5592 40.2908C84.991 40.1621 84.4055 40.2951 83.9453 40.6306C83.481 40.9679 83.1819 41.4851 83.1217 42.0557L83.1216 42.0558M94.8144 44.1282L83.1216 42.0558M83.1216 42.0558C82.9357 43.8245 81.4528 45.1575 79.6697 45.1575C77.8857 45.1575 76.4028 43.8245 76.2169 42.0558L76.2169 42.0557M83.1216 42.0558L76.2169 42.0557M76.2169 42.0557C76.1567 41.485 75.8574 40.9676 75.3928 40.6303C74.9283 40.2928 74.3441 40.1741 73.785 40.2896L73.782 40.2903C70.4878 40.9964 67.373 42.2881 64.5249 44.1282L64.5245 44.1284C64.0434 44.44 63.7163 44.9395 63.6254 45.5066L64.0423 45.5734M76.2169 42.0557L57.5756 51.5566M64.0423 45.5734C63.9704 46.0219 64.0923 46.4797 64.3775 46.8328C65.6314 48.3828 65.5111 50.6172 64.0994 52.0297C62.6876 53.4422 60.4509 53.5609 58.9017 52.3078L64.754 44.4828C64.3728 44.7297 64.1142 45.125 64.0423 45.5734ZM64.0423 45.5734L63.6254 45.5066C63.5346 46.0732 63.6886 46.6518 64.049 47.0981L64.0492 47.0984C65.1668 48.4798 65.0603 50.4709 63.8007 51.7312C62.5414 52.9912 60.5481 53.0965 59.1672 51.9795L59.1665 51.979C58.7215 51.6206 58.1456 51.4638 57.5756 51.5566M57.5756 51.5566C57.0108 51.6475 56.5093 51.973 56.1979 52.4551L57.5756 51.5566ZM54.1246 71.0535L54.1689 71.4734L56.1977 52.4554C54.3577 55.3011 53.0661 58.4158 52.3592 61.7113C52.2388 62.272 52.3621 62.8585 52.699 63.3229C53.0355 63.7868 53.5538 64.0871 54.125 64.1465C55.8937 64.3333 57.2271 65.8171 57.2271 67.6C57.2271 69.3829 55.8937 70.8666 54.1251 71.0535C54.1249 71.0535 54.1247 71.0535 54.1246 71.0535ZM92.6791 80.6091L92.679 80.6092C90.5171 82.7703 89.9254 85.9334 90.9818 88.6444C89.5663 89.4083 88.0861 90.0224 86.5528 90.4821C85.3842 87.8168 82.7287 85.9981 79.6697 85.9981C76.6099 85.9981 73.9544 87.8168 72.7857 90.482C71.253 90.0224 69.7723 89.4083 68.3575 88.6444C69.414 85.9335 68.8222 82.7718 66.6605 80.6093L66.6602 80.6091C64.4985 78.4497 61.3377 77.8566 58.6254 78.9122C57.862 77.4973 57.2472 76.017 56.7869 74.4832C59.4529 73.3145 61.2716 70.659 61.2716 67.6C61.2716 64.5409 59.4529 61.8855 56.7869 60.7168C57.2472 59.183 57.862 57.7027 58.6254 56.2878C61.3377 57.3434 64.4985 56.7502 66.6602 54.5909L66.6605 54.5907C68.8222 52.4282 69.414 49.2665 68.3575 46.5556C69.7723 45.7917 71.253 45.1776 72.7857 44.718C73.9544 47.3832 76.6099 49.2019 79.6697 49.2019C82.7287 49.2019 85.3842 47.3832 86.5528 44.7179C88.0861 45.1775 89.5663 45.7917 90.9818 46.5556C89.9254 49.2666 90.5171 52.4297 92.679 54.5908L92.6791 54.5909C94.8407 56.7501 98.0029 57.3434 100.713 56.2878C101.477 57.7015 102.091 59.1828 102.552 60.7168C99.8857 61.8855 98.067 64.5409 98.067 67.6C98.067 70.659 99.8857 73.3145 102.552 74.4832C102.091 76.017 101.477 77.4981 100.714 78.9117C98.0025 77.8519 94.8403 78.4503 92.6791 80.6091Z" stroke="#007BBD" stroke-opacity="0.16" stroke-width="0.844444"/>
</g>
</g>
</svg>
