<svg width="80" height="80" viewBox="0 0 80 80" fill="none" xmlns="http://www.w3.org/2000/svg">
<g id="noun-hand-2104919 1">
<g id="Group">
<path id="Vector" d="M17.3078 59.3415L17.3086 59.3427C18.2104 60.7281 19.2794 61.9935 20.4887 63.1317C21.5451 62.3852 22.6444 61.7981 23.6571 61.2619L23.6636 61.2585L23.6701 61.2551C24.1603 61.004 24.6387 60.7527 25.1071 60.486L25.11 60.4844C25.4416 60.2969 25.7825 60.1099 26.1336 59.932C24.9503 58.5072 23.8877 56.9827 22.961 55.3671L17.3078 59.3415ZM17.3078 59.3415C16.2695 57.7507 15.4622 56.0349 14.8942 54.2237L20.8287 50.8813M17.3078 59.3415L20.8287 50.8813M20.8287 50.8813C21.4228 52.4257 22.1336 53.9253 22.9609 55.3669L20.8287 50.8813Z" stroke="white" stroke-width="2.19374"/>
<path id="Vector_2" d="M31.1408 58.8064L31.1391 58.8063C30.6034 58.752 30.0958 58.761 29.612 58.8133C28.1865 57.2487 26.9356 55.5348 25.8791 53.6931L25.8791 53.6929C25.0566 52.2596 24.3625 50.7602 23.7964 49.2104L24.1274 49.024L24.1281 49.0236C24.7361 48.6806 25.3017 48.2729 25.8187 47.8305L25.8187 47.8306L25.8287 47.8218C27.2731 46.5551 28.7546 45.7605 30.3676 45.3561L30.3692 45.3557C34.6253 44.2818 38.2941 46.0199 40.1465 47.1974L40.1485 47.1987C40.9204 47.687 41.8032 47.9566 42.7099 47.9566H43.8553H52.7619C53.7698 47.9566 54.4567 48.682 54.4567 49.5279C54.4567 50.3905 53.7157 51.1612 52.7245 51.1612L52.7231 51.1612L42.6873 51.1734C41.7186 51.0531 40.7606 51.5271 40.3029 52.4198L40.3027 52.4203C40.0313 52.9501 40.0244 53.4794 40.083 53.8657C40.1401 54.2414 40.2706 54.5634 40.3902 54.7659L40.3969 54.7771L40.4038 54.7882C40.6029 55.1074 40.8983 55.3128 41.1013 55.4351C41.3292 55.5725 41.5885 55.6909 41.8456 55.7929C42.3618 55.9979 42.9792 56.1797 43.5696 56.3312C44.7367 56.6306 45.9403 56.8468 46.3308 56.8934C46.4657 56.9109 46.6035 56.9205 46.7446 56.9205C47.29 56.9205 47.7734 56.7827 48.3175 56.5535C48.8302 56.3375 49.4762 56.0044 50.3442 55.557L50.3831 55.5369C50.3835 55.5367 50.3839 55.5365 50.3843 55.5363C50.5668 55.4428 50.7563 55.3448 50.9569 55.241C51.3243 55.0509 51.7291 54.8414 52.1965 54.6055C52.2028 54.6026 52.2091 54.5997 52.2152 54.5967L52.7329 54.5927L52.7849 54.5923L52.8365 54.587C54.6813 54.3976 56.5532 53.1998 57.4862 51.3752C58.1192 50.9934 58.6468 50.6505 59.1098 50.3451C60.4125 49.4888 61.2717 48.9261 63.2341 48.3524C63.9631 48.1404 64.6581 48.2974 64.9564 48.5307C65.0868 48.6353 65.1586 48.7527 65.1487 49.013C65.1416 49.1321 65.0783 49.3658 64.867 49.696C64.6651 50.0112 64.3634 50.3585 63.9726 50.6967C56.8866 55.9979 51.2106 59.8928 47.5449 61.9839L47.5438 61.9845C46.6788 62.4792 45.1339 63.3326 43.2926 63.1629L43.2881 63.1625C42.5211 63.0951 42.0533 62.8898 40.8936 62.3508L40.8936 62.3508L40.8849 62.3468L40.479 62.1625C40.4787 62.1624 40.4785 62.1623 40.4783 62.1622C40.3924 62.1229 40.3073 62.084 40.2229 62.0454C36.0598 60.1422 33.7171 59.0712 31.1408 58.8064Z" stroke="white" stroke-width="2.19374"/>
</g>
<g id="Group_2">
<path id="Vector_3" d="M58.151 27.0569L60.1935 25.213C59.4532 23.4254 59.451 23.4209 58.7107 21.6334L55.9625 21.7741C55.1011 20.9127 54.6655 20.4771 53.8041 19.6157L53.9448 16.8675C52.1572 16.1272 52.1527 16.1249 50.3652 15.3846L48.5213 17.4272C47.3033 17.4272 46.6871 17.4272 45.4691 17.4272L43.6252 15.3846C41.8377 16.1249 41.8332 16.1272 40.0456 16.8675L40.1863 19.6157C39.3249 20.4779 38.8901 20.9127 38.0279 21.7741L35.2797 21.6334C34.5394 23.4209 34.5372 23.4254 33.7969 25.213L35.8394 27.0569C35.8394 28.2749 35.8394 28.891 35.8394 30.1091L33.7969 31.953C34.5372 33.7405 34.5394 33.745 35.2797 35.5325L38.0279 35.3918C38.8893 36.2533 39.3249 36.6888 40.1863 37.5502L40.0456 40.2985C41.8332 41.0388 41.8377 41.041 43.6252 41.7813L45.4691 39.7387C46.6871 39.7387 47.3033 39.7387 48.5213 39.7387L50.3652 41.7813C52.1527 41.041 52.1572 41.0388 53.9448 40.2985L53.8041 37.5502C54.6655 36.6888 55.1011 36.2533 55.9625 35.3918L58.7107 35.5325C59.451 33.745 59.4532 33.7405 60.1935 31.953L58.151 30.1091C58.151 28.891 58.151 28.2756 58.151 27.0569ZM46.9956 37.6917C41.9656 37.6917 37.8872 33.6141 37.8872 28.5833C37.8872 23.5526 41.9656 19.475 46.9956 19.475C52.0256 19.475 56.1039 23.5526 56.1039 28.5833C56.1039 33.6141 52.0256 37.6917 46.9956 37.6917Z" fill="white"/>
<path id="Vector_4" d="M49.5251 27.6157C49.7463 27.3945 50.0608 27.2952 50.3685 27.3501C51.2728 27.5126 52.2395 27.2425 52.9361 26.5398C53.7163 25.7522 53.9488 24.6207 53.6343 23.6284L51.5812 25.6814C50.6551 25.458 49.9314 24.7343 49.7079 23.8082L51.7625 21.7536C50.7657 21.4361 49.6304 21.6723 48.8398 22.463C48.1198 23.183 47.8595 24.1881 48.0581 25.1149C48.1266 25.4332 48.0303 25.7642 47.8 25.9944L47.6105 26.184L43.3441 30.5091C42.9867 30.8664 42.518 31.0861 42.0162 31.141C41.5836 31.1884 41.1631 31.3757 40.8283 31.7023C40.0338 32.4771 40.0158 33.7636 40.7899 34.5588C41.5776 35.3691 42.8731 35.3758 43.6691 34.5791C43.976 34.2722 44.1633 33.8915 44.2318 33.4935C44.31 33.0391 44.5214 32.6186 44.8472 32.2928L49.2844 27.8556L49.5251 27.6157ZM41.5129 33.9081C41.1179 33.5131 41.1179 32.8736 41.5129 32.4786C41.9079 32.0837 42.5473 32.0837 42.9423 32.4786C43.3373 32.8736 43.3373 33.5131 42.9423 33.9081C42.5473 34.303 41.9079 34.303 41.5129 33.9081Z" fill="white"/>
<g id="Group_3">
<path id="Vector_5" d="M49.1285 28.8739L48.705 29.2975L50.9995 31.592C51.1538 31.7463 51.1771 31.9742 51.0507 32.1006C50.9243 32.227 50.6964 32.2044 50.5421 32.0494L48.2476 29.7549L47.7555 30.2469L50.0501 32.5415C50.2043 32.6957 50.2277 32.9236 50.1013 33.05C49.9749 33.1764 49.7469 33.1539 49.5927 32.9989L47.2981 30.7043L46.8633 31.1391L50.7949 35.0708C51.22 35.4958 51.8459 35.5583 52.1935 35.2114L53.2001 34.2048C53.5476 33.8573 53.4844 33.2313 53.0594 32.8063L49.1285 28.8739Z" fill="white"/>
<path id="Vector_6" d="M42.3655 25.0264L45.1498 27.8108L45.7472 27.2052L42.9726 24.4299L42.9079 23.6316L41.3875 22.619L40.5645 23.4421L41.5771 24.9625L42.3655 25.0264Z" fill="white"/>
</g>
<path id="Vector_7" d="M49.5251 27.6157C49.7463 27.3945 50.0608 27.2952 50.3685 27.3501C51.2728 27.5126 52.2395 27.2425 52.9361 26.5398C53.7163 25.7522 53.9488 24.6207 53.6343 23.6284L51.5812 25.6814C50.6551 25.458 49.9314 24.7343 49.7079 23.8082L51.7625 21.7536C50.7657 21.4361 49.6304 21.6723 48.8398 22.463C48.1198 23.183 47.8595 24.1881 48.0581 25.1149C48.1266 25.4332 48.0303 25.7642 47.8 25.9944L47.6105 26.184L43.3441 30.5091C42.9867 30.8664 42.518 31.0861 42.0162 31.141C41.5836 31.1884 41.1631 31.3757 40.8283 31.7023C40.0338 32.4771 40.0158 33.7636 40.7899 34.5588C41.5776 35.3691 42.8731 35.3758 43.6691 34.5791C43.976 34.2722 44.1633 33.8915 44.2318 33.4935C44.31 33.0391 44.5214 32.6186 44.8472 32.2928L49.2844 27.8556L49.5251 27.6157ZM41.5129 33.9081C41.1179 33.5131 41.1179 32.8736 41.5129 32.4786C41.9079 32.0837 42.5473 32.0837 42.9423 32.4786C43.3373 32.8736 43.3373 33.5131 42.9423 33.9081C42.5473 34.303 41.9079 34.303 41.5129 33.9081Z" fill="white"/>
</g>
</g>
</svg>
