<svg width="58" height="48" viewBox="0 0 58 48" fill="none" xmlns="http://www.w3.org/2000/svg">
<g id="Group 514657346">
<path  d="M34.1577 42.0024H31.7943L31.391 39.0471H35.6143C34.8144 38.2569 34.8144 37.9179 34.559 36.9863H4.54513C3.51211 36.9863 2.67469 36.1489 2.67469 35.1159V3.86612C2.67469 2.82771 3.52056 1.98807 4.55894 1.99574L46.732 2.30713C47.7596 2.31472 48.5886 3.1499 48.5886 4.17752V18.6109C48.5886 18.6109 49.6121 18.6109 50.2771 18.9906V3.57326C50.2771 1.68642 48.8938 0.154297 47.1902 0.154297H3.97166C2.26422 0.154297 0.884766 1.68642 0.884766 3.57326V35.6303C0.884766 37.5171 2.26422 39.0492 3.97166 39.0492H19.7689L19.3656 42.0045H17.0022C16.136 42.0045 15.4318 42.7844 15.4318 43.7439V45.338C15.4318 46.3017 16.136 47.0774 17.0022 47.0774H34.1596C35.0259 47.0774 35.7301 46.3017 35.7301 45.338V43.7439C35.7301 42.7844 35.0239 42.0024 34.1577 42.0024Z" fill="white"/>
<g id="Group 514657344">
<g id="Vector_2">
<path d="M43.8346 28.3483L42.8047 28.2442L42.9529 26.7832L43.9857 26.8887L44.1513 25.2769C44.1732 25.0534 44.3735 24.8902 44.5979 24.9131L46.8267 25.1387C46.9309 25.1504 47.0243 25.198 47.0907 25.2751L47.6921 25.9597L48.6921 26.0628C48.9955 25.8339 49.5964 25.4226 50.3988 25.5046L53.6344 25.835C54.4448 25.9178 55.2003 26.6462 55.0547 28.0814L54.918 29.4201C54.8267 30.3049 54.465 30.7707 54.1793 31.0034C53.8641 31.2602 53.4812 31.3736 53.0729 31.3329L49.8373 31.0025C49.0338 30.9214 48.505 30.3908 48.2807 30.111L47.2807 30.0078L46.5513 30.5565C46.4707 30.6185 46.3665 30.647 46.2652 30.6367L44.0346 30.4088C43.9254 30.3977 43.8283 30.3456 43.7606 30.2624C43.691 30.1771 43.6597 30.0715 43.6708 29.9623L43.8346 28.3483Z" fill="white"/>
<path d="M42.8047 28.2442L33.0701 27.5195L33.01 28.0983C32.9988 28.2076 32.9465 28.3066 32.8633 28.3744C32.8546 28.3815 32.843 28.3873 32.8342 28.3945C32.7351 28.4606 32.6107 28.48 32.4954 28.4502L28.898 27.4473C28.7057 27.3945 28.5819 27.2113 28.6011 27.0136L28.7393 25.6519C28.7596 25.4533 28.9198 25.2991 29.1159 25.285L32.8456 25.0329C32.9648 25.0251 33.0825 25.0712 33.1651 25.1569C33.2505 25.2439 33.2926 25.3626 33.2784 25.4816L33.2193 26.0596L42.9529 26.7832L42.8047 28.2442Z" fill="white"/>
</g>
<path id="Vector_3" d="M43.6371 36.086L39.6272 22.1524C40.5774 21.3376 41.0231 20.0165 40.6563 18.734C40.3185 17.574 39.3973 16.7373 38.3048 16.4551L39.0345 18.992L37.7686 20.6425L35.8179 19.9193L35.0888 17.3812C34.3145 18.1983 33.9755 19.3964 34.3113 20.5602C34.6795 21.8401 35.7571 22.7231 36.9945 22.9066L41.0017 36.8451C40.0515 37.6599 39.6084 38.9793 39.9778 40.2599C40.3111 41.4223 41.2329 42.2578 42.3255 42.54L41.5945 40.0024L42.8629 38.3533L44.8124 39.0757L45.5434 41.6134C46.319 40.7938 46.6567 39.5981 46.3209 38.4344C45.952 37.1556 44.8732 36.272 43.6371 36.086Z" fill="white"/>
</g>
</g>
</svg>
