<svg width="80" height="80" viewBox="0 0 80 80" fill="none" xmlns="http://www.w3.org/2000/svg">
<g id="Frame 480958439">
<g id="Group 514657347">
<path id="Exclude" fill-rule="evenodd" clip-rule="evenodd" d="M64.8946 57.9546C64.8946 58.4899 64.4607 58.9238 63.9254 58.9238H38.4023V56.9854H62.9562V27.7882L64.2569 27.7872L53.9766 17.2138L53.9775 18.8623H36.4639V32.7546C36.1408 32.4315 35.8177 32.4315 34.5254 32.4315V17.8931C34.5254 17.3578 34.9593 16.9238 35.4946 16.9238H54.8369C55.0954 16.9238 55.3432 17.0271 55.5252 17.2107L64.6137 26.3796C64.7937 26.5611 64.8946 26.8064 64.8946 27.0619V57.9546ZM53.9775 18.8623L53.9819 26.5026C53.9824 27.2164 54.5614 27.7947 55.2753 27.7941L62.9562 27.7882L64.2569 27.7872L53.9766 17.2138L53.9775 18.8623ZM55.2743 26.5018L55.2707 20.3987L61.2002 26.4972L55.2743 26.5018ZM41.6331 32.4315C41.6331 32.0747 41.9224 31.7854 42.2792 31.7854H57.1408C57.4976 31.7854 57.7869 32.0747 57.7869 32.4315V33.0777C57.7869 33.4345 57.4976 33.7238 57.1408 33.7238H42.2792C41.9224 33.7238 41.6331 33.4345 41.6331 33.0777V32.4315ZM42.2792 36.3084C41.9224 36.3084 41.6331 36.5977 41.6331 36.9546V37.6008C41.6331 37.9576 41.9224 38.2469 42.2792 38.2469H57.1408C57.4976 38.2469 57.7869 37.9576 57.7869 37.6008V36.9546C57.7869 36.5977 57.4976 36.3084 57.1408 36.3084H42.2792ZM41.6331 41.4777C41.6331 41.1208 41.9224 40.8315 42.2792 40.8315H57.1408C57.4976 40.8315 57.7869 41.1208 57.7869 41.4777V42.1238C57.7869 42.4807 57.4976 42.77 57.1408 42.77H42.2792C41.9224 42.77 41.6331 42.4807 41.6331 42.1238V41.4777ZM42.2792 45.3546C41.9224 45.3546 41.6331 45.6439 41.6331 46.0008V46.6469C41.6331 47.0038 41.9224 47.2931 42.2792 47.2931H57.1408C57.4976 47.2931 57.7869 47.0038 57.7869 46.6469V46.0008C57.7869 45.6439 57.4976 45.3546 57.1408 45.3546H42.2792Z" fill="white"/>
<path id="Subtract" fill-rule="evenodd" clip-rule="evenodd" d="M16.5707 34.6163C15.9157 34.6163 15.3848 35.1473 15.3848 35.8023V61.8925C15.3848 62.5474 15.9157 63.0784 16.5707 63.0784H34.9524C35.6074 63.0784 36.1384 62.5475 36.1384 61.8925V35.8023C36.1384 35.1473 35.6074 34.6163 34.9524 34.6163H16.5707ZM34.3599 36.3947H17.1641V61.299H34.3599V36.3947Z" fill="white"/>
<rect id="Rectangle 5690" x="19.242" y="38.4695" width="13.0451" height="4.74368" rx="0.29648" fill="white" stroke="white" stroke-width="0.59296"/>
<g id="Group 514657343">
<rect id="Rectangle 5691" x="19.2359" y="45.8805" width="2.9648" height="2.9648" rx="0.29648" fill="white" stroke="white" stroke-width="0.59296"/>
<rect id="Rectangle 5694" x="19.2362" y="51.2164" width="2.9648" height="2.9648" rx="0.29648" fill="white" stroke="white" stroke-width="0.59296"/>
<rect id="Rectangle 5697" x="19.2359" y="55.9605" width="2.9648" height="2.9648" rx="0.29648" fill="white" stroke="white" stroke-width="0.59296"/>
<rect id="Rectangle 5692" x="29.316" y="45.8805" width="2.9648" height="2.9648" rx="0.29648" fill="white" stroke="white" stroke-width="0.59296"/>
<rect id="Rectangle 5695" x="29.316" y="51.2164" width="2.9648" height="2.9648" rx="0.29648" fill="white" stroke="white" stroke-width="0.59296"/>
<rect id="Rectangle 5698" x="29.316" y="55.9605" width="2.9648" height="2.9648" rx="0.29648" fill="white" stroke="white" stroke-width="0.59296"/>
<rect id="Rectangle 5693" x="24.275" y="45.8805" width="2.9648" height="2.9648" rx="0.29648" fill="white" stroke="white" stroke-width="0.59296"/>
<rect id="Rectangle 5696" x="24.275" y="51.2164" width="2.9648" height="2.9648" rx="0.29648" fill="white" stroke="white" stroke-width="0.59296"/>
<rect id="Rectangle 5699" x="24.275" y="55.9605" width="2.9648" height="2.9648" rx="0.29648" fill="white" stroke="white" stroke-width="0.59296"/>
</g>
</g>
</g>
</svg>
