<svg width="80" height="80" viewBox="0 0 80 80" fill="none" xmlns="http://www.w3.org/2000/svg">
<g id="noun-certified-medal-5326564 1">
<path  d="M35.7041 51.1522L36.3239 51.3052V51.2442C36.5333 51.2578 36.7417 51.2522 36.9472 51.2284L38.7931 54.4099L33.6386 63.2998L32.1127 57.3266C32.1125 57.3262 32.1124 57.3257 32.1123 57.3252C31.9704 56.7609 31.3981 56.4332 30.8461 56.5712L24.8615 58.0673L30.7188 48.0796L31.7191 47.963L31.7194 47.963C32.3179 47.8928 32.8894 48.2101 33.1445 48.7532L33.1448 48.7538L33.3738 49.2398C33.3738 49.2399 33.3739 49.2399 33.3739 49.2399C33.8238 50.1984 34.6732 50.8977 35.7041 51.1522Z" stroke="white"/>
<path id="Vector_2" d="M47.0668 28.677L38.7432 37.2318C38.592 37.3872 38.393 37.4608 38.1941 37.4608C37.9951 37.4608 37.7962 37.379 37.645 37.2318L33.7776 33.257C33.4753 32.9462 33.4753 32.4391 33.7776 32.1284C34.08 31.8176 34.5734 31.8176 34.8758 32.1284L38.1941 35.5388L45.9686 27.5483C46.271 27.2376 46.7644 27.2376 47.0668 27.5483C47.3692 27.8591 47.3692 28.3662 47.0668 28.677Z" fill="white"/>
<path id="Vector_3" d="M55.134 58.0729L49.1494 56.5768C48.5973 56.4388 48.0251 56.7665 47.8832 57.3308C47.883 57.3313 47.8829 57.3317 47.8828 57.3322L46.3569 63.3052L38.8694 50.3883L39.1563 50.1715C39.1565 50.1714 39.1567 50.1712 39.1569 50.1711C39.6503 49.8015 40.345 49.8015 40.8384 50.171C40.8386 50.1712 40.8389 50.1714 40.8391 50.1715L41.3412 50.5509L41.3412 50.5509L41.3433 50.5525C41.9612 51.0143 42.6984 51.2563 43.4498 51.2563C43.7342 51.2563 44.0161 51.2239 44.2994 51.1516C45.3222 50.897 46.1767 50.1992 46.6269 49.2405C46.627 49.2403 46.6271 49.2401 46.6272 49.2398L46.8563 48.7538L46.8566 48.7532C47.0937 48.2483 47.6045 47.9385 48.1562 47.9539L48.2817 47.9686L49.2766 48.0851L55.134 58.0729Z" stroke="white"/>
<path id="Vector_4" d="M50.5853 45.2727C50.4076 45.4358 50.1585 45.518 49.9034 45.49C49.9026 45.49 49.9018 45.4899 49.901 45.4898L48.5814 45.3339C48.5813 45.3338 48.5812 45.3338 48.5811 45.3338C46.854 45.1294 45.2054 46.0548 44.4661 47.6164L44.4653 47.6181L44.2359 48.1049L44.2348 48.1074C44.1235 48.3451 43.9165 48.5159 43.6572 48.58C43.403 48.643 43.1385 48.59 42.9222 48.4294C42.9215 48.4289 42.9208 48.4283 42.9201 48.4278L42.4211 48.0508L42.421 48.0507C41.7062 47.5108 40.8445 47.2401 39.9927 47.2401C39.138 47.2401 38.2846 47.5124 37.5687 48.0475L37.5643 48.0508L37.0653 48.4278C37.0646 48.4283 37.0639 48.4289 37.0632 48.4294C36.847 48.59 36.5825 48.643 36.3283 48.58C36.0689 48.5159 35.8619 48.3451 35.7507 48.1074L35.7495 48.1049L35.5201 47.6181L35.5193 47.6164C34.78 46.0548 33.1314 45.1294 31.4044 45.3338C31.4043 45.3338 31.4042 45.3338 31.4041 45.3339L30.0844 45.4898C30.0836 45.4899 30.0829 45.49 30.0821 45.49C29.8337 45.5172 29.5795 45.4348 29.3943 45.2674L29.3943 45.2673L29.389 45.2626C29.2058 45.0992 29.1023 44.8624 29.1074 44.612L29.1074 44.6099L29.1242 43.6867L29.1242 43.6865C29.1545 41.9998 28.1212 40.4589 26.5449 39.8522C26.5446 39.8521 26.5443 39.8519 26.544 39.8518L25.2872 39.3659C25.0536 39.2755 24.8718 39.0913 24.7833 38.8506C24.698 38.6035 24.7221 38.3441 24.8434 38.1286L24.8437 38.1281L25.2464 37.4122C26.095 35.9045 25.8816 34.0222 24.7259 32.7381L24.7248 32.7369L23.8445 31.7619C23.844 31.7613 23.8435 31.7608 23.843 31.7602C23.6711 31.5668 23.5941 31.3125 23.6267 31.0643C23.6594 30.8153 23.8013 30.5876 24.0165 30.4464C24.0167 30.4462 24.017 30.446 24.0173 30.4458L24.8641 29.8943C24.8644 29.8941 24.8647 29.8939 24.865 29.8937C26.2907 28.968 26.9753 27.2378 26.5902 25.5917L26.5899 25.5902L26.2718 24.24C26.2717 24.2395 26.2716 24.239 26.2715 24.2384C26.2154 23.9944 26.265 23.7407 26.4058 23.5397L26.4058 23.5397L26.4108 23.5324C26.5419 23.3417 26.7607 23.206 27.0155 23.1738L28.1979 23.0344C29.8723 22.8374 31.2607 21.6 31.6476 19.9567C31.6477 19.9563 31.6478 19.9558 31.6479 19.9553L31.9098 18.8519C31.9099 18.8516 31.91 18.8513 31.91 18.8509C31.9697 18.6032 32.1318 18.3959 32.3479 18.2816L32.3479 18.2816L32.3518 18.2796C32.5746 18.1605 32.8344 18.1453 33.0677 18.2339C33.0678 18.234 33.0678 18.234 33.0679 18.234L34.1699 18.6536L34.1722 18.6544C35.751 19.2512 37.5548 18.8004 38.6613 17.5131C38.6617 17.5127 38.6621 17.5122 38.6625 17.5118L39.3321 16.7361L39.3353 16.7324C39.4961 16.5444 39.7344 16.4338 39.9927 16.4338C40.251 16.4338 40.4893 16.5443 40.6502 16.7324L40.6533 16.7361L41.323 17.5118C41.3233 17.5122 41.3237 17.5126 41.324 17.513C42.4306 18.8004 44.2344 19.2512 45.8132 18.6544L45.8155 18.6536L46.914 18.2353C46.9145 18.2351 46.9151 18.235 46.9156 18.2348C47.1522 18.1462 47.4149 18.1639 47.6375 18.2816C47.8536 18.3959 48.0157 18.6031 48.0754 18.8507C48.0754 18.8511 48.0755 18.8515 48.0756 18.8519L48.3376 19.9553C48.3376 19.9557 48.3377 19.956 48.3378 19.9564C48.7241 21.5983 50.106 22.8374 51.7881 23.0344L52.9662 23.1733C52.9671 23.1735 52.9681 23.1736 52.9691 23.1737C53.2162 23.2054 53.4401 23.3403 53.5797 23.5397C53.7204 23.7407 53.77 23.9944 53.714 24.2384C53.7138 24.239 53.7137 24.2395 53.7136 24.24L53.3956 25.5902L53.3952 25.5917C53.0094 27.241 53.7031 28.9691 55.1192 29.8929L55.1198 29.8933L55.9682 30.4458C55.9685 30.4461 55.9689 30.4463 55.9693 30.4466C56.1864 30.5892 56.3259 30.8121 56.3585 31.063C56.3916 31.317 56.3148 31.5664 56.1424 31.7602C56.1419 31.7608 56.1414 31.7613 56.1409 31.7619L55.2606 32.7369L55.2595 32.7381C54.1033 34.0228 53.8914 35.8986 54.7379 37.4102L54.7389 37.412L55.1417 38.1281L55.142 38.1286C55.2679 38.3521 55.289 38.6104 55.2038 38.846C55.1159 39.0889 54.9333 39.2749 54.6982 39.3659L53.4414 39.8518C53.4411 39.852 53.4408 39.8521 53.4405 39.8522C51.8642 40.4589 50.831 41.9999 50.8612 43.6865L50.8612 43.6867L50.8779 44.6048C50.8796 44.8626 50.7721 45.1038 50.5911 45.2674L50.5911 45.2673L50.5853 45.2727ZM28.1229 32.7797C28.1229 39.329 33.449 44.6552 39.9983 44.6552C46.5476 44.6552 51.8738 39.329 51.8738 32.7797C51.8738 26.2304 46.5476 20.9043 39.9983 20.9043C33.449 20.9043 28.1229 26.2304 28.1229 32.7797Z" stroke="white" stroke-width="2.09814"/>
</g>
</svg>
