<svg width="80" height="80" viewBox="0 0 80 80" fill="none" xmlns="http://www.w3.org/2000/svg">
<g id="material-symbols-light:mail-outline">
<path id="Vector" d="M10.4984 68.3333C8.6475 68.3333 7.10236 67.7136 5.86302 66.4743C4.62101 65.2323 4 63.6858 4 61.8349V18.4984C4 16.6475 4.62101 15.1024 5.86302 13.863C7.10236 12.621 8.6475 12 10.4984 12H69.9301C71.781 12 73.3262 12.621 74.5655 13.863C75.8075 15.1024 76.4285 16.6475 76.4285 18.4984V61.8349C76.4285 63.6858 75.8089 65.231 74.5695 66.4703C73.3275 67.7123 71.781 68.3333 69.9301 68.3333H10.4984ZM42.403 39.1985C41.0733 40.0678 39.3552 40.0678 38.0255 39.1985L8.02381 19.5849V61.8349C8.02381 62.5565 8.25585 63.1493 8.71993 63.6134C9.18401 64.0775 9.77685 64.3095 10.4984 64.3095H69.9301C70.6517 64.3095 71.2445 64.0775 71.7086 63.6134C72.1727 63.1493 72.4047 62.5565 72.4047 61.8349V19.5849L42.403 39.1985ZM38.0343 34.7258C39.3599 35.5875 41.0687 35.5875 42.3943 34.7258L71.1654 16.0238H9.26314L38.0343 34.7258ZM8.02381 19.5849V16.0238V61.8349C8.02381 62.5565 8.25585 63.1493 8.71993 63.6134C9.18401 64.0775 9.77685 64.3095 10.4984 64.3095H8.02381V19.5849Z" fill="#007BBD"/>
</g>
</svg>
