<svg width="80" height="80" viewBox="0 0 80 80" fill="none" xmlns="http://www.w3.org/2000/svg">
<g id="location icon">
<path id="Vector" d="M40.0087 25.8334C37.3565 25.8334 34.813 26.887 32.9376 28.7623C31.0623 30.6377 30.0087 33.1813 30.0087 35.8334C30.0087 38.4856 31.0623 41.0291 32.9376 42.9045C34.813 44.7798 37.3565 45.8334 40.0087 45.8334C42.6609 45.8334 45.2044 44.7798 47.0798 42.9045C48.9551 41.0291 50.0087 38.4856 50.0087 35.8334C50.0087 33.1813 48.9551 30.6377 47.0798 28.7623C45.2044 26.887 42.6609 25.8334 40.0087 25.8334ZM34.1754 35.8334C34.1754 34.2863 34.7899 32.8026 35.8839 31.7086C36.9779 30.6147 38.4616 30.0001 40.0087 30.0001C41.5558 30.0001 43.0395 30.6147 44.1335 31.7086C45.2275 32.8026 45.842 34.2863 45.842 35.8334C45.842 37.3805 45.2275 38.8642 44.1335 39.9582C43.0395 41.0522 41.5558 41.6667 40.0087 41.6667C38.4616 41.6667 36.9779 41.0522 35.8839 39.9582C34.7899 38.8642 34.1754 37.3805 34.1754 35.8334ZM61.667 53.3334L44.8537 71.1834C44.2304 71.8453 43.4783 72.3727 42.6437 72.7331C41.8091 73.0936 40.9095 73.2796 40.0004 73.2796C39.0912 73.2796 38.1917 73.0936 37.357 72.7331C36.5224 72.3727 35.7703 71.8453 35.147 71.1834L18.3337 53.3334H18.397L18.3687 53.3001L18.3337 53.2584C14.0182 48.1545 11.6556 41.6839 11.667 35.0001C11.667 19.3517 24.352 6.66675 40.0004 6.66675C55.6487 6.66675 68.3337 19.3517 68.3337 35.0001C68.3452 41.6839 65.9825 48.1545 61.667 53.2584L61.632 53.3001L61.6037 53.3334H61.667ZM58.4287 50.6351C62.1422 46.273 64.177 40.7288 64.167 35.0001C64.167 21.6534 53.347 10.8334 40.0004 10.8334C26.6537 10.8334 15.8337 21.6534 15.8337 35.0001C15.8233 40.7289 17.8582 46.2732 21.572 50.6351L22.0854 51.2401L38.1804 68.3251C38.4141 68.5733 38.6961 68.771 39.0091 68.9062C39.3221 69.0414 39.6594 69.1111 40.0004 69.1111C40.3413 69.1111 40.6786 69.0414 40.9916 68.9062C41.3046 68.771 41.5866 68.5733 41.8204 68.3251L57.9154 51.2401L58.4287 50.6351Z" fill="#007BBD"/>
</g>
</svg>
