<svg width="50" height="48" viewBox="0 0 50 48" fill="none" xmlns="http://www.w3.org/2000/svg">
<g id="Group 514657345">
<path  d="M33.6578 42.7712H31.2944L30.8912 39.8159H35.1145C34.3146 39.0257 34.3146 38.6867 34.0591 37.7551H4.00301C2.9932 37.7551 2.17458 36.9365 2.17458 35.9267V4.59259C2.17458 3.57751 3.00145 2.75673 4.01651 2.76422L46.2739 3.07624C47.2785 3.08366 48.0889 3.90007 48.0889 4.90461V19.3797C48.0889 19.3797 49.1124 19.3797 49.7774 19.7594V4.34205C49.7774 2.45522 48.394 0.923096 46.6904 0.923096H3.47157C1.76411 0.923096 0.384644 2.45522 0.384644 4.34205V36.3991C0.384644 38.2859 1.76411 39.818 3.47157 39.818H19.2689L18.8657 42.7733H16.5022C15.636 42.7733 14.9318 43.5532 14.9318 44.5127V46.1068C14.9318 47.0705 15.636 47.8462 16.5022 47.8462H33.6598C34.526 47.8462 35.2302 47.0705 35.2302 46.1068V44.5127C35.2302 43.5532 34.5241 42.7712 33.6578 42.7712Z" fill="white"/>
<path id="Vector_2" d="M49.2875 35.9349L44.3212 30.9683C45.3425 29.4893 45.9533 27.7007 45.9533 25.7672C45.9533 20.6833 41.8339 16.5637 36.7536 16.5637C31.67 16.5637 27.5507 20.6833 27.5507 25.7672C27.5507 30.8478 31.67 34.9706 36.7536 34.9706C38.6887 34.9706 40.4755 34.3598 41.9545 33.3384L46.9208 38.3018C47.5723 38.9533 48.6327 38.9533 49.2875 38.3018C49.9407 37.6453 49.9407 36.5865 49.2875 35.9349ZM36.7536 32.5272C33.0187 32.5272 29.9939 29.499 29.9939 25.7672C29.9939 22.032 33.0187 19.0071 36.7536 19.0071C40.4853 19.0071 43.5133 22.032 43.5133 25.7672C43.5133 29.4974 40.4853 32.5272 36.7536 32.5272Z" fill="white"/>
</g>
</svg>
