<svg width="160" height="160" viewBox="0 0 160 160" fill="none" xmlns="http://www.w3.org/2000/svg">
<g id="noun-no-tools-701248 1">
<g id="Group">
<path  d="M94.1549 46.9643C94.4628 46.8755 94.7378 46.7123 94.964 46.486L100.652 40.7977C101.005 40.4454 101.207 39.9585 101.207 39.4601C101.207 38.9618 101.005 38.4749 100.652 38.1226L95.8892 33.3594C95.1502 32.6204 93.953 32.6204 93.214 33.3594L87.5257 39.0477C87.2995 39.274 87.1362 39.5489 87.0474 39.8568L85.2258 46.1194L71.353 59.9921C70.6141 60.7311 70.6141 61.9283 71.353 62.6673C72.092 63.4062 73.2892 63.4062 74.0282 62.6673L87.9138 48.7817L94.1549 46.9643ZM90.5432 41.3791L94.5502 37.3721L96.6382 39.4601L92.6326 43.4671L89.6868 44.3235L90.5432 41.3791Z" fill="#007BBD" fill-opacity="0.16"/>
<path id="Vector_2" d="M33.2675 89.7686L33.2568 89.7792L33.2675 89.7686Z" fill="#007BBD" fill-opacity="0.16"/>
<path id="Vector_3" d="M33.2675 96.1691L33.2568 96.1584L33.2675 96.1691Z" fill="#007BBD" fill-opacity="0.16"/>
<path id="Vector_4" d="M110.515 66.0801L112.504 59.5297L120.66 57.6221C121.353 57.4603 121.894 56.9261 122.065 56.2358C122.236 55.5441 122.007 54.8209 121.469 54.354C118.588 51.8493 114.989 50.5962 111.403 50.5977C107.473 50.5962 103.526 52.1028 100.532 55.1002C97.5299 58.099 96.0191 62.0444 96.0205 65.9727C96.0205 67.6081 96.2912 69.2407 96.8139 70.8117L89.4973 78.1383C88.7598 78.8773 88.7598 80.0745 89.4987 80.8135C90.2377 81.5524 91.4349 81.551 92.1739 80.8121L100.345 72.6276C100.894 72.0777 101.051 71.2557 100.744 70.5425C100.118 69.0889 99.8027 67.5308 99.8027 65.9712C99.8055 63.0025 100.933 60.0481 103.205 57.7739C105.471 55.5083 108.428 54.3813 111.401 54.3798C112.683 54.3798 113.96 54.5975 115.182 55.0185L110.579 56.0955C109.922 56.2487 109.396 56.7414 109.2 57.3872L106.578 66.0256C106.382 66.673 106.545 67.3732 107.006 67.8673L113.186 74.475C113.647 74.9691 114.338 75.1782 114.997 75.0249L119.875 73.8879L119.617 74.1714L119.609 74.18C117.344 76.4499 114.389 77.5784 111.417 77.5812C109.856 77.5812 108.296 77.2676 106.843 76.6418C106.13 76.3353 105.305 76.4928 104.756 77.0428L96.5848 85.2272C95.8472 85.9662 95.8472 87.1634 96.5862 87.9024C97.3252 88.6399 98.5224 88.6399 99.2613 87.9009L106.576 80.5743C108.148 81.0956 109.78 81.3663 111.417 81.3663C115.345 81.3677 119.291 79.8583 122.284 76.858C123.81 75.3457 124.937 73.58 125.684 71.7025C125.944 71.0466 125.82 70.3048 125.358 69.7706C124.897 69.235 124.183 69.003 123.495 69.1634L115.203 71.0967L110.515 66.0801Z" fill="#007BBD" fill-opacity="0.16"/>
<path id="Vector_5" d="M122.287 76.8508L122.282 76.8562L122.276 76.8615L122.287 76.8508Z" fill="#007BBD" fill-opacity="0.16"/>
<g id="Vector_6">
<mask id="path-6-outside-1_339_3306" maskUnits="userSpaceOnUse" x="14.5557" y="14.5557" width="131" height="131" fill="black">
<rect fill="white" x="14.5557" y="14.5557" width="131" height="131"/>
<path d="M80.0001 15.5557C44.4081 15.5571 15.5571 44.4081 15.5557 80.0001C15.5571 115.592 44.4081 144.443 80.0001 144.444C115.592 144.443 144.443 115.592 144.444 80.0001C144.443 44.4081 115.592 15.5571 80.0001 15.5557ZM37.1059 122.894C26.126 111.91 19.3393 96.757 19.3393 80.0001C19.3407 63.9233 25.5975 49.3331 35.8027 38.4735L60.2199 62.8908C60.0638 63.0082 59.9034 63.1199 59.7617 63.2603L59.7301 63.2918L59.3521 63.6827L59.3535 63.6842C58.49 64.5592 58.0517 65.7135 58.0532 66.8505C58.0517 67.3733 58.1563 67.8988 58.3396 68.4001L58.1119 68.6278C57.6092 68.4445 57.0851 68.3399 56.5623 68.3414C55.4152 68.3399 54.2481 68.7824 53.3716 69.6617L33.265 89.7684C32.3771 90.6434 31.9245 91.8149 31.9274 92.9677C31.9245 94.122 32.3785 95.292 33.265 96.167L37.8592 100.761C38.7327 101.638 39.8985 102.083 41.0456 102.082C42.1927 102.083 43.3555 101.638 44.2334 100.77L44.242 100.761L64.3544 80.6488L64.363 80.6402C65.2308 79.7623 65.6762 78.6009 65.6748 77.4524C65.6762 76.9253 65.5717 76.3969 65.3841 75.8928L65.6003 75.6751C66.1073 75.8627 66.6372 75.9673 67.1656 75.9658C68.3127 75.9673 69.4799 75.5248 70.3563 74.6454L70.3778 74.624L70.7559 74.233L70.753 74.2301C70.8891 74.0927 71.0022 73.9409 71.1182 73.7905L82.4805 85.1527L72.0691 95.5541C70.4995 95.0328 68.8655 94.7607 67.23 94.7607C63.3018 94.7578 59.3564 96.2701 56.3576 99.2718C54.851 100.778 53.7096 102.537 52.9606 104.426C52.7 105.082 52.8246 105.824 53.2857 106.358C53.7468 106.893 54.46 107.125 55.1474 106.966L63.4507 105.033L68.1265 110.044L66.1374 116.594L57.9816 118.502C57.2884 118.664 56.7471 119.198 56.5767 119.888C56.4048 120.58 56.634 121.303 57.1724 121.771C60.0538 124.276 63.6527 125.529 67.2386 125.528C71.1683 125.529 75.1137 124.023 78.1097 121.025C81.1114 118.025 82.6222 114.081 82.6208 110.153C82.6208 108.517 82.3501 106.885 81.8288 105.315L92.2402 94.9139L121.524 124.197C110.667 134.403 96.0768 140.661 80.0001 140.661C63.2431 140.661 48.0901 133.874 37.1059 122.894ZM68.2311 70.9034L68.2783 71.0853C68.2755 71.2643 68.2182 71.4218 68.0707 71.5707L68.0392 71.6022L67.6812 71.9717C67.5379 72.1149 67.3604 72.1808 67.1656 72.1837C66.9694 72.1822 66.7933 72.1149 66.65 71.9717L66.6415 71.9631C66.2849 71.6051 65.8051 71.406 65.301 71.406C64.7955 71.406 64.3157 71.6051 63.9606 71.9631L61.6778 74.2588C61.3269 74.6125 61.1279 75.0951 61.1279 75.5921V75.6049C61.1279 76.1033 61.3298 76.5902 61.6821 76.9425C61.8282 77.09 61.8912 77.2619 61.894 77.4538C61.8926 77.6457 61.8267 77.8276 61.6735 77.9837L41.5669 98.086L41.5754 98.0774C41.4193 98.2307 41.2389 98.2951 41.0456 98.298C40.8537 98.2951 40.6818 98.2321 40.5343 98.086L35.9316 93.4833L35.923 93.4747C35.7755 93.3272 35.7124 93.1553 35.7096 92.9663C35.7124 92.7772 35.7755 92.6054 35.923 92.4579L35.9316 92.4493L56.0439 72.3383C56.1886 72.1951 56.3647 72.1278 56.5595 72.1264C56.7542 72.1278 56.9318 72.1951 57.0765 72.3383C57.8154 73.0773 59.0127 73.0773 59.7516 72.3383L62.0473 70.0427C62.3996 69.6904 62.6015 69.2035 62.6015 68.7051C62.6015 68.2067 62.3996 67.7198 62.0473 67.3675C61.9041 67.2229 61.8368 67.0467 61.8353 66.852C61.8368 66.6558 61.9041 66.4796 62.0473 66.3364L62.0688 66.3135L62.4168 65.954C62.57 65.8051 62.7476 65.7407 62.9323 65.7392L63.1113 65.7851L68.2311 70.9034ZM89.5665 92.2388L78.2987 103.495C77.7488 104.044 77.5913 104.868 77.8977 105.582C78.5236 107.035 78.8372 108.593 78.8372 110.153C78.8343 113.122 77.7073 116.076 75.4345 118.35C73.1675 120.616 70.2117 121.743 67.2386 121.744C65.9569 121.744 64.6795 121.527 63.4579 121.106L68.0607 120.029C68.718 119.875 69.2436 119.383 69.4398 118.737L72.0619 110.098C72.2581 109.453 72.0963 108.752 71.6352 108.258L65.4686 101.651C65.0074 101.156 64.3143 100.946 63.657 101.099L58.7663 102.238L59.0299 101.946C61.304 99.6728 64.2584 98.5443 67.2272 98.5429C68.7867 98.5429 70.3449 98.8565 71.7984 99.4823C72.5116 99.7902 73.3336 99.6327 73.8836 99.0828L85.1527 87.825L89.5665 92.2388ZM124.2 121.524L93.5993 90.9212L93.5849 90.8983L93.562 90.884L86.5132 83.8352L86.4989 83.8123L86.476 83.7966L38.4764 35.7998C49.3345 25.5961 63.9233 19.3393 80.0001 19.3393C96.757 19.3407 111.91 26.126 122.894 37.1059C133.874 48.0901 140.661 63.2431 140.661 80.0001C140.661 96.0754 134.404 110.666 124.2 121.524Z"/>
</mask>
<path d="M80.0001 15.5557C44.4081 15.5571 15.5571 44.4081 15.5557 80.0001C15.5571 115.592 44.4081 144.443 80.0001 144.444C115.592 144.443 144.443 115.592 144.444 80.0001C144.443 44.4081 115.592 15.5571 80.0001 15.5557ZM37.1059 122.894C26.126 111.91 19.3393 96.757 19.3393 80.0001C19.3407 63.9233 25.5975 49.3331 35.8027 38.4735L60.2199 62.8908C60.0638 63.0082 59.9034 63.1199 59.7617 63.2603L59.7301 63.2918L59.3521 63.6827L59.3535 63.6842C58.49 64.5592 58.0517 65.7135 58.0532 66.8505C58.0517 67.3733 58.1563 67.8988 58.3396 68.4001L58.1119 68.6278C57.6092 68.4445 57.0851 68.3399 56.5623 68.3414C55.4152 68.3399 54.2481 68.7824 53.3716 69.6617L33.265 89.7684C32.3771 90.6434 31.9245 91.8149 31.9274 92.9677C31.9245 94.122 32.3785 95.292 33.265 96.167L37.8592 100.761C38.7327 101.638 39.8985 102.083 41.0456 102.082C42.1927 102.083 43.3555 101.638 44.2334 100.77L44.242 100.761L64.3544 80.6488L64.363 80.6402C65.2308 79.7623 65.6762 78.6009 65.6748 77.4524C65.6762 76.9253 65.5717 76.3969 65.3841 75.8928L65.6003 75.6751C66.1073 75.8627 66.6372 75.9673 67.1656 75.9658C68.3127 75.9673 69.4799 75.5248 70.3563 74.6454L70.3778 74.624L70.7559 74.233L70.753 74.2301C70.8891 74.0927 71.0022 73.9409 71.1182 73.7905L82.4805 85.1527L72.0691 95.5541C70.4995 95.0328 68.8655 94.7607 67.23 94.7607C63.3018 94.7578 59.3564 96.2701 56.3576 99.2718C54.851 100.778 53.7096 102.537 52.9606 104.426C52.7 105.082 52.8246 105.824 53.2857 106.358C53.7468 106.893 54.46 107.125 55.1474 106.966L63.4507 105.033L68.1265 110.044L66.1374 116.594L57.9816 118.502C57.2884 118.664 56.7471 119.198 56.5767 119.888C56.4048 120.58 56.634 121.303 57.1724 121.771C60.0538 124.276 63.6527 125.529 67.2386 125.528C71.1683 125.529 75.1137 124.023 78.1097 121.025C81.1114 118.025 82.6222 114.081 82.6208 110.153C82.6208 108.517 82.3501 106.885 81.8288 105.315L92.2402 94.9139L121.524 124.197C110.667 134.403 96.0768 140.661 80.0001 140.661C63.2431 140.661 48.0901 133.874 37.1059 122.894ZM68.2311 70.9034L68.2783 71.0853C68.2755 71.2643 68.2182 71.4218 68.0707 71.5707L68.0392 71.6022L67.6812 71.9717C67.5379 72.1149 67.3604 72.1808 67.1656 72.1837C66.9694 72.1822 66.7933 72.1149 66.65 71.9717L66.6415 71.9631C66.2849 71.6051 65.8051 71.406 65.301 71.406C64.7955 71.406 64.3157 71.6051 63.9606 71.9631L61.6778 74.2588C61.3269 74.6125 61.1279 75.0951 61.1279 75.5921V75.6049C61.1279 76.1033 61.3298 76.5902 61.6821 76.9425C61.8282 77.09 61.8912 77.2619 61.894 77.4538C61.8926 77.6457 61.8267 77.8276 61.6735 77.9837L41.5669 98.086L41.5754 98.0774C41.4193 98.2307 41.2389 98.2951 41.0456 98.298C40.8537 98.2951 40.6818 98.2321 40.5343 98.086L35.9316 93.4833L35.923 93.4747C35.7755 93.3272 35.7124 93.1553 35.7096 92.9663C35.7124 92.7772 35.7755 92.6054 35.923 92.4579L35.9316 92.4493L56.0439 72.3383C56.1886 72.1951 56.3647 72.1278 56.5595 72.1264C56.7542 72.1278 56.9318 72.1951 57.0765 72.3383C57.8154 73.0773 59.0127 73.0773 59.7516 72.3383L62.0473 70.0427C62.3996 69.6904 62.6015 69.2035 62.6015 68.7051C62.6015 68.2067 62.3996 67.7198 62.0473 67.3675C61.9041 67.2229 61.8368 67.0467 61.8353 66.852C61.8368 66.6558 61.9041 66.4796 62.0473 66.3364L62.0688 66.3135L62.4168 65.954C62.57 65.8051 62.7476 65.7407 62.9323 65.7392L63.1113 65.7851L68.2311 70.9034ZM89.5665 92.2388L78.2987 103.495C77.7488 104.044 77.5913 104.868 77.8977 105.582C78.5236 107.035 78.8372 108.593 78.8372 110.153C78.8343 113.122 77.7073 116.076 75.4345 118.35C73.1675 120.616 70.2117 121.743 67.2386 121.744C65.9569 121.744 64.6795 121.527 63.4579 121.106L68.0607 120.029C68.718 119.875 69.2436 119.383 69.4398 118.737L72.0619 110.098C72.2581 109.453 72.0963 108.752 71.6352 108.258L65.4686 101.651C65.0074 101.156 64.3143 100.946 63.657 101.099L58.7663 102.238L59.0299 101.946C61.304 99.6728 64.2584 98.5443 67.2272 98.5429C68.7867 98.5429 70.3449 98.8565 71.7984 99.4823C72.5116 99.7902 73.3336 99.6327 73.8836 99.0828L85.1527 87.825L89.5665 92.2388ZM124.2 121.524L93.5993 90.9212L93.5849 90.8983L93.562 90.884L86.5132 83.8352L86.4989 83.8123L86.476 83.7966L38.4764 35.7998C49.3345 25.5961 63.9233 19.3393 80.0001 19.3393C96.757 19.3407 111.91 26.126 122.894 37.1059C133.874 48.0901 140.661 63.2431 140.661 80.0001C140.661 96.0754 134.404 110.666 124.2 121.524Z" fill="#007BBD" fill-opacity="0.16"/>
<path d="M80.0001 15.5557C44.4081 15.5571 15.5571 44.4081 15.5557 80.0001C15.5571 115.592 44.4081 144.443 80.0001 144.444C115.592 144.443 144.443 115.592 144.444 80.0001C144.443 44.4081 115.592 15.5571 80.0001 15.5557ZM37.1059 122.894C26.126 111.91 19.3393 96.757 19.3393 80.0001C19.3407 63.9233 25.5975 49.3331 35.8027 38.4735L60.2199 62.8908C60.0638 63.0082 59.9034 63.1199 59.7617 63.2603L59.7301 63.2918L59.3521 63.6827L59.3535 63.6842C58.49 64.5592 58.0517 65.7135 58.0532 66.8505C58.0517 67.3733 58.1563 67.8988 58.3396 68.4001L58.1119 68.6278C57.6092 68.4445 57.0851 68.3399 56.5623 68.3414C55.4152 68.3399 54.2481 68.7824 53.3716 69.6617L33.265 89.7684C32.3771 90.6434 31.9245 91.8149 31.9274 92.9677C31.9245 94.122 32.3785 95.292 33.265 96.167L37.8592 100.761C38.7327 101.638 39.8985 102.083 41.0456 102.082C42.1927 102.083 43.3555 101.638 44.2334 100.77L44.242 100.761L64.3544 80.6488L64.363 80.6402C65.2308 79.7623 65.6762 78.6009 65.6748 77.4524C65.6762 76.9253 65.5717 76.3969 65.3841 75.8928L65.6003 75.6751C66.1073 75.8627 66.6372 75.9673 67.1656 75.9658C68.3127 75.9673 69.4799 75.5248 70.3563 74.6454L70.3778 74.624L70.7559 74.233L70.753 74.2301C70.8891 74.0927 71.0022 73.9409 71.1182 73.7905L82.4805 85.1527L72.0691 95.5541C70.4995 95.0328 68.8655 94.7607 67.23 94.7607C63.3018 94.7578 59.3564 96.2701 56.3576 99.2718C54.851 100.778 53.7096 102.537 52.9606 104.426C52.7 105.082 52.8246 105.824 53.2857 106.358C53.7468 106.893 54.46 107.125 55.1474 106.966L63.4507 105.033L68.1265 110.044L66.1374 116.594L57.9816 118.502C57.2884 118.664 56.7471 119.198 56.5767 119.888C56.4048 120.58 56.634 121.303 57.1724 121.771C60.0538 124.276 63.6527 125.529 67.2386 125.528C71.1683 125.529 75.1137 124.023 78.1097 121.025C81.1114 118.025 82.6222 114.081 82.6208 110.153C82.6208 108.517 82.3501 106.885 81.8288 105.315L92.2402 94.9139L121.524 124.197C110.667 134.403 96.0768 140.661 80.0001 140.661C63.2431 140.661 48.0901 133.874 37.1059 122.894ZM68.2311 70.9034L68.2783 71.0853C68.2755 71.2643 68.2182 71.4218 68.0707 71.5707L68.0392 71.6022L67.6812 71.9717C67.5379 72.1149 67.3604 72.1808 67.1656 72.1837C66.9694 72.1822 66.7933 72.1149 66.65 71.9717L66.6415 71.9631C66.2849 71.6051 65.8051 71.406 65.301 71.406C64.7955 71.406 64.3157 71.6051 63.9606 71.9631L61.6778 74.2588C61.3269 74.6125 61.1279 75.0951 61.1279 75.5921V75.6049C61.1279 76.1033 61.3298 76.5902 61.6821 76.9425C61.8282 77.09 61.8912 77.2619 61.894 77.4538C61.8926 77.6457 61.8267 77.8276 61.6735 77.9837L41.5669 98.086L41.5754 98.0774C41.4193 98.2307 41.2389 98.2951 41.0456 98.298C40.8537 98.2951 40.6818 98.2321 40.5343 98.086L35.9316 93.4833L35.923 93.4747C35.7755 93.3272 35.7124 93.1553 35.7096 92.9663C35.7124 92.7772 35.7755 92.6054 35.923 92.4579L35.9316 92.4493L56.0439 72.3383C56.1886 72.1951 56.3647 72.1278 56.5595 72.1264C56.7542 72.1278 56.9318 72.1951 57.0765 72.3383C57.8154 73.0773 59.0127 73.0773 59.7516 72.3383L62.0473 70.0427C62.3996 69.6904 62.6015 69.2035 62.6015 68.7051C62.6015 68.2067 62.3996 67.7198 62.0473 67.3675C61.9041 67.2229 61.8368 67.0467 61.8353 66.852C61.8368 66.6558 61.9041 66.4796 62.0473 66.3364L62.0688 66.3135L62.4168 65.954C62.57 65.8051 62.7476 65.7407 62.9323 65.7392L63.1113 65.7851L68.2311 70.9034ZM89.5665 92.2388L78.2987 103.495C77.7488 104.044 77.5913 104.868 77.8977 105.582C78.5236 107.035 78.8372 108.593 78.8372 110.153C78.8343 113.122 77.7073 116.076 75.4345 118.35C73.1675 120.616 70.2117 121.743 67.2386 121.744C65.9569 121.744 64.6795 121.527 63.4579 121.106L68.0607 120.029C68.718 119.875 69.2436 119.383 69.4398 118.737L72.0619 110.098C72.2581 109.453 72.0963 108.752 71.6352 108.258L65.4686 101.651C65.0074 101.156 64.3143 100.946 63.657 101.099L58.7663 102.238L59.0299 101.946C61.304 99.6728 64.2584 98.5443 67.2272 98.5429C68.7867 98.5429 70.3449 98.8565 71.7984 99.4823C72.5116 99.7902 73.3336 99.6327 73.8836 99.0828L85.1527 87.825L89.5665 92.2388ZM124.2 121.524L93.5993 90.9212L93.5849 90.8983L93.562 90.884L86.5132 83.8352L86.4989 83.8123L86.476 83.7966L38.4764 35.7998C49.3345 25.5961 63.9233 19.3393 80.0001 19.3393C96.757 19.3407 111.91 26.126 122.894 37.1059C133.874 48.0901 140.661 63.2431 140.661 80.0001C140.661 96.0754 134.404 110.666 124.2 121.524Z" stroke="#007BBD" stroke-opacity="0.16" stroke-width="1.51166" mask="url(#path-6-outside-1_339_3306)"/>
</g>
</g>
</g>
</svg>
