<svg width="160" height="160" viewBox="0 0 160 160" fill="none" xmlns="http://www.w3.org/2000/svg">
<g id="noun-calendar-3091263 2" clip-path="url(#clip0_339_3318)">
<g id="Group 514657356">
<g id="Group">
<path id="Vector" d="M80.833 31.6929C80.833 31.1826 80.4203 30.769 79.9111 30.769C79.4022 30.769 78.9893 31.1826 78.9893 31.6929V41.6759C78.9893 42.1862 79.4022 42.5998 79.9111 42.5998C80.4203 42.5998 80.833 42.1862 80.833 41.6759V31.6929Z" fill="#007BBD" fill-opacity="0.16"/>
<path id="Vector_2" d="M105.253 38.6243C105.511 38.1858 105.366 37.6201 104.929 37.3611C104.491 37.1022 103.926 37.2474 103.668 37.6859L98.6388 46.1914C98.3803 46.6299 98.5255 47.1957 98.963 47.4546C99.4004 47.7136 99.9652 47.5683 100.224 47.1298L105.253 38.6243Z" fill="#007BBD" fill-opacity="0.16"/>
<path id="Vector_3" d="M122.97 56.5588C123.414 56.31 123.572 55.7475 123.323 55.3031C123.075 54.8589 122.514 54.7004 122.07 54.9494L113.199 59.9298C112.756 60.1786 112.598 60.741 112.846 61.1854C113.095 61.6297 113.656 61.7881 114.099 61.5391L122.97 56.5588Z" fill="#007BBD" fill-opacity="0.16"/>
<path id="Vector_4" d="M129.034 81.0316C129.543 81.0316 129.956 80.6178 129.956 80.1078C129.956 79.5977 129.543 79.184 129.034 79.184H118.97C118.461 79.184 118.048 79.5977 118.048 80.1078C118.048 80.6178 118.461 81.0316 118.97 81.0316H129.034Z" fill="#007BBD" fill-opacity="0.16"/>
<path id="Vector_5" d="M122.07 105.267C122.514 105.516 123.075 105.358 123.323 104.913C123.572 104.469 123.414 103.906 122.97 103.657L114.099 98.6771C113.656 98.4281 113.095 98.5865 112.846 99.0307C112.598 99.475 112.756 100.037 113.199 100.286L122.07 105.267Z" fill="#007BBD" fill-opacity="0.16"/>
<path id="Vector_6" d="M103.662 122.823C103.914 123.265 104.477 123.419 104.918 123.166C105.36 122.913 105.513 122.349 105.26 121.906L100.231 113.098C99.9787 112.656 99.4157 112.503 98.9745 112.755C98.5331 113.008 98.38 113.573 98.6323 114.015L103.662 122.823Z" fill="#007BBD" fill-opacity="0.16"/>
<path id="Vector_7" d="M78.9893 128.822C78.9893 129.332 79.4022 129.746 79.9111 129.746C80.4203 129.746 80.833 129.332 80.833 128.822V118.845C80.833 118.335 80.4203 117.921 79.9111 117.921C79.4022 117.921 78.9893 118.335 78.9893 118.845V128.822Z" fill="#007BBD" fill-opacity="0.16"/>
<path id="Vector_8" d="M54.8344 121.906C54.5821 122.349 54.7353 122.913 55.1765 123.166C55.6179 123.419 56.1809 123.265 56.4334 122.823L61.4745 114.015C61.7269 113.573 61.5738 113.008 61.1324 112.755C60.691 112.503 60.1282 112.656 59.8757 113.098L54.8344 121.906Z" fill="#007BBD" fill-opacity="0.16"/>
<path id="Vector_9" d="M37.1286 103.657C36.6853 103.905 36.5256 104.465 36.7722 104.91C37.0187 105.354 37.5785 105.514 38.0218 105.267L46.9071 100.286C47.3506 100.039 47.5102 99.4784 47.2635 99.0342C47.0169 98.59 46.4573 98.43 46.0138 98.6771L37.1286 103.657Z" fill="#007BBD" fill-opacity="0.16"/>
<path id="Vector_10" d="M31.0752 79.1847C30.5662 79.1847 30.1533 79.5985 30.1533 80.1085C30.1533 80.6186 30.5662 81.0324 31.0752 81.0324H41.1312C41.6404 81.0324 42.0531 80.6186 42.0531 80.1085C42.0531 79.5985 41.6404 79.1847 41.1312 79.1847H31.0752Z" fill="#007BBD" fill-opacity="0.16"/>
<path id="Vector_11" d="M38.0218 54.9497C37.5785 54.7026 37.0187 54.8626 36.7722 55.3068C36.5256 55.7512 36.6853 56.312 37.1286 56.559L46.0138 61.5394C46.4573 61.7865 47.0169 61.6265 47.2635 61.1823C47.5102 60.7379 47.3506 60.1771 46.9071 59.93L38.0218 54.9497Z" fill="#007BBD" fill-opacity="0.16"/>
<path id="Vector_12" d="M56.4258 37.6854C56.1674 37.2469 55.6026 37.1017 55.1651 37.3606C54.7275 37.6196 54.5825 38.1853 54.841 38.6238L59.8822 47.1294C60.1406 47.5678 60.7052 47.7131 61.1428 47.4541C61.5803 47.1952 61.7255 46.6294 61.4669 46.191L56.4258 37.6854Z" fill="#007BBD" fill-opacity="0.16"/>
<path id="Vector_13" fill-rule="evenodd" clip-rule="evenodd" d="M79.8939 77.1564C81.8677 77.1564 83.1842 78.453 83.1842 80.0936C83.1842 82.0465 81.8608 83.3614 79.8939 83.3614C78.2384 83.3614 76.915 82.0465 76.915 80.0936C76.915 78.453 78.2338 77.1564 79.8939 77.1564Z" fill="#007BBD" fill-opacity="0.16"/>
<path id="Vector_14" d="M82.8633 79.1847L102.694 80.0427L82.8633 81.032V79.1847Z" fill="#007BBD" fill-opacity="0.16"/>
<path id="Vector_15" d="M77.4941 79.2336L59.8799 59.9883L79.2056 77.5181L77.4941 79.2336Z" fill="#007BBD" fill-opacity="0.16"/>
</g>
<circle id="Ellipse 3833" cx="80.0007" cy="80.3079" r="53.0769" stroke="#007BBD" stroke-opacity="0.16" stroke-width="4"/>
</g>
</g>
<defs>
<clipPath id="clip0_339_3318">
<rect width="160" height="160" fill="white"/>
</clipPath>
</defs>
</svg>
