<svg width="160" height="160" viewBox="0 0 160 160" fill="none" xmlns="http://www.w3.org/2000/svg">
<path d="M68.1411 115.805C70.1381 117.8 73.3855 117.802 75.3824 115.805L79.6173 111.569L83.8521 115.805C84.8498 116.803 86.162 117.302 87.4727 117.302C88.7835 117.302 90.0942 116.803 91.0934 115.805C93.0888 113.808 93.0888 110.561 91.0934 108.564L86.857 104.329L91.0934 100.094C93.0888 98.0971 93.0888 94.8497 91.0934 92.8528C89.0964 90.8573 85.849 90.8573 83.8521 92.8528L79.6173 97.0876L75.3824 92.8513C73.3855 90.8559 70.1381 90.8559 68.1411 92.8513C66.1457 94.8483 66.1457 98.0957 68.1411 100.093L72.376 104.327L68.1397 108.562C66.1457 110.561 66.1457 113.808 68.1411 115.805ZM71.0976 111.52L76.8107 105.807C77.203 105.415 77.4234 104.883 77.4234 104.329C77.4234 103.775 77.203 103.243 76.8107 102.851L71.0976 97.1376C70.7376 96.7776 70.7376 96.1693 71.0976 95.8078C71.4576 95.4478 72.0659 95.4478 72.4274 95.8078L78.1405 101.521C78.5328 101.913 79.0648 102.134 79.6187 102.134C80.1727 102.134 80.7046 101.913 81.097 101.521L86.81 95.8078C87.17 95.4478 87.7784 95.4478 88.1398 95.8078C88.4999 96.1678 88.4999 96.7761 88.1398 97.1376L82.4268 102.851C82.0344 103.243 81.814 103.775 81.814 104.329C81.814 104.883 82.0344 105.415 82.4268 105.807L88.1398 111.52C88.4999 111.88 88.4999 112.489 88.1398 112.85C87.7798 113.21 87.1715 113.21 86.81 112.85L81.097 107.137C80.7046 106.745 80.1727 106.524 79.6187 106.524C79.0648 106.524 78.5328 106.745 78.1405 107.137L72.4274 112.85C72.0674 113.21 71.4591 113.21 71.0976 112.85C70.7361 112.489 70.7361 111.88 71.0976 111.52ZM44.0839 77.6444H115.151C116.304 77.6444 117.24 76.7084 117.24 75.5549V60.0761C117.24 58.9211 116.304 57.9866 115.151 57.9866H44.0839C42.9305 57.9866 41.9944 58.9226 41.9944 60.0761V75.5534C41.9944 76.7084 42.929 77.6444 44.0839 77.6444ZM46.1734 62.1656H113.06V73.4639H46.1734V62.1656ZM146.233 49.3699C146.233 45.0557 142.723 41.5453 138.408 41.5453H106.794V30.7775C106.794 25.3862 102.408 21 97.0166 21H62.218C56.8267 21 52.4405 25.3862 52.4405 30.7775V41.5453H20.8261C16.5104 41.5453 13 45.0557 13 49.3699V128.004C13 134.544 18.3207 139.865 24.8626 139.865H134.372C140.912 139.865 146.233 134.544 146.233 128.004V49.3699ZM56.621 30.776C56.621 27.6888 59.1322 25.179 62.218 25.179H97.0166C100.102 25.179 102.614 27.6902 102.614 30.776V41.5439H96.3304V33.5517C96.3304 32.3968 95.3943 31.4622 94.2408 31.4622H64.9937C63.8402 31.4622 62.9042 32.3982 62.9042 33.5517V41.5439H56.621V30.776ZM92.1513 41.5439H67.0832V35.6412H92.1513V41.5439ZM20.8261 45.7243H138.408C140.419 45.7243 142.054 47.3598 142.054 49.3699V78.4276C142.054 84.7563 136.905 89.9066 130.575 89.9066H98.1759C93.8691 84.3787 87.1524 80.8154 79.6173 80.8154C72.0821 80.8154 65.3654 84.3787 61.0586 89.9066H28.6581C22.3381 89.9066 17.1966 84.774 17.1805 78.4584V78.3952V49.3699C17.1805 47.3598 18.8159 45.7243 20.8261 45.7243ZM79.6173 84.9944C90.2778 84.9944 98.9503 93.6669 98.9503 104.327C98.9503 114.988 90.2778 123.662 79.6173 123.662C68.9567 123.662 60.2827 114.989 60.2827 104.329C60.2827 93.6683 68.9567 84.9944 79.6173 84.9944ZM134.372 135.685H24.8626C20.6262 135.685 17.1805 132.239 17.1805 128.003V89.0632C20.0429 92.1489 24.1279 94.0856 28.6581 94.0856H58.4533C56.9486 97.1832 56.1023 100.658 56.1023 104.327C56.1023 117.294 66.6512 127.841 79.6158 127.841C92.5819 127.841 103.129 117.292 103.129 104.327C103.129 100.658 102.284 97.1832 100.778 94.0856H130.572C135.104 94.0856 139.189 92.1489 142.051 89.0617V128.003C142.054 132.239 138.608 135.685 134.372 135.685Z" fill="#007BBD" fill-opacity="0.16"/>
</svg>
