<svg width="24" height="24" viewBox="0 0 24 24" fill="none" xmlns="http://www.w3.org/2000/svg">
<g >
<path  d="M4.6764 19.5333C4.19888 19.5333 3.80025 19.3735 3.48052 19.0537C3.16009 18.7333 2.99988 18.3343 2.99988 17.8568V6.67652C2.99988 6.199 3.16009 5.80037 3.48052 5.48064C3.80025 5.16021 4.19888 5 4.6764 5H20.0091C20.4866 5 20.8852 5.16021 21.2049 5.48064C21.5254 5.80037 21.6856 6.199 21.6856 6.67652V17.8568C21.6856 18.3343 21.5257 18.733 21.206 19.0527C20.8856 19.3731 20.4866 19.5333 20.0091 19.5333H4.6764ZM12.9074 12.0169C12.5644 12.2412 12.1211 12.2412 11.7781 12.0169L4.03797 6.95681V17.8568C4.03797 18.043 4.09784 18.1959 4.21756 18.3156C4.33729 18.4354 4.49024 18.4952 4.6764 18.4952H20.0091C20.1952 18.4952 20.3482 18.4354 20.4679 18.3156C20.5876 18.1959 20.6475 18.043 20.6475 17.8568V6.95681L12.9074 12.0169ZM11.7803 10.863C12.1223 11.0853 12.5632 11.0853 12.9051 10.863L20.3278 6.03809H4.35771L11.7803 10.863ZM4.03797 6.95681V6.03809V17.8568C4.03797 18.043 4.09784 18.1959 4.21756 18.3156C4.33729 18.4354 4.49024 18.4952 4.6764 18.4952H4.03797V6.95681Z" fill="white"/>
</g>
</svg>
