<svg width="32" height="32" viewBox="0 0 32 32" fill="none" xmlns="http://www.w3.org/2000/svg">
<g >
<path  d="M16.0032 10.3333C14.9423 10.3333 13.9249 10.7547 13.1748 11.5049C12.4246 12.255 12.0032 13.2724 12.0032 14.3333C12.0032 15.3942 12.4246 16.4116 13.1748 17.1617C13.9249 17.9119 14.9423 18.3333 16.0032 18.3333C17.0641 18.3333 18.0815 17.9119 18.8316 17.1617C19.5818 16.4116 20.0032 15.3942 20.0032 14.3333C20.0032 13.2724 19.5818 12.255 18.8316 11.5049C18.0815 10.7547 17.0641 10.3333 16.0032 10.3333ZM13.6699 14.3333C13.6699 13.7145 13.9157 13.121 14.3533 12.6834C14.7909 12.2458 15.3843 12 16.0032 12C16.622 12 17.2155 12.2458 17.6531 12.6834C18.0907 13.121 18.3365 13.7145 18.3365 14.3333C18.3365 14.9521 18.0907 15.5456 17.6531 15.9832C17.2155 16.4208 16.622 16.6666 16.0032 16.6666C15.3843 16.6666 14.7909 16.4208 14.3533 15.9832C13.9157 15.5456 13.6699 14.9521 13.6699 14.3333ZM24.6665 21.3333L17.9412 28.4733C17.6919 28.738 17.391 28.949 17.0572 29.0932C16.7233 29.2374 16.3635 29.3118 15.9999 29.3118C15.6362 29.3118 15.2764 29.2374 14.9425 29.0932C14.6087 28.949 14.3078 28.738 14.0585 28.4733L7.33319 21.3333H7.35852L7.34719 21.32L7.33319 21.3033C5.60698 19.2617 4.66193 16.6735 4.66652 14C4.66652 7.74063 9.74052 2.66663 15.9999 2.66663C22.2592 2.66663 27.3332 7.74063 27.3332 14C27.3378 16.6735 26.3927 19.2617 24.6665 21.3033L24.6525 21.32L24.6412 21.3333H24.6665ZM23.3712 20.254C24.8566 18.5091 25.6705 16.2914 25.6665 14C25.6665 8.66129 21.3385 4.33329 15.9999 4.33329C10.6612 4.33329 6.33319 8.66129 6.33319 14C6.32902 16.2915 7.14297 18.5092 8.62852 20.254L8.83385 20.496L15.2719 27.33C15.3653 27.4292 15.4782 27.5083 15.6034 27.5624C15.7286 27.6165 15.8635 27.6444 15.9999 27.6444C16.1362 27.6444 16.2712 27.6165 16.3964 27.5624C16.5215 27.5083 16.6344 27.4292 16.7279 27.33L23.1659 20.496L23.3712 20.254Z" fill="black"/>
</g>
</svg>
