<svg width="32" height="32" viewBox="0 0 32 32" fill="none" xmlns="http://www.w3.org/2000/svg">
<g id="phone icon">
<path id="Vector" d="M22.152 24.49H21.922C19.3308 24.2081 16.8413 23.3246 14.652 21.91C12.6182 20.6146 10.8914 18.8913 9.59205 16.86C8.1742 14.665 7.29057 12.1682 7.01205 9.57C6.9802 9.2601 7.01165 8.94695 7.10447 8.64957C7.1973 8.35219 7.34957 8.07676 7.55205 7.84C7.74899 7.60007 7.99207 7.4021 8.2669 7.25781C8.54173 7.11353 8.84272 7.02586 9.15205 7H11.752C12.3152 7.00057 12.8595 7.20247 13.2868 7.56924C13.7141 7.93601 13.9962 8.44348 14.082 9C14.177 9.71488 14.3549 10.4163 14.612 11.09C14.7685 11.5134 14.8008 11.9726 14.7051 12.4137C14.6095 12.8548 14.3898 13.2595 14.072 13.58L13.462 14.19C14.4225 15.7062 15.7108 16.9877 17.232 17.94L17.842 17.34C18.1626 17.0222 18.5672 16.8026 19.0083 16.7069C19.4494 16.6113 19.9087 16.6436 20.332 16.8C21.0065 17.0548 21.7076 17.2326 22.422 17.33C22.9881 17.4151 23.5036 17.7038 23.8718 18.142C24.2401 18.5802 24.4357 19.1378 24.422 19.71V22.11C24.4221 22.7342 24.1748 23.3329 23.7344 23.7752C23.2939 24.2175 22.6962 24.4674 22.072 24.47L22.152 24.49ZM11.752 8.49H9.36205C9.2447 8.49776 9.13014 8.52923 9.02529 8.58251C8.92045 8.63579 8.82749 8.70978 8.75205 8.8C8.67862 8.88451 8.62305 8.98301 8.58868 9.08956C8.55431 9.19611 8.54185 9.30851 8.55205 9.42C8.79454 11.7768 9.58567 14.044 10.862 16.04C12.0387 17.8867 13.6054 19.4534 15.452 20.63C17.4493 21.9198 19.719 22.7278 22.082 22.99C22.2049 22.9969 22.3279 22.9783 22.4433 22.9353C22.5586 22.8922 22.6637 22.8257 22.752 22.74C22.9113 22.5767 23.0009 22.358 23.002 22.13V19.74C23.0065 19.5296 22.9337 19.3248 22.7973 19.1644C22.6609 19.0041 22.4705 18.8993 22.262 18.87C21.4359 18.7589 20.6244 18.5577 19.842 18.27C19.6879 18.2124 19.5206 18.1996 19.3595 18.2333C19.1985 18.2669 19.0502 18.3455 18.932 18.46L17.932 19.46C17.8149 19.5742 17.6641 19.6476 17.5019 19.6692C17.3398 19.6908 17.175 19.6595 17.032 19.58C14.8982 18.3742 13.132 16.6115 11.922 14.48C11.8392 14.338 11.8061 14.1724 11.8278 14.0094C11.8495 13.8465 11.9249 13.6954 12.042 13.58L13.042 12.58C13.1567 12.464 13.2356 12.3175 13.2693 12.1579C13.303 11.9983 13.2901 11.8324 13.232 11.68C12.9432 10.898 12.742 10.0864 12.632 9.26C12.6072 9.04527 12.5034 8.84746 12.3407 8.70512C12.178 8.56277 11.9682 8.48609 11.752 8.49Z" fill="white"/>
</g>
</svg>
