<svg width="52" height="52" viewBox="0 0 52 52" fill="none" xmlns="http://www.w3.org/2000/svg">
<g id="noun-fire-2067783 1">
<g id="Group">
<path id="Vector" d="M33.4702 35.0595L33.469 35.0592C33.1947 34.9992 32.9988 34.7493 33.0526 34.4547C33.3516 32.815 32.8421 31.448 31.9962 30.2737C31.1447 29.0918 29.964 28.1208 28.9411 27.2812L28.9411 27.2811L28.9271 27.2697C28.5514 26.9612 28.19 26.6645 27.8862 26.3873C27.1347 25.7024 26.6945 24.8873 26.5852 23.9677C26.4947 23.2065 26.6327 22.3902 26.9854 21.5354C23.3828 22.8503 20.7002 27.1465 21.0198 31.4519C21.0314 31.6068 20.9609 31.7539 20.8377 31.8432L20.8367 31.8439C20.7125 31.933 20.5509 31.9522 20.4089 31.8934L20.4084 31.8932C19.7801 31.6313 19.3043 31.0841 19.0263 30.3981C18.2412 33.0857 18.5664 36.0276 19.9339 38.0963C20.9039 39.563 22.8607 41.3052 26.6865 41.1468L26.6868 41.1468C29.3909 41.0384 31.3757 40.0463 32.6317 38.2253L33.4702 35.0595ZM33.4702 35.0595C33.5996 35.0871 33.7389 35.0738 33.8771 35.0214M33.4702 35.0595L33.8771 35.0214M33.8771 35.0214C33.74 35.9108 33.3978 37.1142 32.6318 38.2252L33.8771 35.0214Z" stroke="white" stroke-width="0.5"/>
<path id="Vector_2" d="M14.2491 21.6728C14.277 23.6949 15.2095 25.247 16.4923 25.8425L16.7137 25.9453L16.7054 25.7014C16.4291 17.5625 22.2083 9.96624 29.0822 8.59329C28.2522 9.99322 27.7173 11.4572 27.6833 12.8919C27.6468 14.4313 28.1874 15.925 29.5328 17.2539L29.6382 17.1471L29.5328 17.2539C30.015 17.7302 30.5949 18.2464 31.2184 18.8015C31.5802 19.1235 31.9566 19.4587 32.3373 19.8068C33.3788 20.759 34.462 21.8167 35.4006 22.9969C37.2769 25.3561 38.5651 28.1911 37.7924 31.6389C37.7923 31.6389 37.7923 31.639 37.7923 31.639L37.9387 31.6718C37.9167 31.7697 38.0012 31.8429 38.1452 31.8429C38.435 31.8429 38.9636 31.5461 39.3398 30.5599L14.2491 21.6728ZM14.2491 21.6728C12.2805 25.8396 11.9251 30.9919 13.6049 35.1697C15.3637 39.5442 19.359 42.8656 26.1214 42.8656C32.4476 42.8656 35.8017 39.937 37.5482 36.9011C38.4239 35.379 38.8971 33.8264 39.1341 32.5957C39.2526 31.9805 39.3117 31.4471 39.3329 31.04C39.3346 31.0067 39.3361 30.9742 39.3373 30.9426L14.2491 21.6728ZM34.3441 33.2919C34.1932 33.2984 34.0638 33.4023 34.0261 33.5492L34.026 33.5493C33.9915 33.684 33.9528 33.795 33.9131 33.8862C34.0181 32.2884 33.4589 30.9461 32.6339 29.8067C31.7229 28.5485 30.4817 27.5296 29.4456 26.6791L29.4391 26.6738L29.4361 26.6713C29.0584 26.3612 28.7052 26.0712 28.4152 25.8072C27.588 25.0532 27.3218 24.2021 27.3542 23.369C27.387 22.5285 27.7246 21.6988 28.1207 21.005L28.1209 21.0048C28.1872 20.8882 28.1797 20.7428 28.1 20.6335C28.0193 20.5224 27.8831 20.4747 27.7548 20.4998L27.7548 20.4998L27.7525 20.5003C23.4949 21.4015 20.1818 26.0379 20.2099 30.8187C19.8048 30.4041 19.4912 29.697 19.5354 28.7318C19.5429 28.5691 19.4348 28.4228 19.2761 28.3835L19.2753 28.3833C19.1172 28.345 18.9542 28.4224 18.8843 28.5692L18.8842 28.5694C17.3407 31.8257 17.4922 35.8258 19.2797 38.5297C20.3248 40.1107 22.3715 41.9415 26.2154 41.9415C26.3794 41.9415 26.5473 41.9383 26.7181 41.9316L26.7182 41.9316C29.6479 41.814 31.8635 40.7219 33.2777 38.671L33.1542 38.5858L33.2777 38.671C34.0431 37.5608 34.4244 36.3722 34.6004 35.4189C34.6884 34.942 34.7253 34.5222 34.7329 34.1983C34.7366 34.0364 34.7331 33.8973 34.7246 33.7861C34.7164 33.6787 34.703 33.5868 34.6826 33.5255L34.6825 33.5249C34.6343 33.3819 34.4953 33.285 34.3441 33.2919ZM34.3441 33.2919C34.3442 33.2919 34.3443 33.2919 34.3445 33.2919L34.3507 33.4418M34.3441 33.2919C34.3439 33.292 34.3438 33.292 34.3436 33.292L34.3507 33.4418M34.3507 33.4418C34.4341 33.4379 34.5131 33.4921 34.5403 33.5728L34.3507 33.4418Z" stroke="white" stroke-width="0.3"/>
<path id="Vector_3" d="M39.8227 30.1192C39.7751 29.9555 39.6701 29.5008 39.4998 29.5C39.3298 29.5 39.2789 30.0633 39.2301 30.2265C38.9998 31.3306 38.6026 31.167 38.4012 31.3306C39.4711 25.4318 34.9167 21.3773 31.5702 18.3982C30.9593 17.8542 30.3819 17.3405 29.9091 16.8736C27.1613 14.1596 28.285 10.8706 29.7117 8.58922C29.7919 8.46059 29.7895 8.29697 29.705 8.1711C29.6326 8.06293 29.5122 8 29.3852 8C29.3639 8 29.3423 8.00197 29.3207 8.00551C22.1223 9.22917 16.2348 16.9173 16.1625 25.0019C15.3137 24.297 14.6509 22.9263 14.8059 21.0438C14.809 21.0245 14.8106 21.0044 14.8106 20.984C14.8106 20.7743 14.6438 20.6036 14.4349 20.5993C14.4314 20.5993 14.4283 20.5993 14.4247 20.5993C14.409 20.5993 14.3932 20.6001 14.3779 20.602C14.3126 20.6099 14.252 20.6343 14.2009 20.6709C14.1671 20.6949 14.1372 20.7244 14.1124 20.759C14.1002 20.7759 14.0896 20.7936 14.0802 20.8125C11.3095 26.1048 11.306 32.7305 14.0715 37.3026C15.7542 40.0843 19.2108 43.4001 26.1217 43.4001C30.988 43.4001 34.7015 41.739 37.1594 38.4626C39.8294 34.9045 39.9934 30.7048 39.8227 30.1192ZM26.1217 43.0154C12.4773 43.0154 9.91671 29.5862 14.4247 20.9844C14.2249 23.3031 15.2019 25.0778 16.5558 25.7067C16.273 17.3743 22.2839 9.59182 29.3852 8.38468C27.5428 11.3308 27.0055 14.5463 29.6385 17.147C32.6778 20.1485 39.512 24.6542 37.939 31.6717C37.917 31.7696 38.002 31.8428 38.1455 31.8428C38.4653 31.8428 39.0773 31.4805 39.453 30.2265C39.7287 31.1721 38.8893 43.0154 26.1217 43.0154Z" fill="white" stroke="white" stroke-width="0.5"/>
<path id="Vector_4" d="M34.358 33.5924L34.3564 33.5925C34.3368 33.5933 34.3209 33.6065 34.3162 33.6246C34.3162 33.6247 34.3161 33.6247 34.3161 33.6247L34.1709 33.5874C34.088 33.9104 33.9793 34.1153 33.8787 34.2428L34.358 33.5924ZM34.358 33.5924C34.3719 33.5917 34.3908 33.6026 34.3969 33.6212L34.3972 33.622C34.4053 33.6463 34.4169 33.7072 34.4249 33.8103C34.4325 33.9096 34.436 34.0385 34.4325 34.1925C34.4254 34.5003 34.3901 34.9041 34.305 35.3653C34.1346 36.2883 33.7658 37.4345 33.0302 38.5015C31.6801 40.4595 29.5611 41.518 26.7057 41.6326L34.358 33.5924Z" fill="white" stroke="white" stroke-width="0.3"/>
</g>
</g>
</svg>
