<svg width="731" height="135" viewBox="0 0 731 135" fill="none" xmlns="http://www.w3.org/2000/svg">
<path d="M34.1944 106.514C22.5174 106.514 12.7866 103.811 4.89375 98.4046V78.5105C8.02925 81.4297 12.3541 83.8084 17.8682 85.8627C23.3824 87.9169 28.5722 88.89 33.4376 88.89C41.1142 88.89 45.0065 86.9439 45.0065 82.9434C45.0065 80.6729 43.8172 79.6998 42.0872 78.5105C41.2223 77.7536 38.5193 76.9968 37.2218 76.5643L30.4102 74.51L24.8961 72.8882L19.9225 70.942C17.7601 70.077 16.1383 69.3202 14.949 68.5634C12.7866 66.9415 9.21858 64.3467 7.59677 61.6436C6.1912 58.9406 4.89375 54.9402 4.89375 50.5072C4.89375 35.9109 16.4627 27.8019 34.6269 27.8019C43.8172 27.8019 52.3587 29.8562 60.2515 34.0729V52.7778C56.8998 50.7235 52.8993 48.9935 48.2501 47.588C43.6009 46.1824 39.168 45.4256 34.8432 45.4256C28.2478 45.4256 24.8961 47.0474 24.8961 50.3991C24.8961 51.8047 25.761 52.8859 28.0316 53.859L31.4914 55.0483C33.762 55.8051 38.7355 57.1026 41.871 58.0757C49.1151 60.4543 54.8455 63.4817 58.9541 67.0497C63.0626 70.6177 65.1169 75.6993 65.1169 82.1866C65.1169 89.6469 62.1977 95.4854 56.4673 99.9183C50.7369 104.351 43.2766 106.514 34.1944 106.514ZM119.283 106.514C107.173 106.514 97.1181 102.838 89.1172 95.4854C81.1162 88.1332 77.1158 78.7267 77.1158 67.1578C77.1158 55.5889 81.1162 46.1824 89.009 38.8302C97.01 31.478 107.065 27.8019 119.175 27.8019C126.311 27.8019 132.798 29.2075 138.745 32.1267V51.2641C132.798 47.588 126.419 45.7499 119.391 45.7499C113.012 45.7499 107.714 47.8042 103.497 51.8047C99.2805 55.8051 97.1181 60.9949 97.1181 67.1578C97.1181 73.4288 99.2805 78.6186 103.605 82.619C108.038 86.6195 113.552 88.5657 120.148 88.5657C128.149 88.5657 134.744 86.5114 140.042 82.5109V101.756C133.879 104.892 126.959 106.514 119.283 106.514Z" fill="black"/>
<path d="M197.111 105H192.137V29.3156H197.219L226.628 67.9146L256.037 29.3156H260.902V105H255.929V36.9921L228.25 73.3207H225.006L197.111 36.9921V105ZM299.25 91.7012C305.521 98.2965 313.198 101.54 322.388 101.54C331.578 101.54 339.255 98.2965 345.526 91.7012C351.797 85.1058 354.932 76.9968 354.932 67.1578C354.932 57.3188 351.797 49.2098 345.526 42.6144C339.255 36.0191 331.578 32.7754 322.388 32.7754C313.198 32.7754 305.521 36.0191 299.25 42.6144C292.979 49.2098 289.844 57.3188 289.844 67.1578C289.844 76.9968 292.979 85.1058 299.25 91.7012ZM322.388 106.297C311.684 106.297 302.71 102.621 295.466 95.161C288.33 87.7007 284.762 78.4023 284.762 67.1578C284.762 56.0214 288.33 46.723 295.466 39.2627C302.71 31.8024 311.684 28.0181 322.388 28.0181C333.092 28.0181 341.958 31.8024 349.202 39.2627C356.446 46.723 360.014 56.0214 360.014 67.1578C360.014 78.2942 356.446 87.7007 349.202 95.161C341.958 102.621 333.092 106.297 322.388 106.297ZM419.232 105H383.769V29.3156H415.556C428.855 29.3156 436.748 36.2353 436.748 47.588C436.748 55.9132 433.288 61.3193 426.26 63.8061C437.072 65.4279 443.559 73.1044 443.559 84.0246C443.559 96.6747 434.477 105 419.232 105ZM388.742 66.8334V100.351H418.475C431.017 100.351 438.153 94.2961 438.153 83.5921C438.153 72.8882 431.017 66.8334 418.475 66.8334H388.742ZM388.742 33.9648V62.5086H414.907C425.719 62.5086 431.882 57.3188 431.882 48.2367C431.882 39.1546 425.719 33.9648 414.907 33.9648H388.742ZM471.535 105H466.562V29.3156H471.535V105ZM548.145 105H499.166V29.3156H504.14V100.351H548.145V105ZM573.207 105H568.233V29.3156H573.207V105ZM625.489 105H620.516V33.9648H593.377V29.3156H652.627V33.9648H625.489V105ZM698.159 105H693.185V69.9689L663.668 29.3156H669.723L695.78 65.2116L721.945 29.3156H727.676L698.159 69.8608V105Z" fill="#007BBD"/>
<rect x="5" y="131" width="723" height="4" fill="#007BBD"/>
<rect x="5" width="723" height="4" fill="#007BBD"/>
<rect x="5" width="134" height="4" fill="black"/>
<rect x="5" y="131" width="134" height="4" fill="black"/>
</svg>
