<svg width="40" height="40" viewBox="0 0 40 40" fill="none" xmlns="http://www.w3.org/2000/svg">
<g id="ant-design:reload-time-outline">
<g >
<path d="M31.6 9.3H6.8C6.3 9.3 5.8 9.5 5.5 9.8C5.2 10.2 5 10.6 5 11.1V28.1C5 28.6 5.2 29.1 5.5 29.4C5.9 29.7 6.3 29.9 6.8 29.9H31.6C32.1 29.9 32.6 29.7 32.9 29.4C33.2 29 33.4 28.6 33.4 28.1V24.4V24.3H33.3H25.6C25 24.3 24.4 24 24 23.6C23.6 23.2 23.3 22.7 23.3 22V17.2C23.3 16.6 23.6 16 24 15.6C24.4 15.2 25 14.9 25.6 14.9H33.3H33.4V14.8V11.1C33.4 10.6 33.2 10.1 32.9 9.8C32.5 9.5 32.1 9.3 31.6 9.3Z" stroke="#007BBD"/>
<path d="M33.7 16.2H25.6C25.1 16.2 24.6 16.7 24.6 17.2V22C24.6 22.5 25 23 25.6 23H33.7C34.3 23 34.7 22.6 34.7 22V17.2C34.7 16.7 34.3 16.2 33.7 16.2Z" stroke="#007BBD"/>
<path d="M27.6 4C22.1 5.4 12.3 6.8 6.7 8.2H29.5L28.6 4.6C28.4 4.2 28.1 4 27.6 4Z" stroke="#007BBD"/>
</g>
<circle id="Ellipse 3834" cx="29.7002" cy="19.5" r="1.4" stroke="#007BBD" stroke-width="0.8"/>
</g>
</svg>
