<svg xmlns="http://www.w3.org/2000/svg" width="40" height="40" viewBox="0 0 40 40" fill="none">
<path d="M29.6452 3.83309V5.30582H29.2177H28.4995L28.7488 5.97941C30.0639 9.53156 28.925 13.6237 25.8494 16.027L25.8493 16.0269L25.8425 16.0325C25.4275 16.3688 24.9209 16.6276 24.3547 16.9143L23.2915 17.4528L24.4207 17.8341C24.8937 17.9938 25.3955 18.326 25.8425 18.6882L25.8424 18.6883L25.8494 18.6938C28.9225 21.0951 30.0663 25.1878 28.7475 28.839L28.5055 29.5089H29.2177H29.6452V30.9816V31.4816H30.1452H31.5V32.3604H9.5V31.4816H10.9476H11.4476V30.9816V29.5089H11.875H12.5872L12.3453 28.839C11.0265 25.1878 12.1702 21.0951 15.2433 18.6938L15.2434 18.6938L15.2503 18.6882C15.6653 18.352 16.1718 18.0932 16.738 17.8064L17.8013 17.2679L16.672 16.8867C16.1991 16.727 15.6973 16.3947 15.2503 16.0325L15.2433 16.0269L15.2361 16.0215C12.173 13.7166 11.0255 9.62965 12.3453 5.97567L12.5872 5.30582H11.875H11.4476V3.83309V3.33309H10.9476H9.5V2.36038H31.4073V3.33309H30.6452H30.1452H30.0524V3.83309H29.6452Z" stroke="#007BBD"/>
</svg>
