<svg width="52" height="52" viewBox="0 0 52 52" fill="none" xmlns="http://www.w3.org/2000/svg">
<g id="fluent:slow-mode-24-regular">
<path  d="M45.5 39V36.5V10.5C45.5 9.9477 45.0523 9.49998 44.5 9.49998H18.6654L14.5632 7.34597H43.5862C44.7143 7.34597 45.6804 7.74799 46.4844 8.55202C47.2885 9.35605 47.6898 10.3214 47.6884 11.4482V36.0614C47.6884 36.6767 47.577 37.2325 47.3541 37.7289C47.1312 38.2253 46 39 45.5 39ZM7.74879 9.25407L8.5 10.007V37C8.5 37.5523 8.94772 38 9.5 38H34L4 8.37152L5.5 7L42 43.5L40.6118 44.8882L35.7921 40.1636H35.3818V42.5H18.973V40.1636H10.7686C9.64052 40.1636 8.67446 39.7616 7.87043 38.9575C7.06639 38.1535 6.66506 37.1881 6.66643 36.0614V11.4482C6.66643 10.1833 6.94476 9.8694 7.74879 9.25407Z" fill="#007BBD"/>
</g>
</svg>
