<?xml version="1.0" encoding="utf-8"?><svg viewBox="0 0 832 502.66" xmlns="http://www.w3.org/2000/svg" xmlns:xlink="http://www.w3.org/1999/xlink"><style>:root>svg{display:none}:root>svg:target{display:block}</style><svg viewBox="0 0 48 48" id="arr-up-right" xmlns="http://www.w3.org/2000/svg"><path d="M35.671 32.54a1.125 1.125 0 01-1.124-1.125l-.001-16.375-21.414 21.413a1.125 1.125 0 11-1.59-1.59l21.413-21.414-16.376-.001a1.125 1.125 0 010-2.249h19.092a1.125 1.125 0 011.125 1.124v19.092a1.125 1.125 0 01-1.125 1.125z"/></svg><svg viewBox="0 0 52 52" id="hot-icon" xmlns="http://www.w3.org/2000/svg"><path d="M33.47 35.06h-.001a.521.521 0 01-.416-.605c.299-1.64-.21-3.007-1.057-4.181-.851-1.182-2.032-2.153-3.055-2.993l-.014-.011c-.376-.309-.737-.605-1.04-.883-.752-.685-1.192-1.5-1.302-2.42-.09-.76.048-1.577.4-2.432-3.602 1.315-6.285 5.611-5.965 9.917a.442.442 0 01-.182.391h-.001a.443.443 0 01-.428.05c-.629-.262-1.105-.809-1.383-1.495-.785 2.688-.46 5.63.908 7.698.97 1.467 2.927 3.21 6.752 3.05 2.705-.108 4.69-1.1 5.946-2.92l.838-3.166zm0 0a.72.72 0 00.407-.039m-.407.038l.407-.038m0 0c-.137.89-.48 2.093-1.245 3.204l1.245-3.204z"/><path d="M14.25 21.673c.027 2.022.96 3.574 2.242 4.17l.222.102-.009-.244c-.276-8.139 5.503-15.735 12.377-17.108-.83 1.4-1.365 2.864-1.399 4.299-.036 1.54.504 3.033 1.85 4.362l.105-.107-.105.107c.482.476 1.062.992 1.685 1.547.362.323.739.658 1.12 1.006 1.04.952 2.124 2.01 3.063 3.19 1.876 2.36 3.164 5.194 2.391 8.642l.147.033c-.022.098.062.17.206.17.29 0 .819-.296 1.195-1.282l-25.09-8.887zm0 0c-1.97 4.167-2.325 9.319-.645 13.497 1.759 4.374 5.754 7.696 12.516 7.696 6.327 0 9.68-2.929 11.427-5.965a14.076 14.076 0 001.586-4.305 11.576 11.576 0 00.203-1.653l-25.088-9.27zm20.094 11.619a.343.343 0 00-.318.257 2.232 2.232 0 01-.113.337c.105-1.598-.454-2.94-1.28-4.08-.91-1.258-2.151-2.276-3.187-3.127l-.007-.005-.003-.003c-.378-.31-.73-.6-1.02-.864-.828-.754-1.094-1.605-1.062-2.438.033-.84.37-1.67.767-2.364a.343.343 0 00-.366-.505h-.002c-4.258.901-7.571 5.538-7.543 10.319-.405-.415-.719-1.122-.675-2.087a.342.342 0 00-.259-.348.343.343 0 00-.392.185c-1.543 3.257-1.392 7.257.396 9.96 1.045 1.582 3.091 3.412 6.935 3.412.164 0 .332-.003.503-.01 2.93-.117 5.145-1.21 6.56-3.26l-.124-.085.124.085c.765-1.11 1.146-2.299 1.322-3.252.088-.477.125-.897.133-1.22.004-.163 0-.302-.008-.413a1.184 1.184 0 00-.042-.26v-.001a.343.343 0 00-.339-.233zm0 0l.007.15m-.007-.15l.007.15m0 0a.193.193 0 01.19.13l-.19-.13z"/><path d="M39.823 30.12c-.048-.165-.153-.62-.323-.62s-.221.563-.27.727c-.23 1.104-.627.94-.829 1.104 1.07-5.9-3.484-9.954-6.83-12.933a45.534 45.534 0 01-1.662-1.524c-2.748-2.714-1.624-6.003-.197-8.285a.385.385 0 00-.391-.583c-7.199 1.223-13.086 8.911-13.159 16.996-.848-.705-1.511-2.076-1.356-3.958a.384.384 0 00-.371-.445h-.01a.382.382 0 00-.345.213c-2.77 5.293-2.774 11.918-.008 16.49 1.682 2.782 5.139 6.098 12.05 6.098 4.866 0 8.58-1.661 11.037-4.937 2.67-3.559 2.834-7.758 2.664-8.344zM26.122 43.014c-13.645 0-16.205-13.429-11.697-22.03-.2 2.318.777 4.093 2.13 4.722-.282-8.333 5.729-16.115 12.83-17.322-1.842 2.946-2.38 6.161.253 8.762 3.04 3.002 9.874 7.507 8.301 14.525-.022.098.063.17.206.17.32 0 .932-.361 1.308-1.615.276.945-.564 12.788-13.331 12.788z"/><path d="M34.358 33.592h-.002a.043.043 0 00-.04.033l-.145-.038c-.083.323-.192.528-.292.656l.479-.65zm0 0c.014 0 .033.01.039.03a.94.94 0 01.028.188c.008.1.011.228.008.383a7.542 7.542 0 01-.128 1.172c-.17.923-.54 2.07-1.275 3.136-1.35 1.959-3.469 3.017-6.324 3.132l7.652-8.04z"/></svg><svg viewBox="0 0 502.664 502.664" id="icon" xmlns="http://www.w3.org/2000/svg"><path d="M153.821 358.226L0 274.337v-46.463l153.821-83.414v54.574L46.636 250.523l107.185 53.431v54.272zm26.273 29.358L282.103 115.08h32.227L212.084 387.584h-31.99zm168.749-29.358v-54.272l107.164-52.999-107.164-52.59v-53.927l153.821 83.522v46.183l-153.821 84.083z"/></svg><svg viewBox="0 0 40 40" id="info-icon" xmlns="http://www.w3.org/2000/svg"><path d="M21.064 24.401l-.001-.001c-.014-.042-.053-.24.128-.773v-.001l.684-2.034c.43-1.292.388-2.534-.259-3.487-.518-.785-1.374-1.214-2.353-1.271a5.096 5.096 0 00-2.964.755 4.962 4.962 0 00-1.145.936.926.926 0 00-.046 1.145l.009.013.01.012a.92.92 0 001.13.252l.008-.004.008-.004c.063-.035.228-.111.426-.178.188-.064.363-.105.488-.11l.1.014.001.001c.014.042.053.24-.128.773v.001l-.683 2.033c-.434 1.285-.368 2.522.256 3.469l4.33-1.54zm0 0l.1.015c.125-.006.3-.047.492-.11.188-.062.354-.133.441-.172.405-.21.845-.082 1.11.233.312.334.255.834-.008 1.139-.1.122-.47.514-1.064.89-.649.412-1.59.82-2.768.82h-.279c-.98-.058-1.837-.488-2.355-1.274l4.33-1.54zm13.791-1.477l.002.002c.707 1.164 1.042 2.356 1.027 3.484v.006c0 .847-.21 1.645-.634 2.386-.961 1.68-2.842 2.698-5.25 2.698H10c-2.407 0-4.288-1.017-5.249-2.698a4.936 4.936 0 01-.634-2.452c0-1.098.336-2.277 1.028-3.426h.001l9.85-16.432V6.49C16.223 4.46 18.042 3.35 20 3.35c1.959 0 3.777 1.11 5.005 3.157l9.85 16.416zm-11.771-9.258A3.096 3.096 0 0020 10.583a3.075 3.075 0 00-3.083 3.083A3.096 3.096 0 0020 16.75a3.086 3.086 0 003.084-3.084z"/></svg><svg viewBox="0 0 52 52" id="internet-icon" xmlns="http://www.w3.org/2000/svg"><path d="M26.4 40.34c.829 0 1.46.631 1.46 1.46s-.631 1.46-1.46 1.46-1.46-.631-1.46-1.46.631-1.46 1.46-1.46zm0-1.24a2.675 2.675 0 00-2.7 2.7c0 1.511 1.189 2.7 2.7 2.7 1.511 0 2.7-1.189 2.7-2.7 0-1.513-1.242-2.7-2.7-2.7zm-2.464-6.342l-.03.006-.02.021-2.549 2.548.123.156a9.243 9.243 0 014.836-1.337 9.38 9.38 0 016.69 2.779l.07.07.07-.07 1.04-1.04.071-.071-.07-.07c-2.204-2.205-5.038-3.254-7.871-3.254-.789 0-1.576.105-2.36.262zm7.067-7.018l-.056-.016-.042.041-1.196 1.196-.13.13.18.039c3.154.672 6.1 2.223 8.426 4.549l.071.07.07-.07 1.04-1.04.073-.073-.074-.07a19.555 19.555 0 00-8.362-4.756zm-6.04-.353l.19-.19-.268.02a18.257 18.257 0 00-11.608 5.332l-.07.071.07.07 1.04 1.04.07.071.072-.07c2.43-2.43 5.48-4.032 8.734-4.6l.031-.006.023-.022 1.716-1.716zm11.774-5.362l-.063-.028-.049.048-1.092 1.092-.105.106.137.057a24.183 24.183 0 017.768 5.23l.071.071.07-.07 1.04-1.04.072-.072-.072-.07c-2.348-2.297-4.958-4.071-7.777-5.324zM8.078 25.349l-.072.07.071.072 1.04 1.04.07.07.072-.07c4.557-4.557 10.615-7.043 17.037-7.043 1.4 0 2.797.104 4.141.362l.052.01.038-.037 1.248-1.248.13-.132-.18-.037a26.996 26.996 0 00-5.43-.574c-6.577 0-13.154 2.506-18.217 7.517zM2.93 20.201l-.071.071.07.07 1.04 1.04.071.072.071-.072c5.91-5.96 13.787-9.226 22.185-9.226 3.473 0 6.894.57 10.108 1.659l.059.02.044-.044 1.144-1.144.111-.112-.148-.053A33.578 33.578 0 0026.296 10.5c-8.45 0-16.9 3.234-23.367 9.701zm39.274-5.633l-.066-.036-.053.053-1.092 1.092-.095.095.119.064a32.116 32.116 0 017.464 5.547l.071.07.07-.07 1.04-1.04.07-.07-.069-.07c-2.243-2.297-4.799-4.174-7.459-5.635zm2.361-6.64l-.07-.068-.07.07L11.353 41l-.069.07.067.07 1.092 1.144.071.074.072-.072L45.71 9.163l.073-.073-.074-.07-1.144-1.092z"/></svg><svg viewBox="0 0 52 52" id="lags-icon" xmlns="http://www.w3.org/2000/svg"><path d="M38.885 31.732c-5-24.5-22.5-23.5-28-5.5-1.5.5-3.5 0-5 0-2 0-.222 3.208 1.5 4.5.984.738 4.87 2.322 10.35 3.088m21.15-2.088c.817 4 4 7.5-3 7.5-4.5 0-4.5-3-5.225-5.448m8.225-2.052a40.836 40.836 0 01-8.225 2.052m-12.926.036c-1.349 3.412-1.349 5.412-5.349 5.412-4.4 0-7 0-3-7.5m8.35 2.088c3.62.505 8.142.654 12.925-.036m5.663-10.406c4-.5 11.562-2.646 10.562 6.854-.274 2.61-7.506 1.92-7.906 1.92"/></svg><svg viewBox="0 0 832 265" id="logo" xmlns="http://www.w3.org/2000/svg"><path fill-rule="evenodd" clip-rule="evenodd" d="M187.039 125.856c22.262 0 40.31-18.047 40.31-40.31 0-22.262-18.048-40.31-40.31-40.31-22.263 0-40.31 18.048-40.31 40.31 0 3.884.542 7.601 1.54 11.099 3.406 11.933 12.238 21.667 23.659 26.29a40.128 40.128 0 0015.111 2.921zm64.496-40.31c0 35.621-28.876 64.497-64.496 64.497a64.302 64.302 0 01-24.186-4.689l-36.106 31.293a64.568 64.568 0 012.245 16.93c0 33.394-25.379 60.861-57.901 64.164a65.279 65.279 0 01-6.595.333c-9.415 0-18.359-2.018-26.423-5.644l28.149-25.268a16.124 16.124 0 005.14-14.608l-2.067-12.602a16.125 16.125 0 00-10.8-12.683l-12.409-4.146a16.121 16.121 0 00-15.881 3.294L2.469 211.314A64.537 64.537 0 010 193.577a64.791 64.791 0 011.5-13.895c6.355-28.941 32.146-50.601 62.996-50.601 9.173 0 17.898 1.915 25.799 5.367l34.717-31.165a64.55 64.55 0 01-2.469-17.737c0-35.62 28.876-64.496 64.496-64.496 35.62 0 64.496 28.876 64.496 64.496zM101.3 148.9l30.111-26.267-5.545-5.644-25.882 22.578c-4.041 3.526-9.559 4.734-14.82 3.691-12.275-2.436-22.634-2.52-31.348-.971-29.507 5.246-40.158 29.217-42.53 44.036 6.025-18.324 28.65-48.841 72.606-34.388 5.979 1.966 12.665 1.102 17.408-3.035z"/><rect x="175.752" y=".089" width="22.574" height="82.233" rx="11.287"/><path d="M316.186 164.216c-11.145 0-20.433-2.58-27.966-7.739v-18.988c2.993 2.786 7.121 5.056 12.384 7.017 5.262 1.961 10.216 2.89 14.859 2.89 7.327 0 11.042-1.858 11.042-5.676 0-2.167-1.135-3.096-2.786-4.231-.826-.722-3.405-1.445-4.644-1.857l-6.501-1.961-5.263-1.548-4.747-1.858c-2.064-.825-3.612-1.547-4.747-2.27-2.064-1.548-5.469-4.024-7.017-6.604-1.341-2.58-2.58-6.398-2.58-10.629 0-13.931 11.042-21.67 28.379-21.67 8.771 0 16.923 1.96 24.457 5.984v17.853c-3.199-1.961-7.018-3.612-11.455-4.953-4.437-1.342-8.668-2.064-12.796-2.064-6.295 0-9.494 1.548-9.494 4.747 0 1.341.826 2.373 2.993 3.302l3.302 1.135c2.167.722 6.914 1.961 9.907 2.889 6.914 2.271 12.383 5.16 16.304 8.565 3.922 3.406 5.882 8.256 5.882 14.448 0 7.12-2.786 12.692-8.255 16.923-5.47 4.231-12.59 6.295-21.258 6.295zm81.211 0c-11.558 0-21.155-3.508-28.791-10.526-7.636-7.017-11.455-15.995-11.455-27.036 0-11.042 3.819-20.02 11.352-27.037 7.636-7.017 17.233-10.526 28.791-10.526 6.811 0 13.002 1.342 18.678 4.128v18.265c-5.676-3.508-11.764-5.263-18.472-5.263-6.088 0-11.145 1.961-15.169 5.779-4.025 3.818-6.089 8.772-6.089 14.654 0 5.985 2.064 10.938 6.192 14.756 4.231 3.819 9.494 5.676 15.788 5.676 7.637 0 13.932-1.961 18.988-5.779v18.369c-5.882 2.992-12.486 4.54-19.813 4.54zM309.272 250.771h-18.575v-72.235h18.472l18.265 27.759 18.368-27.759h18.369v72.235h-18.472v-44.063l-12.899 19.4h-10.216l-13.312-19.4v44.063zm95.011-21.464c3.611 3.818 8.152 5.779 13.621 5.779 5.47 0 9.907-1.961 13.519-5.779 3.611-3.818 5.469-8.771 5.469-14.653s-1.858-10.836-5.469-14.654c-3.612-3.818-8.049-5.779-13.519-5.779-5.469 0-10.01 1.961-13.621 5.779-3.612 3.818-5.366 8.772-5.366 14.654s1.754 10.835 5.366 14.653zm40.864 11.971c-7.223 7.326-16.304 10.938-27.243 10.938-10.938 0-20.019-3.612-27.243-10.938-7.223-7.327-10.835-16.202-10.835-26.624 0-10.423 3.612-19.298 10.835-26.624 7.224-7.327 16.305-10.939 27.243-10.939 10.939 0 20.02 3.612 27.243 10.939 7.224 7.326 10.836 16.201 10.836 26.624 0 10.422-3.612 19.297-10.836 26.624zm63.684 9.493h-37.15v-72.235h35.189c13.209 0 22.496 6.398 22.496 18.265 0 7.017-4.024 11.971-8.461 14.034 3.508.826 6.707 2.89 9.493 6.295 2.787 3.406 4.231 7.637 4.231 12.9 0 6.191-2.373 11.248-7.12 15.066-4.644 3.818-10.939 5.675-18.678 5.675zm-18.575-30.854v15.375h14.963c5.676 0 9.081-2.786 9.081-7.636s-3.612-7.739-9.081-7.739h-14.963zm0-26.315v12.59h13.828c4.541 0 7.43-2.374 7.43-6.192 0-4.024-2.889-6.398-7.43-6.398h-13.828zm78.006 57.169h-18.575v-72.235h18.575v72.235zm71.644 0h-53.248v-72.235h18.574v55.931h34.674v16.304zm32.751 0h-18.575v-72.235h18.575v72.235zm54.617 0h-18.575V194.84h-21.671v-16.304h62.02v16.304h-21.774v55.931zm75.664 0h-18.575v-31.99l-27.759-40.245h21.155l16.098 23.838 16.201-23.838h20.639l-27.759 39.833v32.402z"/></svg><svg viewBox="0 0 40 40" id="pay-icon" xmlns="http://www.w3.org/2000/svg"><path d="M31.6 9.3H6.8c-.5 0-1 .2-1.3.5-.3.4-.5.8-.5 1.3v17c0 .5.2 1 .5 1.3.4.3.8.5 1.3.5h24.8c.5 0 1-.2 1.3-.5.3-.4.5-.8.5-1.3v-3.8h-7.8c-.6 0-1.2-.3-1.6-.7-.4-.4-.7-.9-.7-1.6v-4.8c0-.6.3-1.2.7-1.6.4-.4 1-.7 1.6-.7h7.8v-3.8c0-.5-.2-1-.5-1.3-.4-.3-.8-.5-1.3-.5z"/><path d="M33.7 16.2h-8.1c-.5 0-1 .5-1 1V22c0 .5.4 1 1 1h8.1c.6 0 1-.4 1-1v-4.8c0-.5-.4-1-1-1zM27.6 4C22.1 5.4 12.3 6.8 6.7 8.2h22.8l-.9-3.6c-.2-.4-.5-.6-1-.6z"/><circle cx="29.7" cy="19.5" r="1.4"/></svg><svg viewBox="0 0 52 52" id="pic-icon" xmlns="http://www.w3.org/2000/svg"><path d="M43.188 10.938H7.438A2.438 2.438 0 005 13.374v29.25a2.437 2.437 0 002.438 2.438h35.75a2.438 2.438 0 002.437-2.438v-29.25a2.438 2.438 0 00-2.438-2.438zm-35.75 1.624h35.75a.812.812 0 01.812.813v22.831l-6.68-6.68a2.435 2.435 0 00-3.454 0l-4.637 4.637-9.51-9.512a2.435 2.435 0 00-3.454 0l-9.64 9.646V13.375a.812.812 0 01.813-.813zm-.813 30.063V36.6l10.8-10.8a.81.81 0 011.15 0l17.637 17.637H7.437a.812.812 0 01-.812-.812zm36.563.813h-4.672l-8.125-8.126 4.637-4.637a.81.81 0 011.15 0L44 38.504v4.121a.812.812 0 01-.813.813z"/><path d="M41.226 17.62l.044.753a4.04 4.04 0 00-.958 2.642c0 2.142 1.605 3.985 3.882 3.985 2.283 0 3.901-1.828 3.901-3.985 0-1-.345-1.916-.936-2.615l.044-.785.434-7.628.002-.028v-.028l.083-2.873.06-2.058h-7.156l.06 2.058.082 2.873.001.03.002.031.455 7.628z"/></svg><svg viewBox="0 0 24 24" id="tg-icon" xmlns="http://www.w3.org/2000/svg"><g clip-path="url(#ja)"><path fill-rule="evenodd" clip-rule="evenodd" d="M19.777 4.43a1.5 1.5 0 012.062 1.626L19.57 19.813c-.22 1.327-1.676 2.088-2.893 1.427-1.018-.553-2.53-1.405-3.89-2.294-.68-.445-2.763-1.87-2.507-2.884C10.5 15.195 14 11.937 16 10c.785-.761.427-1.2-.5-.5-2.303 1.738-5.998 4.381-7.22 5.125-1.078.656-1.64.768-2.312.656-1.226-.204-2.363-.52-3.291-.905-1.254-.52-1.193-2.244-.001-2.746l17.1-7.2z"/></g><defs><clipPath id="ja"><path d="M0 0h24v24H0z"/></clipPath></defs></svg><svg viewBox="0 0 40 40" id="time-icon" xmlns="http://www.w3.org/2000/svg"><path d="M29.645 3.833v1.473H28.5l.249.673c1.315 3.553.176 7.645-2.9 10.048l-.006.005c-.416.337-.922.596-1.488.882l-1.064.539 1.13.381c.473.16.974.492 1.422.854l.006.006c3.073 2.401 4.217 6.494 2.898 10.145l-.241.67h1.139v1.973H31.5v.878h-22v-.878h1.948v-1.973h1.139l-.242-.67c-1.319-3.651-.175-7.744 2.898-10.145l.007-.006c.415-.336.922-.595 1.488-.882l1.063-.538-1.129-.381c-.473-.16-.975-.492-1.422-.855l-.007-.005-.007-.006c-3.063-2.304-4.21-6.391-2.89-10.045l.241-.67h-1.139V3.333H9.5V2.36h21.907v.973h-1.355v.5h-.407z"/></svg><svg viewBox="0 0 52 52" id="turn-icon" xmlns="http://www.w3.org/2000/svg"><path d="M45.5 39V10.5a1 1 0 00-1-1H18.665l-4.102-2.154h29.023c1.128 0 2.094.402 2.898 1.206.804.804 1.206 1.77 1.204 2.896v24.613c0 .616-.111 1.172-.334 1.668C47.131 38.225 46 39 45.5 39zM7.749 9.254l.751.753V37a1 1 0 001 1H34L4 8.372 5.5 7 42 43.5l-1.388 1.388-4.82-4.724h-.41V42.5H18.973v-2.336h-8.204c-1.128 0-2.095-.402-2.899-1.206-.804-.804-1.205-1.77-1.204-2.897V11.448c0-1.265.279-1.579 1.083-2.194z"/></svg><svg viewBox="0 0 24 24" id="vk-icon" xmlns="http://www.w3.org/2000/svg"><path d="M21.503 18.381h-2.281c-.863 0-1.123-.699-2.67-2.247-1.352-1.303-1.923-1.465-2.265-1.465-.473 0-.602.13-.602.781v2.052c0 .555-.18.88-1.63.88a8.9 8.9 0 01-6.955-4.17 18.18 18.18 0 01-3.6-7.558c0-.342.13-.652.782-.652h2.28c.586 0 .797.261 1.027.864 1.107 3.258 2.996 6.092 3.763 6.092.294 0 .422-.13.422-.863V8.739c-.097-1.531-.91-1.66-.91-2.214a.563.563 0 01.585-.523h3.584c.49 0 .652.244.652.83v4.53c0 .489.21.651.358.651.294 0 .52-.162 1.059-.7a18.759 18.759 0 002.802-4.66.982.982 0 01.993-.65h2.281c.684 0 .829.342.684.83a28.467 28.467 0 01-3.062 5.262c-.246.375-.344.57 0 1.01.226.342 1.026 1.01 1.563 1.645.782.78 1.431 1.682 1.922 2.67.196.636-.131.961-.782.961z"/></svg><svg viewBox="0 0 52 52" id="water-icon" xmlns="http://www.w3.org/2000/svg"><path d="M27.085 43h-2.44c-8.396 0-14.458-6.746-12.15-13.523 1.418-4.17 3.462-8.172 6.081-11.91l3.748-5.35c1.417-2.023 2.127-3.036 3.14-3.187.265-.04.536-.04.8 0 1.014.151 1.724 1.164 3.142 3.188l3.747 5.348a48.464 48.464 0 013.95 6.718"/><path d="M30.172 26.896c1.707 1.233 2.33 5.09.854 6.988-2.56 3.288-1.707 6.988 0 7.81m3.75-14.798c1.706 1.233 2.33 5.09.853 6.988-2.56 3.288-1.707 6.988 0 7.81m3.414-14.798c1.707 1.233 2.33 5.09.853 6.988-2.56 3.288-1.707 6.988 0 7.81"/></svg></svg>