<svg width="32" height="32" viewBox="0 0 32 32" fill="none" xmlns="http://www.w3.org/2000/svg">
<g >
<path  d="M16.0033 10.3333C14.9424 10.3333 13.925 10.7547 13.1749 11.5049C12.4247 12.255 12.0033 13.2724 12.0033 14.3333C12.0033 15.3942 12.4247 16.4116 13.1749 17.1617C13.925 17.9119 14.9424 18.3333 16.0033 18.3333C17.0642 18.3333 18.0816 17.9119 18.8317 17.1617C19.5819 16.4116 20.0033 15.3942 20.0033 14.3333C20.0033 13.2724 19.5819 12.255 18.8317 11.5049C18.0816 10.7547 17.0642 10.3333 16.0033 10.3333ZM13.67 14.3333C13.67 13.7145 13.9158 13.121 14.3534 12.6834C14.791 12.2458 15.3845 12 16.0033 12C16.6221 12 17.2156 12.2458 17.6532 12.6834C18.0908 13.121 18.3366 13.7145 18.3366 14.3333C18.3366 14.9521 18.0908 15.5456 17.6532 15.9832C17.2156 16.4208 16.6221 16.6666 16.0033 16.6666C15.3845 16.6666 14.791 16.4208 14.3534 15.9832C13.9158 15.5456 13.67 14.9521 13.67 14.3333ZM24.6666 21.3333L17.9413 28.4733C17.692 28.738 17.3912 28.949 17.0573 29.0932C16.7235 29.2374 16.3636 29.3118 16 29.3118C15.6363 29.3118 15.2765 29.2374 14.9426 29.0932C14.6088 28.949 14.308 28.738 14.0586 28.4733L7.33331 21.3333H7.35864L7.34731 21.32L7.33331 21.3033C5.60711 19.2617 4.66205 16.6735 4.66664 14C4.66664 7.74063 9.74064 2.66663 16 2.66663C22.2593 2.66663 27.3333 7.74063 27.3333 14C27.3379 16.6735 26.3928 19.2617 24.6666 21.3033L24.6526 21.32L24.6413 21.3333H24.6666ZM23.3713 20.254C24.8567 18.5091 25.6706 16.2914 25.6666 14C25.6666 8.66129 21.3386 4.33329 16 4.33329C10.6613 4.33329 6.33331 8.66129 6.33331 14C6.32914 16.2915 7.14309 18.5092 8.62864 20.254L8.83398 20.496L15.272 27.33C15.3655 27.4292 15.4783 27.5083 15.6035 27.5624C15.7287 27.6165 15.8636 27.6444 16 27.6444C16.1363 27.6444 16.2713 27.6165 16.3965 27.5624C16.5217 27.5083 16.6345 27.4292 16.728 27.33L23.166 20.496L23.3713 20.254Z" fill="white"/>
</g>
</svg>
